<svg fill="none" height="150" viewBox="0 0 275 150" width="275" xmlns="http://www.w3.org/2000/svg" xmlns:xlink="http://www.w3.org/1999/xlink"><linearGradient id="a"><stop offset="0" stop-color="#09005d"/><stop offset="1" stop-color="#1a0f91"/></linearGradient><linearGradient id="b" gradientUnits="userSpaceOnUse" x1="185.185" x2="166.018" xlink:href="#a" y1="12.3043" y2="97.9287"/><linearGradient id="c"><stop offset="0" stop-color="#4f52ff"/><stop offset="1" stop-color="#4042e2"/></linearGradient><linearGradient id="d" gradientUnits="userSpaceOnUse" x1="197.655" x2="100.889" xlink:href="#c" y1="143.131" y2="-149.125"/><linearGradient id="e" gradientUnits="userSpaceOnUse" x1="172.828" x2="172.463" xlink:href="#c" y1="-16.5551" y2="5.77558"/><linearGradient id="f"><stop offset="0" stop-color="#dae3fe"/><stop offset="1" stop-color="#e9effd"/></linearGradient><linearGradient id="g" gradientUnits="userSpaceOnUse" x1="183.247" x2="198.188" xlink:href="#f" y1="18.4005" y2="18.4005"/><linearGradient id="h" gradientUnits="userSpaceOnUse" x1="186.188" x2="195.247" xlink:href="#f" y1="15.3216" y2="15.3216"/><linearGradient id="i" gradientUnits="userSpaceOnUse" x1="187.832" x2="193.517" xlink:href="#f" y1="34.4134" y2="34.4134"/><linearGradient id="j" gradientUnits="userSpaceOnUse" x1="156.21" x2="197.611" xlink:href="#f" y1="84.2232" y2="84.2232"/><linearGradient id="k"><stop offset="0" stop-color="#e1473d"/><stop offset="1" stop-color="#e9605a"/></linearGradient><linearGradient id="l" gradientUnits="userSpaceOnUse" x1="54.5996" x2="54.5996" xlink:href="#k" y1="113.3" y2="163.371"/><linearGradient id="m"><stop offset="0" stop-color="#ff928e"/><stop offset="1" stop-color="#fe7062"/></linearGradient><linearGradient id="n" gradientUnits="userSpaceOnUse" x1="3.27385" x2="7.19225" xlink:href="#m" y1="130.84" y2="146.196"/><linearGradient id="o" gradientUnits="userSpaceOnUse" x1="52.5084" x2="50.8983" xlink:href="#m" y1="67.8591" y2="131.391"/><linearGradient id="p" gradientUnits="userSpaceOnUse" x1="54.0247" x2="62.4796" xlink:href="#k" y1="63.7541" y2="-51.3265"/><linearGradient id="q" gradientUnits="userSpaceOnUse" x1="132.066" x2="110.831" xlink:href="#m" y1="94.6006" y2="132.341"/><linearGradient id="r" gradientUnits="userSpaceOnUse" x1="118.722" x2="156.058" xlink:href="#k" y1="133.794" y2="134.737"/><linearGradient id="s" gradientUnits="userSpaceOnUse" x1="127.526" x2="89.3287" xlink:href="#a" y1="94.9134" y2="144.822"/><linearGradient id="t" gradientUnits="userSpaceOnUse" x1="131.217" x2="140.838" xlink:href="#a" y1="103.482" y2="103.726"/><linearGradient id="u" gradientUnits="userSpaceOnUse" x1="126.179" x2="107.431" xlink:href="#k" y1="108.19" y2="117.894"/><linearGradient id="v"><stop offset="0" stop-color="#febbba"/><stop offset="1" stop-color="#ff928e"/></linearGradient><linearGradient id="w" gradientUnits="userSpaceOnUse" x1="123.746" x2="205.279" xlink:href="#v" y1="71.3594" y2="-26.6005"/><linearGradient id="x" gradientUnits="userSpaceOnUse" x1="131.578" x2="159.53" xlink:href="#a" y1="115.668" y2="63.9144"/><linearGradient id="y" gradientUnits="userSpaceOnUse" x1="140.728" x2="108.933" xlink:href="#m" y1="111.552" y2="151.316"/><linearGradient id="z" gradientUnits="userSpaceOnUse" x1="123.746" x2="111.831" xlink:href="#a" y1="130.98" y2="150.559"/><linearGradient id="A" gradientUnits="userSpaceOnUse" x1="35.0808" x2="58.6229" xlink:href="#a" y1="138.038" y2="138.038"/><linearGradient id="B" gradientUnits="userSpaceOnUse" x1="69.0263" x2="30.8325" xlink:href="#m" y1="118.961" y2="152.008"/><linearGradient id="C" gradientUnits="userSpaceOnUse" x1="51.1574" x2="39.2418" xlink:href="#a" y1="130.992" y2="150.571"/><linearGradient id="D" gradientUnits="userSpaceOnUse" x1="8.15308" x2="31.6952" xlink:href="#a" y1="138.038" y2="138.038"/><linearGradient id="E" gradientUnits="userSpaceOnUse" x1="47.5321" x2="1.44638" xlink:href="#m" y1="119.238" y2="150.803"/><linearGradient id="F" gradientUnits="userSpaceOnUse" x1="24.2312" x2="12.3155" xlink:href="#a" y1="130.991" y2="150.57"/><linearGradient id="G" gradientUnits="userSpaceOnUse" x1="173.945" x2="231.754" xlink:href="#v" y1="101.511" y2="64.2124"/><linearGradient id="H" gradientUnits="userSpaceOnUse" x1="49.5298" x2="8.15157" xlink:href="#m" y1="98.1533" y2="123.024"/><linearGradient id="I" gradientUnits="userSpaceOnUse" x1="41.8945" x2="53.6681" xlink:href="#a" y1="102.059" y2="119.218"/><linearGradient id="J" gradientUnits="userSpaceOnUse" x1="41.4692" x2="53.2436" xlink:href="#a" y1="102.351" y2="119.51"/><linearGradient id="K" gradientUnits="userSpaceOnUse" x1="40.956" x2="52.7304" xlink:href="#a" y1="102.703" y2="119.862"/><linearGradient id="L" gradientUnits="userSpaceOnUse" x1="40.0692" x2="51.8436" xlink:href="#a" y1="103.312" y2="120.47"/><linearGradient id="M" gradientUnits="userSpaceOnUse" x1="39.4844" x2="51.2588" xlink:href="#a" y1="103.713" y2="120.871"/><linearGradient id="N" gradientUnits="userSpaceOnUse" x1="39.1211" x2="50.8955" xlink:href="#a" y1="103.962" y2="121.121"/><linearGradient id="O" gradientUnits="userSpaceOnUse" x1="42.5028" x2="54.2764" xlink:href="#a" y1="101.642" y2="118.801"/><linearGradient id="P" gradientUnits="userSpaceOnUse" x1="92.8148" x2="60.2242" xlink:href="#m" y1="97.9822" y2="125.129"/><linearGradient id="Q" gradientUnits="userSpaceOnUse" x1="88.8136" x2="100.588" xlink:href="#a" y1="103.762" y2="120.921"/><linearGradient id="R" gradientUnits="userSpaceOnUse" x1="88.3884" x2="100.163" xlink:href="#a" y1="104.054" y2="121.212"/><linearGradient id="S" gradientUnits="userSpaceOnUse" x1="87.8758" x2="99.6502" xlink:href="#a" y1="104.406" y2="121.564"/><linearGradient id="T" gradientUnits="userSpaceOnUse" x1="86.9881" x2="98.7625" xlink:href="#a" y1="105.014" y2="122.173"/><linearGradient id="U" gradientUnits="userSpaceOnUse" x1="86.4041" x2="98.1785" xlink:href="#a" y1="105.415" y2="122.575"/><linearGradient id="V" gradientUnits="userSpaceOnUse" x1="86.0408" x2="97.8153" xlink:href="#a" y1="105.664" y2="122.824"/><linearGradient id="W" gradientUnits="userSpaceOnUse" x1="89.422" x2="101.196" xlink:href="#a" y1="103.345" y2="120.503"/><linearGradient id="X" gradientUnits="userSpaceOnUse" x1="40.2585" x2="9.92921" xlink:href="#m" y1="76.1296" y2="93.5681"/><linearGradient id="Y" gradientUnits="userSpaceOnUse" x1="32.721" x2="40.9893" xlink:href="#a" y1="79.7307" y2="91.7807"/><linearGradient id="Z" gradientUnits="userSpaceOnUse" x1="32.4226" x2="40.6909" xlink:href="#a" y1="79.9353" y2="91.9852"/><linearGradient id="aa" gradientUnits="userSpaceOnUse" x1="32.0615" x2="40.3306" xlink:href="#a" y1="80.1821" y2="92.2329"/><linearGradient id="ab" gradientUnits="userSpaceOnUse" x1="31.4392" x2="39.7075" xlink:href="#a" y1="80.6102" y2="92.6602"/><linearGradient id="ac" gradientUnits="userSpaceOnUse" x1="31.0305" x2="39.311" xlink:href="#a" y1="80.8919" y2="92.9122"/><linearGradient id="ad" gradientUnits="userSpaceOnUse" x1="30.7736" x2="39.0419" xlink:href="#a" y1="81.067" y2="93.1169"/><linearGradient id="ae" gradientUnits="userSpaceOnUse" x1="33.1478" x2="41.4161" xlink:href="#a" y1="79.4372" y2="91.4879"/><linearGradient id="af" gradientUnits="userSpaceOnUse" x1="69.6927" x2="45.9819" xlink:href="#m" y1="75.3593" y2="92.5182"/><linearGradient id="ag" gradientUnits="userSpaceOnUse" x1="62.491" x2="70.7737" xlink:href="#a" y1="80.1518" y2="92.2216"/><linearGradient id="ah" gradientUnits="userSpaceOnUse" x1="62.2595" x2="70.5199" xlink:href="#a" y1="80.3628" y2="92.4"/><linearGradient id="ai" gradientUnits="userSpaceOnUse" x1="61.9688" x2="70.2404" xlink:href="#a" y1="80.6071" y2="92.661"/><linearGradient id="aj" gradientUnits="userSpaceOnUse" x1="61.4733" x2="69.7019" xlink:href="#a" y1="81.0417" y2="93.0334"/><linearGradient id="ak" gradientUnits="userSpaceOnUse" x1="61.1453" x2="69.3947" xlink:href="#a" y1="81.3209" y2="93.296"/><linearGradient id="al" gradientUnits="userSpaceOnUse" x1="60.9363" x2="69.2078" xlink:href="#a" y1="81.4912" y2="93.5452"/><linearGradient id="am" gradientUnits="userSpaceOnUse" x1="62.8323" x2="71.0799" xlink:href="#a" y1="79.8694" y2="91.889"/><linearGradient id="an" gradientUnits="userSpaceOnUse" x1="100.739" x2="75.2641" xlink:href="#m" y1="76.9868" y2="92.1269"/><linearGradient id="ao" gradientUnits="userSpaceOnUse" x1="91.4881" x2="99.7706" xlink:href="#a" y1="81.0313" y2="93.1013"/><linearGradient id="ap" gradientUnits="userSpaceOnUse" x1="91.256" x2="99.5163" xlink:href="#a" y1="81.2414" y2="93.2795"/><linearGradient id="aq" gradientUnits="userSpaceOnUse" x1="90.9661" x2="99.2376" xlink:href="#a" y1="81.4858" y2="93.5406"/><linearGradient id="ar" gradientUnits="userSpaceOnUse" x1="90.4706" x2="98.6975" xlink:href="#a" y1="81.921" y2="93.9113"/><linearGradient id="as" gradientUnits="userSpaceOnUse" x1="90.1427" x2="98.3914" xlink:href="#a" y1="82.2003" y2="94.175"/><linearGradient id="at" gradientUnits="userSpaceOnUse" x1="89.9333" x2="98.2041" xlink:href="#a" y1="82.3708" y2="94.4247"/><linearGradient id="au" gradientUnits="userSpaceOnUse" x1="91.8296" x2="100.077" xlink:href="#a" y1="80.748" y2="92.7684"/><clipPath id="av"><path d="m0 0h275v150h-275z"/></clipPath><g clip-path="url(#av)"><path d="m272.528 27.0681c-.027-1.2372-1.216-2.2545-2.675-2.2545h-55.105c-1.478 0-2.929 1.0712-2.929 2.3247v112.0607c0 .603.41 1.181.913 1.607s1.249.664 1.96.663l57.617-.134c.717-.001 1.418-.247 1.92-.682.501-.435.784-1.036.77-1.644z" fill="#91b3fa"/><path d="m231.946 38.0185-15.698-.0177-.125-6.8281h15.714z" fill="#bdd0fb"/><path d="m249.542 38.015-15.682-.0178-.108-6.8245h15.698z" fill="#bdd0fb"/><path d="m267.121 38.0114-15.667-.0177-.09-6.821h15.681z" fill="#bdd0fb"/><path d="m232.142 50.2749-15.671.0085-.124-6.784 15.686-.005z" fill="#bdd0fb"/><path d="m249.708 50.265-15.655.0085-.107-6.7798 15.67-.0057z" fill="#bdd0fb"/><path d="m267.256 50.2558-15.64.0086-.09-6.777 15.655-.0057z" fill="#bdd0fb"/><path d="m232.338 62.4469-15.644.0135-.123-6.7599 15.659-.0107z" fill="#bdd0fb"/><path d="m249.873 62.4314-15.629.0135-.106-6.7564 15.643-.0106z" fill="#bdd0fb"/><path d="m267.39 62.4158-15.612.0135-.09-6.7529 15.628-.0114z" fill="#bdd0fb"/><path d="m232.533 74.5767-15.617.0199-.124-6.7366 15.633-.017z" fill="#bdd0fb"/><path d="m250.037 74.5552-15.601.0192-.106-6.733 15.616-.0163z" fill="#bdd0fb"/><path d="m267.524 74.5333-15.585.0198-.09-6.7301 15.601-.0164z" fill="#bdd0fb"/><path d="m232.727 86.6649-15.59.0248-.123-6.7138 15.605-.0213z" fill="#bdd0fb"/><path d="m250.201 86.6372-15.574.0248-.106-6.7103 15.589-.0213z" fill="#bdd0fb"/><path d="m267.658 86.6096-15.559.0248-.089-6.7068 15.574-.022z" fill="#bdd0fb"/><path d="m232.921 98.7113-15.564.0298-.122-6.6905 15.578-.0269z" fill="#bdd0fb"/><path d="m250.365 98.6772-15.548.0305-.105-6.6868 15.562-.027z" fill="#bdd0fb"/><path d="m267.791 98.6439-15.532.0298-.089-6.6834 15.547-.0269z" fill="#bdd0fb"/><path d="m233.113 110.716-15.536.035-.121-6.667 15.55-.032z" fill="#bdd0fb"/><path d="m250.527 110.676-15.52.036-.105-6.665 15.534-.031z" fill="#bdd0fb"/><path d="m267.924 110.637-15.505.035-.089-6.661 15.52-.032z" fill="#bdd0fb"/><path d="m233.305 122.679-15.509.041-.121-6.644 15.524-.038z" fill="#bdd0fb"/><path d="m250.689 122.634-15.493.04-.105-6.64 15.509-.038z" fill="#bdd0fb"/><path d="m268.056 122.589-15.478.04-.088-6.637 15.492-.038z" fill="#bdd0fb"/><path d="m233.497 134.603-15.482.045-.122-6.622 15.498-.042z" fill="#bdd0fb"/><path d="m250.85 134.551-15.466.046-.104-6.619 15.481-.043z" fill="#bdd0fb"/><path d="m268.187 134.5-15.451.045-.088-6.614 15.466-.043z" fill="#bdd0fb"/><path d="m164.711 12.6444c-.02-.8527-.928-1.5394-2.04-1.5394h-67.4475c-1.1269 0-2.3236.7073-2.3236 1.572v120.758c0 .646.4767 1.265 1.0722 1.72.5955.456 1.4741.711 2.315.709l68.1869-.143c.848-.001 1.678-.264 2.271-.73.594-.465.928-1.095.912-1.746z" fill="#91b3fa"/><g fill="#bdd0fb"><path d="m125.977 19.6633-22.064-.0589.008-2.1176 22.039.0532z"/><path d="m126.037 27.4633-22.154-.0774.008-2.1353 22.13.0724z"/><path d="m126.098 35.3284-22.246-.0965.008-2.153 22.221.0915z"/><path d="m126.16 43.2589-22.339-.1163.009-2.1708 22.313.1114z"/><path d="m126.221 51.2554-22.43-.1362.008-2.1885 22.405.1305z"/><path d="m126.348 67.4498-22.62-.1774.009-2.2254 22.593.1717z"/><path d="m126.539 92.2585-22.908-.2412.01-2.2822 22.881.2348z"/><path d="m126.284 59.3185-22.524-.1561.008-2.207 22.499.1504z"/><path d="m126.411 75.6499-22.715-.1979.009-2.2446 22.689.1923z"/><path d="m126.475 83.9187-22.811-.2192.009-2.263 22.785.2136z"/><path d="m126.605 100.669-23.006-.263.009-2.302 22.979.2575z"/><path d="m126.67 109.152-23.104-.285.009-2.322 23.078.28z"/><path d="m126.737 117.709-23.204-.308.008-2.342 23.178.301z"/><path d="m126.804 126.339-23.304-.331.009-2.362 23.277.325z"/><path d="m154.904 19.74-22.202-.0589-.024-2.1247 22.177.0539z"/><path d="m155.084 27.5654-22.294-.078-.024-2.1424 22.269.073z"/><path d="m155.266 35.4555-22.387-.0972-.025-2.1602 22.362.0922z"/><path d="m155.449 43.4114-22.48-.117-.025-2.1772 22.454.1114z"/><path d="m155.634 51.4342-22.575-.1369-.025-2.1963 22.549.1319z"/><path d="m156.007 67.6825-22.765-.1787-.025-2.2326 22.739.1724z"/><path d="m156.58 92.5749-23.057-.2426-.026-2.2907 23.03.237z"/><path d="m155.819 59.5242-22.669-.1574-.025-2.2148 22.643.1525z"/><path d="m156.196 75.9095-22.861-.1993-.025-2.2517 22.834.1937z"/><path d="m156.388 84.2068-22.96-.2207-.025-2.2715 22.932.215z"/><path d="m156.774 101.015-23.156-.266-.026-2.3094 23.129.2589z"/><path d="m156.971 109.527-23.257-.287-.026-2.33 23.228.281z"/><path d="m157.168 118.113-23.357-.31-.027-2.35 23.329.304z"/><path d="m157.367 126.773-23.458-.333-.027-2.37 23.431.327z"/></g><path d="m214.656 139.562c-.028 2.822-2.46 5.111-5.432 5.117l-71.844.157c-2.994.006-5.478-2.281-5.55-5.115l-3.347-133.42901c-.08-3.17239 2.433-5.737927 5.611-5.723078l76.262.363462c3.154.014849 5.684 2.593946 5.652 5.752126l-1.351 132.8775z" fill="url(#b)"/><path d="m208.181 14.3856c.021-3.0484-2.487-5.53646-5.604-5.55002l-60.528-.26533c-3.136-.01356-5.624 2.46095-5.557 5.52035l2.488 113.4464c.061 2.779 2.526 5.023 5.504 5.018l57.504-.091c2.961-.004 5.377-2.249 5.396-5.018l.796-113.0604z" fill="url(#d)"/><path d="m181.434 4.5186c.001.59135-.476 1.06844-1.066 1.06585l-15.752-.07101c-.591-.00258-1.077-.48483-1.084-1.07683-.007-.59264.467-1.07102 1.059-1.06844l15.77.0736c.592.00258 1.071.48483 1.073 1.07683z" fill="url(#e)"/><g fill="#91b3fa" opacity=".48"><path d="m195.247 94.8542 9.074-8.9826-.336 18.9514-8.719-9.9475z"/><path d="m190.865 99.1938 12.825 14.6422.13.15-.37 11.602c-.029 1.113-.626 2.184-1.572 2.976-.834.696-1.917 1.123-3.05 1.214l-18.122-20.525 10.159-10.0605z"/><path d="m201.619 80.0155-10.358 10.2957-4.37 4.3441-10.159 10.0987-16.703-18.9154.003-.0025 10.12-10.2286-.029-.0007-.055-.0284v-.0026l4.41-4.4048.041.0052.011.0032.008-.0032.006-.0052 10.364-10.4648 20.652-20.8258-.779 34.1635z"/><path d="m190.836 129.803-30.909.024 16.475-16.312z"/><path d="m172.431 109.03-20.927 20.802-1.912.002c-1.274 0-2.509-.428-3.436-1.197-.929-.77-1.476-1.816-1.515-2.909l-.87-23.456 11.961-12.0906z"/><path d="m151.694 85.6184-8.218 8.3493-.668-18.3687 8.879 10.0194z"/><path d="m185.26 51.5491-16.608-19.2583 17.498-18.0524 14.444-.0923c3.075-.02 5.477 2.4074 5.402 5.4416l-.274 11.1989-20.462 20.7632z"/><path d="m153.263 14.4495 24.028-.1536-12.759 13.217z"/><path d="m164.238 36.8447 16.606 19.1848-10.35 10.5049-4.356 4.4215-9.99 10.2861-13.383-15.3519v-.0026l-.441-6.2899-.037-.0342z"/><path d="m144.998 14.6141 15.119 17.4708-18.254 18.9058-1.149-30.8911c-.102-2.6836 1.743-4.9483 4.285-5.4855z"/></g><path d="m171.713 20.1035h-26.341c-.466 0-.843.3763-.843.8406v.0051c0 .4642.377.8406.843.8406h26.341c.465 0 .843-.3764.843-.8406v-.0051c0-.4643-.378-.8406-.843-.8406z" fill="#bdd0fb"/><path d="m171.713 24.6813h-26.341c-.466 0-.843.3763-.843.8405v.0052c0 .4642.377.8405.843.8405h26.341c.465 0 .843-.3763.843-.8405v-.0052c0-.4642-.378-.8405-.843-.8405z" fill="#bdd0fb"/><path d="m171.713 29.2585h-26.341c-.466 0-.843.3764-.843.8406v.0052c0 .4642.377.8405.843.8405h26.341c.465 0 .843-.3763.843-.8405v-.0052c0-.4642-.378-.8406-.843-.8406z" fill="#bdd0fb"/><path d="m190.718 29.0933c-.953 0-1.794-.4971-2.252-1.3299-2.381-4.3299-5.219-10.0317-5.219-12.6063 0-4.1072 3.351-7.44934 7.471-7.44934 4.119 0 7.47 3.34154 7.47 7.44934 0 2.5752-2.838 8.2764-5.219 12.6063-.457.8328-1.299 1.3299-2.251 1.3299zm0-20.19186c-3.46 0-6.274 2.80636-6.274 6.25566 0 1.7857 1.848 6.1711 5.071 12.0324.245.4448.694.7101 1.203.7101.508 0 .957-.2653 1.202-.7101 3.223-5.8613 5.071-10.2467 5.071-12.0324 0-3.4493-2.814-6.25566-6.273-6.25566z" fill="url(#g)"/><path d="m190.718 19.8388c-2.498 0-4.53-2.0265-4.53-4.5165s2.033-4.5165 4.53-4.5165 4.529 2.0265 4.529 4.5165-2.032 4.5165-4.529 4.5165zm0-7.84c-1.838 0-3.333 1.4907-3.333 3.3235s1.495 3.3234 3.333 3.3234 3.333-1.4906 3.333-3.3234-1.495-3.3235-3.333-3.3235z" fill="url(#h)"/><path d="m190.674 37.2481c1.571 0 2.843-1.2692 2.843-2.8347 0-1.5656-1.272-2.8348-2.843-2.8348-1.57 0-2.842 1.2692-2.842 2.8348 0 1.5655 1.272 2.8347 2.842 2.8347z" fill="url(#i)"/><path d="m195.851 131.963c-.209 0-.417-.084-.568-.251l-1.471-1.618c-.284-.313-.26-.796.053-1.08.315-.282.799-.259 1.083.053l1.47 1.619c.285.313.261.796-.053 1.079-.147.132-.331.198-.514.198zm-3.676-4.046c-.209 0-.417-.084-.568-.251l-1.471-1.618c-.284-.313-.26-.796.053-1.08.314-.282.799-.258 1.083.053l1.47 1.619c.284.313.26.796-.053 1.079-.147.133-.331.198-.515.198zm-3.676-4.045c-.209 0-.417-.084-.569-.251l-1.47-1.618c-.284-.313-.26-.796.053-1.08.314-.283.798-.259 1.083.053l1.47 1.619c.284.313.26.796-.053 1.079-.147.132-.331.198-.515.198zm-3.676-4.046c-.209 0-.417-.084-.569-.251l-1.47-1.618c-.284-.313-.26-.796.053-1.08.314-.283.798-.259 1.082.053l1.471 1.619c.284.313.26.796-.053 1.079-.147.133-.331.198-.515.198zm-3.677-4.045c-.208 0-.416-.084-.568-.251l-1.47-1.618c-.285-.314-.261-.796.053-1.08.314-.283.798-.259 1.082.053l1.471 1.619c.284.313.26.796-.053 1.079-.147.132-.331.198-.515.198zm-3.676-4.046c-.209 0-.417-.084-.568-.251l-1.47-1.618c-.285-.313-.261-.796.053-1.08.314-.282.798-.259 1.082.053l1.47 1.619c.285.313.261.796-.053 1.079-.147.132-.33.198-.514.198zm-3.676-4.045c-.209 0-.417-.084-.568-.251l-1.471-1.619c-.284-.312-.26-.796.054-1.079s.799-.259 1.083.054l1.47 1.618c.284.313.26.796-.054 1.08-.147.132-.331.198-.514.198zm-3.676-4.046c-.209 0-.417-.084-.568-.251l-1.471-1.618c-.284-.313-.26-.796.053-1.08.314-.283.799-.259 1.083.053l1.47 1.619c.284.313.26.796-.053 1.079-.147.132-.331.198-.515.198zm-3.676-4.0456c-.209 0-.417-.0846-.569-.2511l-1.47-1.6185c-.284-.3125-.26-.796.054-1.0794s.798-.2596 1.082.0535l1.471 1.6185c.284.3125.26.796-.054 1.0794-.147.1324-.331.1982-.514.1982zm-3.676-4.0452c-.209 0-.417-.0846-.569-.2512l-1.47-1.6184c-.284-.3131-.26-.796.053-1.0794.313-.2835.798-.2596 1.082.0529l1.471 1.6178c.284.3131.26.796-.053 1.0794-.147.1324-.331.1982-.515.1982zm-3.677-4.0459c-.209 0-.417-.0846-.568-.2511l-1.302-1.4332c-.068-.0755-.133-.1517-.195-.2292-.263-.3305-.207-.8115.125-1.0736s.814-.2066 1.077.1246c.041.0517.084.1033.13.153l1.301 1.4326c.284.3124.261.796-.053 1.0794-.147.1323-.331.1982-.515.1982zm-2.111-4.7179c-.063 0-.129-.0084-.193-.0245-.41-.1059-.655-.5236-.549-.9322.186-.7134.556-1.3719 1.07-1.9045l.255-.2647c.294-.3041.779-.3137 1.084-.0219.305.2924.315.7759.022 1.0807l-.255.2653c-.333.3447-.571.7695-.691 1.2298-.09.3441-.401.5727-.742.5727zm3.411-4.1943c-.191 0-.383-.071-.531-.2131-.305-.2924-.315-.776-.022-1.0807l1.517-1.5745c.294-.3048.779-.3138 1.084-.022.305.2925.315.776.022 1.0807l-1.517 1.5746c-.151.1562-.352.235-.553.235zm3.793-3.9368c-.191 0-.383-.071-.531-.213-.305-.2925-.316-.776-.022-1.0807l1.517-1.5746c.294-.3047.778-.3137 1.083-.0219.305.2924.316.7759.022 1.0807l-1.517 1.5745c-.15.1563-.351.235-.552.235zm3.792-3.9367c-.191 0-.382-.071-.531-.2131-.305-.2924-.315-.776-.022-1.0807l1.517-1.5745c.294-.3048.779-.3138 1.084-.022.305.2924.315.776.022 1.0807l-1.517 1.5746c-.151.1562-.351.235-.553.235zm3.793-3.9368c-.191 0-.383-.071-.531-.213-.305-.2925-.315-.776-.022-1.0807l1.517-1.5746c.294-.3041.779-.3138 1.084-.022.305.2925.315.776.022 1.0807l-1.517 1.5746c-.151.1562-.352.235-.553.235zm3.793-3.9367c-.191 0-.383-.0711-.531-.2131-.305-.2924-.315-.7766-.022-1.0807l1.517-1.5746c.294-.304.779-.3137 1.084-.0213.305.2925.315.776.022 1.0807l-1.517 1.5746c-.151.1562-.352.235-.553.235zm3.792-3.9368c-.191 0-.382-.071-.53-.213-.305-.2925-.316-.776-.022-1.0807l1.516-1.5746c.294-.3041.779-.3138 1.084-.022.305.2925.316.776.022 1.0807l-1.517 1.5746c-.15.1562-.351.235-.553.235zm3.793-3.9367c-.191 0-.382-.0711-.531-.2131-.305-.2924-.315-.7766-.022-1.0807l1.518-1.5746c.293-.304.779-.3137 1.084-.0219.305.2924.315.7766.022 1.0807l-1.517 1.5746c-.151.1562-.352.235-.553.235zm3.793-3.9368c-.191 0-.383-.071-.531-.213-.305-.2925-.315-.776-.022-1.0807l1.517-1.5746c.294-.3047.779-.3138 1.084-.022.305.2925.315.776.022 1.0807l-1.517 1.5746c-.151.1562-.352.235-.553.235zm3.793-3.9367c-.191 0-.383-.0711-.531-.2131-.305-.2924-.316-.7766-.022-1.0807l1.517-1.5746c.294-.3047.779-.3137 1.084-.0219.305.2924.315.7766.021 1.0807l-1.516 1.5746c-.151.1562-.352.235-.553.235zm3.792-3.9368c-.191 0-.382-.071-.531-.213-.305-.2925-.315-.776-.022-1.0807l1.392-1.4449c.034-.0348.066-.0697.098-.1058.277-.3183.762-.3512 1.081-.0736s.352.7605.074 1.0781c-.048.0542-.097.1072-.147.1601l-1.392 1.4448c-.151.1562-.352.235-.553.235zm2.319-4.6359c-.357 0-.677-.2499-.751-.612-.096-.4726-.316-.9161-.635-1.2822l-.226-.2588c-.278-.3183-.245-.8012.075-1.0782.32-.2776.803-.2433 1.081.0749l.226.2589c.493.5649.833 1.2499.982 1.9813.084.4138-.183.8173-.598.9012-.052.0104-.103.0155-.154.0155zm-3.191-4.3609c-.215 0-.427-.0885-.579-.2621l-.134-.1537c-.279-.3182-.245-.8011.074-1.0781.319-.2776.804-.2447 1.081.0742l.135.1537c.278.3183.245.8012-.074 1.0781-.145.1266-.325.1879-.503.1879z" fill="url(#j)"/><path d="m104.443 128.11h-99.68763v9.12h99.68763z" fill="url(#l)"/><path d="m5.4871 128.11h-2.9268v11.308h2.9268z" fill="url(#n)"/><path d="m103.346 75.9275c0-2.1727-2.303-3.9928-4.8005-3.9928h-94.0695c-2.4974 0-4.476 1.8201-4.476 3.9928v49.4335c0 2.173 1.9786 4.025 4.476 4.025h94.0703c2.4977 0 4.7997-1.852 4.7997-4.025z" fill="url(#o)"/><path d="m100.053 77.9195c0-1.988-1.7184-3.614-4.0737-3.614h-88.74193c-2.35533 0-4.67633 1.626-4.67633 3.614v45.1865c0 1.988 2.321 3.91 4.67633 3.91h88.74273c2.3553 0 4.0739-1.922 4.0739-3.91v-45.1865z" fill="url(#p)"/><path d="m136.019 111.946-6.179-19.0047c-.155-.4776-.602-.7609-1.105-.7609h-24.84v45.0496h33.588l-1.464-25.283z" fill="url(#q)"/><path d="m137.669 130.326c-.333-.218-.737-.336-1.2-.327l-25.887.497-.114 7.334 25.863.634c.949 0 1.769-.456 1.769-1.095v-6.213c0-.313-.098-.612-.431-.83z" fill="url(#r)"/><path d="m131.196 110.625-3.736-14.774c-.13-.5134-.594-.936-1.125-.936h-14.608c-.314 0-.614.1895-.832.4139-.219.2244-.337.5587-.328.8714l.351 11.8287c.017.555.425 1.028.975 1.116l17.993 2.902c.385.062.777-.071 1.041-.359.264-.287.365-.686.269-1.064z" fill="url(#s)"/><path d="m130.449 94.8004-.191.0319c-.323.0533-.609.2403-.786.5157-.177.2745-.23.6112-.145.9271l4.071 15.0969c.157.585.739.949 1.335.838l1.286-.241-5.571-17.167z" fill="url(#t)"/><path d="m116.516 112.972h-4.573c-.606 0-1.097.49-1.097 1.094v.548c0 .604.491 1.094 1.097 1.094h4.573c.606 0 1.097-.49 1.097-1.094v-.548c0-.604-.491-1.094-1.097-1.094z" fill="url(#u)"/><path d="m105.626 78.877c-.389-.0286-.884.0924-1.171.3574-.286.265-.561.6231-.561 1.0123v11.933h15.149s-.814-12.3858-13.418-13.3027z" fill="url(#w)"/><path d="m119.426 149.775c6.501 0 11.771-5.254 11.771-11.737 0-6.482-5.27-11.737-11.771-11.737s-11.771 5.255-11.771 11.737c0 6.483 5.27 11.737 11.771 11.737z" fill="url(#x)"/><path d="m120.352 147.536c5.254-.518 9.092-5.185 8.572-10.424s-5.2-9.066-10.454-8.547c-5.254.518-9.092 5.185-8.572 10.424.52 5.238 5.2 9.065 10.454 8.547z" fill="url(#y)"/><path d="m127.455 141.573c-.033 0-.065-.007-.097-.02-.127-.054-.187-.2-.133-.327.428-1.01.646-2.082.646-3.189 0-4.515-3.685-8.19-8.214-8.19-1.405 0-2.792.36-4.01 1.04-.12.068-.273.025-.34-.095-.068-.12-.024-.272.096-.339 1.292-.722 2.763-1.104 4.254-1.104 4.805 0 8.714 3.897 8.714 8.688 0 1.174-.231 2.312-.685 3.383-.041.095-.133.152-.23.152z" fill="#fff" opacity=".7"/><path d="m123.477 139.711c.926-2.231-.136-4.788-2.373-5.712s-4.802.135-5.728 2.366c-.927 2.231.135 4.788 2.372 5.712 2.238.924 4.802-.135 5.729-2.366z" fill="url(#z)"/><path d="m46.8519 149.775c6.5009 0 11.771-5.254 11.771-11.737 0-6.482-5.2701-11.737-11.771-11.737-6.501 0-11.7711 5.255-11.7711 11.737 0 6.483 5.2701 11.737 11.7711 11.737z" fill="url(#A)"/><path d="m47.9532 147.507c5.2443-.607 9.0022-5.338 8.3936-10.568-.6087-5.229-5.3534-8.976-10.5977-8.369s-9.0023 5.338-8.3936 10.567c.6086 5.229 5.3534 8.976 10.5977 8.37z" fill="url(#B)"/><path d="m54.8813 141.573c-.0327 0-.0654-.007-.0973-.02-.1277-.054-.1868-.2-.1333-.327.4278-1.01.6457-2.082.6457-3.189 0-4.515-3.6851-8.19-8.2137-8.19-1.4056 0-2.792.36-4.0091 1.04-.1205.068-.273.025-.34-.095-.0679-.12-.0248-.272.0957-.339 1.2922-.722 2.7632-1.104 4.2542-1.104 4.8048 0 8.7133 3.897 8.7133 8.688 0 1.174-.2298 2.312-.6848 3.383-.0407.095-.1333.153-.2307.153z" fill="#fff" opacity=".7"/><path d="m51.0495 139.288c.7014-2.311-.6086-4.751-2.9261-5.45-2.3175-.7-4.7649.606-5.4663 2.917-.7015 2.311.6086 4.751 2.9261 5.451 2.3175.699 4.7648-.607 5.4663-2.918z" fill="url(#C)"/><path d="m19.9241 149.775c6.501 0 11.7711-5.254 11.7711-11.737 0-6.482-5.2701-11.737-11.7711-11.737-6.5009 0-11.77102 5.255-11.77102 11.737 0 6.483 5.27012 11.737 11.77102 11.737z" fill="url(#D)"/><path d="m21.0252 147.507c5.2443-.607 9.0022-5.338 8.3936-10.567s-5.3534-8.977-10.5977-8.37-9.00226 5.338-8.3936 10.568c.6086 5.229 5.3534 8.976 10.5977 8.369z" fill="url(#E)"/><path d="m27.9535 141.573c-.0327 0-.0654-.007-.0974-.02-.1269-.054-.1867-.2-.1325-.327.4278-1.01.6457-2.082.6457-3.189 0-4.515-3.685-8.19-8.2137-8.19-1.4055 0-2.7919.36-4.0099 1.04-.1205.068-.2729.025-.34-.095-.067-.12-.0247-.272.0958-.339 1.2922-.722 2.7632-1.104 4.2541-1.104 4.8049 0 8.7134 3.897 8.7134 8.688 0 1.174-.2307 2.312-.6848 3.383-.0407.095-.1325.152-.2299.152z" fill="#fff" opacity=".7"/><path d="m24.1235 139.289c.7014-2.311-.6086-4.751-2.9261-5.45-2.3175-.7-4.7649.606-5.4664 2.917-.7014 2.311.6086 4.751 2.9261 5.451 2.3175.699 4.7649-.607 5.4664-2.918z" fill="url(#F)"/><path d="m136.389 123.367h-2.98c-.642 0-1.162.519-1.162 1.159v4.066c0 .64.52 1.159 1.162 1.159h2.98c.642 0 1.162-.519 1.162-1.159v-4.066c0-.64-.52-1.159-1.162-1.159z" fill="url(#G)"/><path d="m134.624 123.368v6.019h-.954c-.641 0-1.423-.719-1.423-1.358v-3.812c0-.639.782-.849 1.423-.849z" fill="#fff" opacity=".8"/><path d="m105.907 121.975c-.138 0-.25-.111-.25-.249v-26.8103c0-.1377.112-.2491.25-.2491s.25.1114.25.2491v26.8103c0 .138-.112.249-.25.249z" fill="#fff" opacity=".7"/><path d="m116.263 90.9857c-.104 0-.201-.0652-.236-.1679-3.48-10.054-10.638-9.3266-10.71-9.3186-.138.0135-.262-.0812-.278-.2181s.082-.261.219-.2769c.075-.008 7.632-.7792 11.242 9.6513.045.1305-.025.2722-.155.3167-.027.0096-.054.0135-.081.0135z" fill="#fff" opacity=".7"/><path d="m47.0252 125.234c2.5596.048 4.6604-2.007 4.6604-4.56v-20.292c0-2.6657-2.1486-4.8352-4.8224-4.8638-8.0238-.0868-24.5726-.0915-38.11311 1.0465-1.84771.1552-3.28517 1.6657-3.35222 3.5133l-1.26586 19.617c-.09418 2.595 1.96344 4.763 4.567 4.812l38.32539.726z" fill="url(#H)"/><path d="m47.0379 102.578c.0343 1.726-.0176 4.467-.0591 6.236-.0215.921-.8325 1.623-1.7503 1.516l-6.6031-.772c-.8795-.103-1.4997-.911-1.368-1.784l.8109-5.392c.1149-.766.7742-1.332 1.5508-1.332h5.852c.8524 0 1.5508.678 1.5676 1.528z" fill="#fff"/><path d="m29.7812 112.795-5.5088.593c-.771.083-1.4287-.55-1.372-1.322l1.2044-16.3385c2.309-.0732 4.5869-.1265 6.7842-.1639v16.0004c0 .633-.4781 1.164-1.1086 1.231z" fill="#fff" opacity=".37"/><path d="m27.5232 109.964c-.0168.293-.261.52-.5523.52-.0112 0-.0216 0-.0328-.001-.3057-.017-.5387-.278-.5212-.583l.8309-14.26c.3728-.0096.7423-.0175 1.111-.0255l-.8356 14.3505z" fill="#fff"/><path d="m43.984 107.725c.0966 0 .178-.075.1844-.173l.2857-4.491c.0064-.102-.071-.189-.1724-.195-.107-.008-.1892.07-.1956.172l-.2857 4.492c-.0064.101.071.189.1724.195z" fill="url(#I)"/><path d="m43.396 107.725c.0989 0 .1811-.079.1843-.178l.1501-4.578c.0032-.102-.0766-.187-.1788-.19-.1173-.006-.1876.076-.1908.178l-.15 4.578c-.0032.102.0766.187.1788.19z" fill="url(#J)"/><path d="m42.5994 107.724c-.1022-.005-.1804-.09-.1756-.192.0734-1.538.2131-4.471.2147-4.571 0-.101.083-.182.1844-.182.1013 0 .1843.083.1843.184 0 .075-.1795 3.833-.2155 4.585-.0048.099-.0862.176-.1843.176-.0032 0-.0056 0-.0088 0z" fill="url(#K)"/><path d="m41.3765 107.909c.198 0 .3616-.157.3688-.356.1564-4.435.1285-4.535.1109-4.602-.0534-.196-.2586-.312-.4533-.258-.1804.049-.2937.224-.269.404.012.267-.071 2.847-.1261 4.43-.0072.203.1524.374.356.381h.0135z" fill="url(#L)"/><path d="m40.5762 107.725c.1022 0 .1844-.082.1844-.184v-4.492c0-.102-.0822-.184-.1844-.184-.1021 0-.1844.082-.1844.184v4.492c0 .102.0823.184.1844.184z" fill="url(#M)"/><path d="m39.9296 107.725c.1006 0 .1828-.08.1844-.18.0351-1.561.1181-4.11.1915-4.416.0328-.058.032-.131-.0071-.191-.0559-.086-.1701-.108-.2555-.053-.1005.066-.1963.129-.2985 4.652-.0024.102.0783.186.1804.189h.004z" fill="url(#N)"/><path d="m44.9779 108.134c.1955 0 .3583-.153.3687-.349l.2466-4.717c.0104-.202-.146-.376-.3495-.386-.1932-.014-.3776.145-.3879.348l-.2467 4.717c-.0103.202.1461.376.3496.386h.0192z" fill="url(#O)"/><path d="m93.9441 126.936c2.5597.049 4.6604-2.007 4.6604-4.559v-20.292c0-2.6663-2.1486-4.8358-4.8224-4.8644-8.0238-.0868-24.5725-.0916-38.1131 1.0465-1.8477.1552-3.2851 1.6657-3.3522 3.5129l-1.2658 19.618c-.0942 2.594 1.9634 4.762 4.567 4.811l38.3253.726z" fill="url(#P)"/><path d="m93.9575 104.28c.0344 1.727-.0175 4.467-.059 6.237-.0216.921-.8325 1.623-1.7503 1.515l-6.6031-.772c-.8796-.103-1.4997-.911-1.368-1.784l.8109-5.392c.1149-.766.7742-1.332 1.5508-1.332h5.852c.8524 0 1.5508.679 1.5675 1.528z" fill="#fff"/><path d="m76.7001 114.499-5.5088.592c-.771.083-1.4286-.55-1.372-1.321l1.2044-16.3393c2.3091-.0732 4.587-.1266 6.7843-.164v16.0003c0 .633-.4781 1.164-1.1087 1.232z" fill="#fff" opacity=".37"/><path d="m74.4431 111.666c-.0168.294-.261.521-.5523.521-.0112 0-.0216 0-.0327-.001-.3057-.018-.5388-.279-.5212-.584l.8308-14.2596c.3728-.0096.7423-.0175 1.1111-.0255l-.8357 14.3501z" fill="#fff"/><path d="m90.9039 109.427c.0966 0 .178-.075.1844-.172l.2857-4.492c.0064-.101-.071-.189-.1724-.195-.1069-.008-.1891.071-.1955.173l-.2858 4.491c-.0063.101.0711.189.1724.195z" fill="url(#Q)"/><path d="m90.3159 109.427c.0989 0 .1812-.078.1843-.178l.1501-4.578c.0032-.102-.0766-.187-.1788-.19-.1173-.005-.1875.077-.1907.178l-.1501 4.578c-.0032.102.0766.187.1788.19z" fill="url(#R)"/><path d="m89.5183 109.427c-.1021-.005-.1804-.091-.1756-.193.0735-1.538.2131-4.47.2147-4.571 0-.101.083-.182.1844-.182s.1844.083.1844.184c0 .076-.1796 3.834-.2155 4.586-.0048.098-.0862.176-.1844.176-.0032 0-.0056 0-.0088 0z" fill="url(#S)"/><path d="m88.2955 109.611c.1979 0 .3615-.157.3687-.356.1565-4.435.1285-4.534.111-4.601-.0535-.197-.2586-.312-.4534-.259-.1804.05-.2937.225-.2689.405.0119.266-.0711 2.846-.1262 4.429-.0071.203.1525.374.356.381h.0136z" fill="url(#T)"/><path d="m87.4952 109.427c.1021 0 .1843-.082.1843-.183v-4.492c0-.102-.0822-.184-.1843-.184-.1022 0-.1844.082-.1844.184v4.492c0 .101.0822.183.1844.183z" fill="url(#U)"/><path d="m86.8485 109.427c.1006 0 .1828-.079.1844-.18.0351-1.56.1181-4.109.1916-4.416.0327-.058.0319-.131-.0072-.191-.0559-.086-.17-.108-.2554-.052-.1006.066-.1964.128-.2985 4.651-.0024.102.0782.187.1804.189h.0039z" fill="url(#V)"/><path d="m91.8978 109.836c.1955 0 .3584-.152.3687-.349l.2467-4.716c.0103-.203-.1461-.377-.3496-.387-.1932-.013-.3775.146-.3879.349l-.2466 4.716c-.0104.203.146.376.3495.387z" fill="url(#W)"/><path d="m39.5969 92.8027v-14.2505c0-1.8727-1.5093-3.3959-3.3865-3.4158-5.635-.0613-17.2568-.0645-26.76588.7346-1.29779.109-2.30664 1.1699-2.35373 2.4671l-.88914 13.777c-.06624 1.8225 1.3792 3.345 3.20695 3.3792l26.9151.5101c1.7974.0342 3.2732-1.4094 3.2732-3.2025z" fill="url(#X)"/><path d="m36.3325 80.0946c.0239 1.2129-.012 3.1365-.0415 4.3796-.0152.647-.585 1.1396-1.2292 1.064l-4.6372-.542c-.6177-.0724-1.0527-.6398-.961-1.2534l.5691-3.7867c.0806-.5372.5436-.9351 1.0887-.9351h4.1097c.5986 0 1.0894.4759 1.1006 1.0736z" fill="#fff"/><path d="m24.2135 87.2707-3.8686.4163c-.5411.0581-1.0033-.3868-.9633-.928l.846-11.4746c1.6218-.0509 3.2213-.0883 4.7649-.1146v11.2366c0 .4441-.336.8174-.7782.8643z" fill="#fff" opacity=".37"/><path d="m22.6281 85.2819c-.0119.2061-.1835.3653-.3879.3653-.008 0-.0151 0-.0231 0-.2147-.0127-.3783-.1958-.3656-.4099l.5835-10.0142c.2618-.0063.5212-.0119.7806-.0183l-.5867 10.0771z" fill="#fff"/><path d="m34.1879 83.7092c.0679 0 .1254-.0525.1293-.121l.2004-3.1539c.0048-.0717-.0495-.1329-.1213-.1369-.0751-.0056-.1333.0493-.1373.121l-.2004 3.1539c-.0047.0716.0495.1329.1214.1369z" fill="url(#Y)"/><path d="m33.7754 83.7093c.0695 0 .1277-.055.1293-.125l.1054-3.2144c.0024-.0717-.0543-.1314-.1253-.1337-.083-.004-.1317.0541-.1341.1249l-.1054 3.2144c-.0024.0717.0543.1314.1253.1338h.004z" fill="url(#Z)"/><path d="m33.2156 83.7093c-.0718-.0032-.1269-.0637-.1237-.1353.0511-1.08.1493-3.1396.1509-3.2097 0-.0708.0582-.1281.1301-.1281.0718 0 .1301.0581.1301.1289 0 .0534-.1261 2.6924-.1517 3.2208-.0032.0693-.0606.1234-.1293.1234-.0024 0-.004 0-.0064 0z" fill="url(#aa)"/><path d="m32.357 83.8382c.1389 0 .2538-.1098.2586-.2499.1094-3.115.0902-3.185.0774-3.2311-.0375-.1385-.1811-.2197-.3184-.1815-.1269.0342-.2059.1576-.1892.2841.008.187-.0495 1.9992-.0886 3.111-.0048.1425.107.2626.2498.2674h.0096z" fill="url(#ab)"/><path d="m31.7946 83.7092c.0715 0 .1296-.0581.1296-.1297v-3.154c0-.0716-.0581-.1297-.1296-.1297-.0716 0-.1288.0581-.1288.1297v3.154c0 .0716.058.1297.1288.1297z" fill="url(#ac)"/><path d="m31.3411 83.7092c.0702 0 .1285-.0557.1293-.1265.0247-1.0959.083-2.8866.1349-3.1015.0231-.0405.0223-.0923-.0048-.1345-.0391-.0604-.1198-.0764-.1796-.0374-.0711.0462-.1381.09-.2099 3.267-.0016.0716.055.1305.1269.1321h.0032z" fill="url(#ad)"/><path d="m34.8862 83.9966c.1373 0 .2514-.1074.2586-.2451l.1732-3.3124c.0072-.1424-.103-.2642-.2458-.2722-.1357-.0095-.265.1027-.2722.2452l-.1732 3.3123c-.0072.1425.103.2642.2458.2722z" fill="url(#ae)"/><path d="m68.6495 93.2278v-14.2506c0-1.8726-1.3042-3.3959-2.9268-3.4158-4.8703-.0612-14.9142-.0644-23.1319.7346-1.1214.109-1.9938 1.1699-2.0345 2.4672l-.7678 13.7769c-.0574 1.8225 1.1917 3.345 2.772 3.3792l23.2612.5102c1.5532.0342 2.8286-1.4095 2.8286-3.2025z" fill="url(#af)"/><path d="m65.8288 80.5196c.0208 1.2129-.0103 3.1365-.0359 4.3796-.0136.6463-.5052 1.1397-1.0623 1.0641l-4.0075-.542c-.534-.0724-.9099-.6399-.8301-1.2535l.4917-3.7866c.0702-.5372.4701-.9352.941-.9352h3.5517c.5172 0 .9411.476.9514 1.0736z" fill="#fff"/><path d="m55.3547 87.6949-3.3434.4162c-.4677.0581-.8668-.3867-.8325-.9279l.7311-11.4746c1.4016-.0509 2.784-.0883 4.1177-.1146v11.2366c0 .4441-.2898.8174-.6729.8643z" fill="#fff" opacity=".37"/><path d="m53.9841 85.707c-.0104.2061-.1588.3653-.3352.3653-.0064 0-.0128 0-.02 0-.1851-.0128-.3272-.1958-.316-.4099l.5044-10.0142c.2259-.0064.4502-.012.6744-.0183z" fill="#fff"/><path d="m63.9748 84.1343c.059 0 .1085-.0526.1117-.121l.1732-3.154c.004-.0716-.0431-.1329-.1046-.1369-.0646-.0055-.1149.0494-.1189.121l-.1732 3.154c-.004.0708.0431.1329.1046.1369z" fill="url(#ag)"/><path d="m63.618 84.1343c.0598 0 .1101-.0549.1117-.1249l.091-3.2145c.0016-.0716-.0463-.1313-.1086-.1337-.071-.004-.1133.0541-.1157.125l-.091 3.2144c-.0016.0716.0463.1313.1086.1337z" fill="url(#ah)"/><path d="m63.1341 84.1335c-.0622-.0032-.1093-.0637-.1069-.1353.0447-1.08.1293-3.1396.1301-3.2097 0-.0708.0503-.1281.1117-.1281.0615 0 .1118.0581.1118.1289 0 .0534-.1094 2.6924-.1309 3.2208-.0032.0693-.0527.1234-.1118.1234-.0016 0-.0032 0-.0056 0z" fill="url(#ai)"/><path d="m62.3927 84.2633c.1205 0 .2195-.1099.2235-.2499.095-3.115.0782-3.185.067-3.2312-.0327-.1385-.1564-.2197-.2753-.1815-.1094.0343-.178.1576-.1636.2842.0072.187-.0431 1.9992-.0767 3.111-.0047.1424.0926.2626.2163.2674h.008z" fill="url(#aj)"/><path d="m61.9062 84.1342c.0621 0 .1114-.0581.1114-.1297v-3.154c0-.0716-.0501-.1297-.1114-.1297-.0612 0-.1113.0581-.1113.1297v3.154c0 .0716.0501.1297.1113.1297z" fill="url(#ak)"/><path d="m61.5141 84.1343c.0607 0 .111-.0557.1118-.1266.0215-1.0959.0718-2.8865.1165-3.1014.0199-.0406.0191-.0923-.004-.1345-.0343-.0605-.103-.0764-.1548-.0374-.0615.0462-.119.0899-.1812 3.267-.0016.0716.0479.1305.1093.1321h.0024z" fill="url(#al)"/><path d="m64.5779 84.4216c.1181 0 .2171-.1074.2234-.2451l.1493-3.3123c.0064-.1425-.0886-.2642-.2123-.2722-.1173-.0096-.2291.1027-.2355.2451l-.1492 3.3124c-.0064.1424.0886.2642.2123.2721z" fill="url(#am)"/><path d="m97.6458 94.1072v-14.2506c0-1.8726-1.3041-3.3959-2.9268-3.4158-4.8703-.0612-14.9141-.0644-23.1318.7346-1.1214.109-1.9938 1.1699-2.0345 2.4672l-.7678 13.7769c-.0575 1.8225 1.1916 3.345 2.7719 3.3792l23.2604.5102c1.5532.0342 2.8286-1.4095 2.8286-3.2025z" fill="url(#an)"/><path d="m94.8254 81.399c.0208 1.2129-.0104 3.1365-.0359 4.3796-.0136.6463-.5052 1.1397-1.0623 1.0641l-4.0075-.542c-.534-.0724-.9099-.6399-.8301-1.2535l.4917-3.7866c.0702-.5372.4701-.9352.941-.9352h3.5517c.5172 0 .941.476.9514 1.0736z" fill="#fff"/><path d="m84.352 88.5744-3.3434.4163c-.4677.0581-.8668-.3868-.8325-.928l.7311-11.4746c1.4016-.0509 2.784-.0883 4.1177-.1146v11.2367c0 .444-.2898.8173-.6729.8642z" fill="#fff" opacity=".37"/><path d="m82.9814 86.5856c-.0103.2061-.1588.3653-.3352.3653-.0064 0-.0128 0-.02 0-.1851-.0127-.3272-.1958-.316-.4099l.5044-10.0142c.2259-.0063.4502-.0119.6745-.0183z" fill="#fff"/><path d="m92.9647 85.0129h.0071c.0591 0 .1086-.0525.1118-.121l.1732-3.1539c.004-.0716-.0431-.1329-.1046-.1369-.0654-.0056-.1149.0493-.1189.121l-.1732 3.1539c-.004.0717.0431.1329.1046.1369z" fill="url(#ao)"/><path d="m92.6153 85.0137c.0598 0 .1101-.0549.1117-.125l.091-3.2144c.0016-.0716-.0463-.1313-.1085-.1337-.0711-.004-.1134.0541-.1158.1249l-.091 3.2145c-.0016.0716.0463.1313.1086.1337z" fill="url(#ap)"/><path d="m92.1315 85.013c-.0623-.0032-.1094-.0637-.107-.1353.0447-1.08.1293-3.1396.1301-3.2097 0-.0708.0503-.1281.1117-.1281.0615 0 .1118.0581.1118.1289 0 .0534-.1094 2.6924-.1309 3.2209-.0032.0692-.0527.1233-.1118.1233 0 0-.0031 0-.0055 0z" fill="url(#aq)"/><path d="m91.3813 85.1427h.0056c.1229 0 .2218-.1099.2266-.2499.095-3.115.0782-3.185.0671-3.2312-.0328-.1385-.1565-.2197-.2754-.1815-.1093.0343-.178.1576-.1636.2842.0072.187-.0431 1.9991-.0766 3.1109-.0048.1425.0926.2627.2163.2675z" fill="url(#ar)"/><path d="m90.9035 85.0136c.0621 0 .1114-.0581.1114-.1297v-3.154c0-.0716-.0501-.1297-.1114-.1297-.0612 0-.1113.0581-.1113.1297v3.154c0 .0716.0501.1297.1113.1297z" fill="url(#as)"/><path d="m90.5112 85.0138c.0607 0 .1109-.0557.1117-.1266.0216-1.0958.0719-2.8865.1166-3.1014.0199-.0406.0191-.0923-.004-.1345-.0344-.0605-.103-.0764-.1549-.0374-.0614.0462-.1189.0899-.1811 3.267-.0016.0716.0478.1305.1093.1321h.0024z" fill="url(#at)"/><path d="m93.5632 85.3003h.012c.1181 0 .2171-.1074.2234-.2451l.1493-3.3124c.0064-.1424-.0886-.2642-.2123-.2721-.1173-.0096-.2291.1026-.2355.2451l-.1492 3.3123c-.0064.1425.0886.2642.2123.2722z" fill="url(#au)"/></g></svg>