<svg xmlns="http://www.w3.org/2000/svg" viewBox="0 0 328.09 328.09"><defs><style>.cls-1{fill:#4e8466;}</style></defs><g id="camion"><polygon class="cls-1" points="67.45 188.77 54.01 211.91 57.01 211.91 70.46 188.77 67.45 188.77"/><path class="cls-1" d="M60.51,194.08c0-3.68-2.88-5.62-6.32-5.62s-6.32,1.94-6.32,5.62,2.79,5.71,6.32,5.71S60.51,197.83,60.51,194.08Zm-8.93.06a2.61,2.61,0,0,1,5.22,0,2.61,2.61,0,0,1-5.22,0Z"/><path class="cls-1" d="M70.3,200.9c-3.43,0-6.32,1.93-6.32,5.61s2.79,5.71,6.32,5.71,6.33-2,6.33-5.71S73.74,200.9,70.3,200.9Zm0,8.25a2.58,2.58,0,0,1-2.61-2.58,2.61,2.61,0,1,1,5.22,0A2.57,2.57,0,0,1,70.3,209.15Z"/><path class="cls-1" d="M171.94,96.66h4.84a.84.84,0,0,0,.27,0h0a.9.9,0,0,0,.87-.9.87.87,0,0,0-.87-.87h-5.11a.86.86,0,0,0-.86.87h0A.85.85,0,0,0,171.94,96.66Z"/><path class="cls-1" d="M161.56,94.93h5.19a.87.87,0,0,1,.87.87v0a.87.87,0,0,1-.87.87h-5.19a.87.87,0,0,1-.87-.87v0A.86.86,0,0,1,161.56,94.93Z"/><path class="cls-1" d="M151.17,96.66h5.19a.86.86,0,0,0,.87-.86h0a.87.87,0,0,0-.87-.87h-5.19a.87.87,0,0,0-.87.87h0A.86.86,0,0,0,151.17,96.66Z"/><path class="cls-1" d="M99.24,96.66h5.19a.86.86,0,0,0,.87-.86h0a.87.87,0,0,0-.87-.87H99.24a.87.87,0,0,0-.87.87h0A.86.86,0,0,0,99.24,96.66Z"/><path class="cls-1" d="M140.78,94.93H146a.87.87,0,0,1,.87.87v0a.87.87,0,0,1-.87.87h-5.19a.87.87,0,0,1-.87-.87v0A.86.86,0,0,1,140.78,94.93Z"/><path class="cls-1" d="M88.85,94.93H94a.87.87,0,0,1,.87.87v0a.87.87,0,0,1-.87.87H88.85A.87.87,0,0,1,88,95.8v0a.86.86,0,0,1,.86-.86Z"/><path class="cls-1" d="M120,94.93h5.19a.87.87,0,0,1,.87.87v0a.87.87,0,0,1-.87.87H120a.87.87,0,0,1-.87-.87v0a.86.86,0,0,1,.86-.86Z"/><path class="cls-1" d="M130.4,94.93h5.19a.87.87,0,0,1,.87.87v0a.87.87,0,0,1-.87.87H130.4a.87.87,0,0,1-.87-.87v0A.86.86,0,0,1,130.4,94.93Z"/><path class="cls-1" d="M109.62,94.93h5.19a.87.87,0,0,1,.87.87v0a.87.87,0,0,1-.87.87h-5.19a.87.87,0,0,1-.87-.87v0A.86.86,0,0,1,109.62,94.93Z"/><path class="cls-1" d="M316.81,139.84a9.08,9.08,0,0,0-.52-2.35.86.86,0,0,0-1.11-.52l0,0a.85.85,0,0,0-.48,1.07,7.5,7.5,0,0,1,.43,1.93l.26,3a.87.87,0,0,0,.87.79h.07a.88.88,0,0,0,.79-.94Z"/><path class="cls-1" d="M211.12,124.93a4.75,4.75,0,0,1,.78,2.61v1.84a.86.86,0,0,0,.86.87h0a.87.87,0,0,0,.87-.87v-1.84a6.45,6.45,0,0,0-1.06-3.55l0-.08a.87.87,0,0,0-1.2-.25h0a.87.87,0,0,0-.25,1.2Z"/><path class="cls-1" d="M208.22,120.51a.85.85,0,0,0,.73.39.83.83,0,0,0,.47-.14h0a.87.87,0,0,0,.25-1.2l-2.85-4.34a.86.86,0,0,0-1.19-.25h0a.86.86,0,0,0-.25,1.2Z"/><path class="cls-1" d="M192.5,136.05a.86.86,0,0,0-.62,1,.08.08,0,0,0,0,0,.85.85,0,0,0,.82.61l.22,0a9.87,9.87,0,0,1,4.71,0,.86.86,0,0,0,1-.59s0,0,0,0a.87.87,0,0,0-.64-1.05A11.5,11.5,0,0,0,192.5,136.05Z"/><path class="cls-1" d="M180.08,106.12h5.19a.87.87,0,1,0,0-1.73h-5.19a.87.87,0,1,0,0,1.73Z"/><path class="cls-1" d="M190.46,106.12h5.2a.86.86,0,0,0,.86-.85v0a.87.87,0,0,0-.86-.86h-5.2a.87.87,0,0,0,0,1.73Z"/><path class="cls-1" d="M200.2,108.27l2.33,3.55a.86.86,0,0,0,.73.4.84.84,0,0,0,.47-.15h0a.86.86,0,0,0,.25-1.19l-2.33-3.56a7.93,7.93,0,0,0-.67-.86.87.87,0,0,0-1.23,0s0,0,0,.06a.85.85,0,0,0,0,1.16A4.85,4.85,0,0,1,200.2,108.27Z"/><path class="cls-1" d="M191.83,109.5a.86.86,0,0,0-.86.87h0a.85.85,0,0,0,.86.86h3.85a.54.54,0,0,1,.43.23.87.87,0,0,0,.71.38.89.89,0,0,0,.47-.14h0a.87.87,0,0,0,.23-1.2,2.24,2.24,0,0,0-1.86-1Z"/><path class="cls-1" d="M190,126.23h5.19a.86.86,0,0,0,.86-.87h0a.86.86,0,0,0-.86-.86H190a.87.87,0,0,0-.87.86h0A.87.87,0,0,0,190,126.23Z"/><path class="cls-1" d="M181.37,111.74v5.2a.87.87,0,0,0,1.73,0v-5.2a.51.51,0,0,1,.51-.51h3a.85.85,0,0,0,.86-.86h0a.86.86,0,0,0-.86-.87h-3A2.24,2.24,0,0,0,181.37,111.74Z"/><path class="cls-1" d="M201.72,120.17a.87.87,0,0,0,.73.4.89.89,0,0,0,.47-.14.87.87,0,0,0,.26-1.2l-2.82-4.36a.86.86,0,0,0-1.19-.26h0a.87.87,0,0,0-.26,1.2Z"/><path class="cls-1" d="M203.58,124.5h-3.22a.86.86,0,0,0-.86.86h0a.86.86,0,0,0,.86.87h3.22a2.22,2.22,0,0,0,2.22-1.93.87.87,0,0,0-.73-1,.93.93,0,0,0-.29,0,.85.85,0,0,0-.69.71A.51.51,0,0,1,203.58,124.5Z"/><path class="cls-1" d="M182.23,121.26a.87.87,0,0,0-.86.87V124a2.24,2.24,0,0,0,2.24,2.24h1.17a.87.87,0,0,0,.87-.87h0a.87.87,0,0,0-.87-.86h-1.17a.51.51,0,0,1-.51-.51v-1.86A.87.87,0,0,0,182.23,121.26Z"/><path class="cls-1" d="M191.23,154.29a8.3,8.3,0,0,0,4.14,1.1h0a7.82,7.82,0,0,0,1.45-.13.86.86,0,0,0,.7-1s0,0,0,0a.86.86,0,0,0-1-.65,11.4,11.4,0,0,1-1.15.1,6.6,6.6,0,0,1-3.28-.87.86.86,0,0,0-1.14.27l0,.05A.87.87,0,0,0,191.23,154.29Z"/><path class="cls-1" d="M191.61,141.51a.87.87,0,0,0,.44-.11,6.61,6.61,0,0,1,4.42-.81.87.87,0,0,0,1-.66s0,0,0-.05a.87.87,0,0,0-.71-1,8.45,8.45,0,0,0-5.59,1,.87.87,0,0,0-.31,1.19l0,0A.83.83,0,0,0,191.61,141.51Z"/><path class="cls-1" d="M86.35,104.55h0a.87.87,0,0,0,.87-.86v-5.2a.86.86,0,0,0-.87-.86h0a.85.85,0,0,0-.86.86v5.2A.86.86,0,0,0,86.35,104.55Z"/><path class="cls-1" d="M86.35,114.94h0a.87.87,0,0,0,.87-.87v-5.19a.87.87,0,0,0-.87-.87h0a.86.86,0,0,0-.86.87v5.19A.86.86,0,0,0,86.35,114.94Z"/><path class="cls-1" d="M177.92,105.25v-4.18a.87.87,0,0,0-1.73,0v5.2a.87.87,0,0,0,1.73,0Z"/><path class="cls-1" d="M177.92,111.46a.87.87,0,1,0-1.73,0v5.19a.87.87,0,1,0,1.73,0Z"/><path class="cls-1" d="M177.05,121a.87.87,0,0,0-.86.87V127a.87.87,0,0,0,1.73,0v-5.19A.87.87,0,0,0,177.05,121Z"/><path class="cls-1" d="M297.79,141.58s0,0,0,.06a.85.85,0,0,0,.83.83,5.63,5.63,0,0,1,4,1.78.86.86,0,0,0,.63.27.82.82,0,0,0,.54-.2l.06,0a.87.87,0,0,0,0-1.23,7.36,7.36,0,0,0-5.23-2.32A.87.87,0,0,0,297.79,141.58Z"/><path class="cls-1" d="M291.91,148.93H292a.88.88,0,0,0,.82-.85,5.62,5.62,0,0,1,1.75-4,.86.86,0,0,0,.06-1.17s0,0,0-.06a.87.87,0,0,0-1.22,0,7.43,7.43,0,0,0-2.29,5.25A.87.87,0,0,0,291.91,148.93Z"/><path class="cls-1" d="M305.07,147.31H305a.87.87,0,0,0-.81.86,5.7,5.7,0,0,1-1.68,4,.85.85,0,0,0,0,1.17l0,0a.87.87,0,0,0,.62.26.85.85,0,0,0,.61-.25,7.44,7.44,0,0,0,2.2-5.28A.87.87,0,0,0,305.07,147.31Z"/><path class="cls-1" d="M298.45,153.89a5.74,5.74,0,0,1-4-1.72.85.85,0,0,0-1.17,0s0,0-.05,0a.86.86,0,0,0,0,1.22,7.39,7.39,0,0,0,5.27,2.25h0a.88.88,0,0,0,.87-.86s0,0,0-.06A.86.86,0,0,0,298.45,153.89Z"/><path class="cls-1" d="M224.37,128h0l.15,0a.88.88,0,0,0,.85-.7l1.07-5.07a.86.86,0,0,0-.67-1h0a.86.86,0,0,0-1,.66L223.69,127A.87.87,0,0,0,224.37,128Z"/><path class="cls-1" d="M288.07,148.81a.84.84,0,0,0,.27,0,2.66,2.66,0,0,0,1.85-2.07,8.24,8.24,0,0,1,1-2.72.87.87,0,0,0-.29-1.16l0,0a.86.86,0,0,0-1.18.32,9.87,9.87,0,0,0-1.19,3.28,1,1,0,0,1-.68.72.86.86,0,0,0-.58.92,1,1,0,0,0,0,.17A.86.86,0,0,0,288.07,148.81Z"/><path class="cls-1" d="M226.51,117.88l.18,0a.87.87,0,0,0,.85-.69l.71-3.38a3.55,3.55,0,0,1,.55-1.28.85.85,0,0,0-.16-1.13l-.07-.07a.86.86,0,0,0-1.2.23,5,5,0,0,0-.81,1.9l-.72,3.37A.87.87,0,0,0,226.51,117.88Z"/><path class="cls-1" d="M315.9,147.1a.87.87,0,0,0-1.09-.17,1.56,1.56,0,0,1-.85.24h-3.81a.87.87,0,0,0-.87.85v0a.87.87,0,0,0,.87.87H314a3.37,3.37,0,0,0,1.76-.5.86.86,0,0,0,.28-1.2S315.93,147.14,315.9,147.1Z"/><path class="cls-1" d="M274.16,111h5.2a.87.87,0,0,0,.86-.8v0a.85.85,0,0,0-.83-.89h-5.23a.87.87,0,0,0,0,1.73Z"/><path class="cls-1" d="M263.78,111H269a.87.87,0,1,0,0-1.73h-5.19a.87.87,0,1,0,0,1.73Z"/><path class="cls-1" d="M295.37,122a.87.87,0,0,0,1.26-1.19L293.06,117a.86.86,0,0,0-1.22,0h0a.87.87,0,0,0,0,1.22Z"/><path class="cls-1" d="M284.1,112a14.39,14.39,0,0,1,4.15,2.54.85.85,0,0,0,.57.22.88.88,0,0,0,.62-.27l0,0a.86.86,0,0,0-.07-1.22,16.18,16.18,0,0,0-4.66-2.85.87.87,0,0,0-1.13.49v0A.85.85,0,0,0,284.1,112Z"/><path class="cls-1" d="M304.44,139.93a.87.87,0,0,0-1.21.2v0a.85.85,0,0,0,.21,1.17,8.55,8.55,0,0,1,2.88,3.66.87.87,0,0,0,.8.54,1,1,0,0,0,.28-.06h0a.87.87,0,0,0,.48-1.13A10.18,10.18,0,0,0,304.44,139.93Z"/><path class="cls-1" d="M293.34,140.38l0,0a.86.86,0,0,0,1.14.32,8.48,8.48,0,0,1,4-1h0l.56,0A.87.87,0,0,0,300,139s0,0,0-.05a.87.87,0,0,0-.81-.92l-.67,0h0a10.22,10.22,0,0,0-4.79,1.2A.87.87,0,0,0,293.34,140.38Z"/><path class="cls-1" d="M253.39,111h5.19a.87.87,0,1,0,0-1.73h-5.19a.87.87,0,0,0,0,1.73Z"/><path class="cls-1" d="M243,111h5.19a.87.87,0,0,0,0-1.73H243a.87.87,0,1,0,0,1.73Z"/><path class="cls-1" d="M232.62,111h5.19a.87.87,0,1,0,0-1.73h-5.19a.87.87,0,0,0-.87.86h0A.88.88,0,0,0,232.62,111Z"/><path class="cls-1" d="M300.75,127.68a17.49,17.49,0,0,0,2,1.79.85.85,0,0,0,.54.19.87.87,0,0,0,.68-.34l0,0a.87.87,0,0,0-.17-1.18,15.13,15.13,0,0,1-1.78-1.62l-1.82-1.93a.87.87,0,0,0-1.22,0h0a.87.87,0,0,0,0,1.23Z"/><rect class="cls-1" x="276.83" y="147.17" width="6.92" height="1.73" rx="0.87"/><path class="cls-1" d="M307.38,132.14l3.41,1.64a8,8,0,0,1,1.09.64.83.83,0,0,0,.5.16.87.87,0,0,0,.67-.33l0,0a.85.85,0,0,0-.2-1.2,10.69,10.69,0,0,0-1.34-.79l-3.41-1.64a.87.87,0,0,0-1.16.4h0A.87.87,0,0,0,307.38,132.14Z"/><path class="cls-1" d="M293.27,122.43a.86.86,0,1,0-1.25,1.19l3.58,3.76a.86.86,0,0,0,.63.27.87.87,0,0,0,.62-1.46Z"/><path class="cls-1" d="M289.22,118.19a23.94,23.94,0,0,0-3.56-3.06.85.85,0,0,0-1.2.21,0,0,0,0,0,0,0,.87.87,0,0,0,.22,1.19,22,22,0,0,1,3.3,2.84l.46.48a.86.86,0,0,0,.63.27.84.84,0,0,0,.59-.24h0a.87.87,0,0,0,0-1.23Z"/><path class="cls-1" d="M293.13,129.18h0a.87.87,0,0,0,.87-.85h0a.88.88,0,0,0-.85-.88l-5.2-.09a.84.84,0,0,0-.88.85h0a.86.86,0,0,0,.85.88Z"/><path class="cls-1" d="M280,114.46v5.19a.87.87,0,0,0,.87.87h0a.87.87,0,0,0,.86-.87v-5.19a.88.88,0,0,0-.06-.33.87.87,0,0,0-1.67.33Z"/><path class="cls-1" d="M281.68,124.84a.86.86,0,0,0-.86-.86h0a.86.86,0,0,0-.87.86v3.26a.86.86,0,0,0,.85.86l1.94,0h0a.87.87,0,0,0,0-1.74h-1.09Z"/><path class="cls-1" d="M276.52,168.47a7.44,7.44,0,1,0,7.44,7.44A7.44,7.44,0,0,0,276.52,168.47Zm0,13.15a5.71,5.71,0,1,1,5.71-5.71A5.71,5.71,0,0,1,276.52,181.62Z"/><path class="cls-1" d="M289.56,160l-5-2.4a15.71,15.71,0,0,1-4.55-3.33L274.2,148l-5.7-6a16.06,16.06,0,0,0-11.63-5H224.61v-2.25c0-.77,0-1.55.09-2.32a.87.87,0,0,0-.78-.92h0a.89.89,0,0,0-.93.81c0,.81-.08,1.63-.09,2.43l0,2.26h-9.24v-2.4a.87.87,0,0,0-.87-.86h0a.86.86,0,0,0-.86.86V137h-2.09a5.35,5.35,0,0,0-5.05,3.66,11.47,11.47,0,0,0-1.78-2,.87.87,0,0,0-1.22.06l0,0a.86.86,0,0,0,.09,1.19,9.65,9.65,0,0,1,2.34,3.24l-.58,2.77a8.39,8.39,0,0,0-1.9-4.21.86.86,0,0,0-1.22-.1l0,0a.85.85,0,0,0-.06,1.17A6.62,6.62,0,0,1,202,147v.06a6.58,6.58,0,0,1-1.54,4.22.88.88,0,0,0,.07,1.18l0,0a.84.84,0,0,0,.56.2.85.85,0,0,0,.66-.31,8.56,8.56,0,0,0,.66-.92l-.6,2.85a40.84,40.84,0,0,0-.89,8.1v1.33H190.49V153.9a6.71,6.71,0,0,0-.15-1.34,6.63,6.63,0,0,0-.93-2.29l-.23-.34a.83.83,0,0,0,0-.58,6.5,6.5,0,0,1-.4-2.27,6.74,6.74,0,0,1,.38-2.23.85.85,0,0,0-.47-1.07s0,0,0,0a.86.86,0,0,0-1.11.52,8.38,8.38,0,0,0-.47,2.43l-1.45-2.21a.87.87,0,0,0,.6-.55A9.73,9.73,0,0,1,188.8,140a.87.87,0,0,0,.07-1.19l0,0a.86.86,0,0,0-1.22,0,11.37,11.37,0,0,0-2.92,4.37l-6.21-9.48a5.93,5.93,0,0,0-.57-.75v-.63a.86.86,0,0,0-.87-.86h0a.86.86,0,0,0-.61.25,6.6,6.6,0,0,0-3.49-1H154.79v-8.46a1,1,0,0,0-1-1H87.22v-1.89a.87.87,0,0,0-.87-.87h0a.86.86,0,0,0-.86.87v1.89H63.08a1,1,0,0,0-1,1v27.27H40.26a1,1,0,0,0-1,1v26.84H17.73a1,1,0,0,0-1,1V229.4a1,1,0,0,0,1,1h5.86a3.13,3.13,0,0,0,3.08-2.58,9.53,9.53,0,0,1,18.75,0,3.13,3.13,0,0,0,3.08,2.58h1l.08,0a3.1,3.1,0,0,0,2.09-1,3.19,3.19,0,0,0,.81-1.58,9.53,9.53,0,0,1,18.74,0A3.19,3.19,0,0,0,72,229.4a3.12,3.12,0,0,0,2.28,1h40a3.13,3.13,0,0,0,3.08-2.58,9.53,9.53,0,0,1,18.75,0,3.13,3.13,0,0,0,3.08,2.58h2.12a3.82,3.82,0,0,0,3.82-3.82V210a6.63,6.63,0,0,0-.08-1,8.44,8.44,0,0,0,12.66-7.31,8.44,8.44,0,0,0-16.88-.23l-1-1.46s0,0,0,0a9.53,9.53,0,0,1,18.75,0,3.14,3.14,0,0,0,2.47,2.51L159.53,210a40.75,40.75,0,0,0-.88,8.1l-.1,11.28a3,3,0,0,0,3,3h.09l9-.08a2.72,2.72,0,0,0,2.7-2.21,8.43,8.43,0,0,1,16.61,0,2.71,2.71,0,0,0,2.7,2.21h30.61a2.71,2.71,0,0,0,2.7-2.21,8.43,8.43,0,0,1,16.61,0,2.72,2.72,0,0,0,2.71,2.21h4.46a3.38,3.38,0,0,0,3.35-3.44l-.5-5.63a9.44,9.44,0,0,0-5.28-7.62l-5-2.39a15.56,15.56,0,0,1-4.55-3.34l-6.07-6.44h12.55a2.71,2.71,0,0,0,2.7-2.2,8.43,8.43,0,0,1,16.61,0,2.71,2.71,0,0,0,2.7,2.2h4.46a3.38,3.38,0,0,0,3.36-3.43l-.51-5.63a9.43,9.43,0,0,0-5.27-7.62l-5-2.4a15.71,15.71,0,0,1-4.55-3.33l-4.14-4.39h10.89a2.71,2.71,0,0,0,2.7-2.21,8.43,8.43,0,0,1,16.61,0,2.71,2.71,0,0,0,2.7,2.21H292a3.37,3.37,0,0,0,3.35-3.43l-.5-5.63A9.43,9.43,0,0,0,289.56,160Zm-140.28,35.3a6.45,6.45,0,1,1-6.45,6.45A6.45,6.45,0,0,1,149.28,195.26Zm18.16-14.78a8.44,8.44,0,1,0-3.79-7c0,.23,0,.45,0,.67l-1.16-1.76a3.61,3.61,0,0,0,.19-.64,9.53,9.53,0,0,1,18.75,0,3.16,3.16,0,0,0,.74,1.51l-1.68,7.92a40.94,40.94,0,0,0-.89,8.11l0,3.38H167.67V182.17A6.82,6.82,0,0,0,167.44,180.48Zm-1.79-7a6.45,6.45,0,1,1,6.45,6.44A6.45,6.45,0,0,1,165.65,173.44ZM64.08,123.16h88.71v36.29a6.68,6.68,0,0,0-2.66-.57H132v-8.45a1,1,0,0,0-1-1H64.08Zm43.35,56.71V228.4H74.27a1.14,1.14,0,0,1-1.12-.94,11.53,11.53,0,0,0-22.68,0,1.14,1.14,0,0,1-1.12.94H48.5a1.14,1.14,0,0,1-1.12-.94,11.53,11.53,0,0,0-22.68,0,1.13,1.13,0,0,1-1.11.94H18.73V179.27h88.7Zm1-2.6H41.26V151.43H130v35.74a6.46,6.46,0,0,0-2.36-.44H109.43v-8.46A1,1,0,0,0,108.43,177.27ZM135,207.84H115a1.37,1.37,0,0,1-1.38-1.37V194.22a1.38,1.38,0,0,1,1.38-1.38h12.07a1.39,1.39,0,0,1,1.16.63l1.74,2.71,1,1.55,1,1.55.82,1.27.65,1,.64,1,2.05,3.17A1.38,1.38,0,0,1,135,207.84ZM157.49,180h-20a1.37,1.37,0,0,1-1.38-1.37V166.37a1.37,1.37,0,0,1,1.38-1.37h12.07a1.39,1.39,0,0,1,1.16.63l2,3.16,1,1.55,1,1.55.25.39.64,1,.65,1,2.31,3.59A1.37,1.37,0,0,1,157.49,180Zm2.85-28.26a1.38,1.38,0,0,1-1.38-1.38V138.11a1.38,1.38,0,0,1,1.38-1.38h12.07a1.38,1.38,0,0,1,1.16.63l3,4.59.52.81.87,1.35,1.26,1.95.56.86.56.87,1.17,1.82a1.38,1.38,0,0,1-1.16,2.12Zm76.17,59.34a17,17,0,0,0,5.05,3.7l5,2.4a7.68,7.68,0,0,1,4.3,6.22l.5,5.55a1.62,1.62,0,0,1-1.62,1.62h-4.46a1,1,0,0,1-1-.77,10.17,10.17,0,0,0-20,0,1,1,0,0,1-1,.77H192.63a1,1,0,0,1-1-.77,10.17,10.17,0,0,0-20,0,1,1,0,0,1-1,.77h0l-9,.09a1.15,1.15,0,0,1-.91-.35,1.24,1.24,0,0,1-.38-.91l.1-11.28a38.8,38.8,0,0,1,.84-7.75l1.66-7.81.21-1,.21-1,.71-3.33a3.58,3.58,0,0,1,1.66-2.32,3.54,3.54,0,0,1,1-.42,3.58,3.58,0,0,1,.87-.12H214.6A14.32,14.32,0,0,1,225,198.84l2.7,2.87.82.87.81.86Zm21-28.85a17.11,17.11,0,0,0,5.06,3.7l5,2.4a7.69,7.69,0,0,1,4.3,6.21l.5,5.56a1.63,1.63,0,0,1-1.63,1.62h-4.46a1,1,0,0,1-1-.77,10.17,10.17,0,0,0-20,0,1,1,0,0,1-1,.77H230.06l-3.82-4.06a16.06,16.06,0,0,0-11.64-5H203.86a9.65,9.65,0,0,0-2.48,0h-20l0-3.37a39,39,0,0,1,.85-7.76l1.55-7.33.21-1,.21-1,.81-3.85a3.63,3.63,0,0,1,3.49-2.86H235.6A14.31,14.31,0,0,1,246,170l4.64,4.93.82.86.81.87ZM292,174.91h-4.47a1,1,0,0,1-1-.78,10.17,10.17,0,0,0-20,0,1,1,0,0,1-1,.78H253l-5.76-6.11a16.07,16.07,0,0,0-11.63-5h-33l0-1.31a38.82,38.82,0,0,1,.84-7.76l2.12-10,.1-.44L206,143l.29-1.38a3.65,3.65,0,0,1,3.54-2.87h47.06a14.29,14.29,0,0,1,10.37,4.48l3.77,4,.81.87.8.84,6.15,6.53a17.27,17.27,0,0,0,5.06,3.71l5,2.4a7.67,7.67,0,0,1,4.3,6.21l.5,5.55A1.63,1.63,0,0,1,292,174.91Z"/><path class="cls-1" d="M270.09,148.91l-.83-.87-.82-.87-1.2-1.25c-.49-.51-4.89-5-8.4-5a.87.87,0,0,0-.87.87v14.06a.86.86,0,0,0,.85.86l14.72.27h0a1.8,1.8,0,0,0,1.3-3Zm3.48,6.31L259.7,155V142.76c1.94.5,4.51,2.49,6.29,4.36l.54.56.34.36.83.87,5.92,6.2Z"/><polygon class="cls-1" points="177.92 146.06 177.99 146.06 177.92 145.95 177.92 146.06"/><path class="cls-1" d="M255.25,195.27a7.44,7.44,0,1,0,7.44,7.44A7.45,7.45,0,0,0,255.25,195.27Zm0,13.15a5.71,5.71,0,1,1,5.71-5.71A5.72,5.72,0,0,1,255.25,208.42Z"/><path class="cls-1" d="M248.88,175.77l-.83-.86L246,172.73c-.49-.52-4.89-5-8.4-5a.86.86,0,0,0-.87.86v14.06a.87.87,0,0,0,.85.87l14.72.26h0a1.8,1.8,0,0,0,1.3-3l-3.9-4.08ZM252.3,182l-13.87-.25V169.56c1.94.51,4.51,2.5,6.29,4.36l.94,1,.83.86.82.87,5,5.28Z"/><path class="cls-1" d="M126.75,221.11a8.45,8.45,0,1,0,8.44,8.44A8.46,8.46,0,0,0,126.75,221.11Zm0,14.89a6.45,6.45,0,1,1,6.44-6.45A6.45,6.45,0,0,1,126.75,236Z"/><path class="cls-1" d="M61.81,221.11a8.44,8.44,0,0,0-8.44,8.29s0,.1,0,.15a8.45,8.45,0,0,0,16.9,0c0-.05,0-.1,0-.15A8.46,8.46,0,0,0,61.81,221.11Zm0,14.89a6.45,6.45,0,0,1-6.45-6.45c0-.05,0-.1,0-.15a6.44,6.44,0,0,1,12.88,0s0,.1,0,.15A6.46,6.46,0,0,1,61.81,236Z"/><path class="cls-1" d="M36,221.11a8.45,8.45,0,1,0,8.45,8.44A8.45,8.45,0,0,0,36,221.11ZM36,236a6.45,6.45,0,1,1,6.45-6.45A6.45,6.45,0,0,1,36,236Z"/><path class="cls-1" d="M234.25,224.13a7.44,7.44,0,1,0,7.44,7.44A7.45,7.45,0,0,0,234.25,224.13Zm0,13.15a5.71,5.71,0,1,1,5.71-5.71A5.71,5.71,0,0,1,234.25,237.28Z"/><path class="cls-1" d="M181.24,224.13a7.44,7.44,0,1,0,7.44,7.44A7.44,7.44,0,0,0,181.24,224.13Zm0,13.15a5.71,5.71,0,1,1,5.71-5.71A5.71,5.71,0,0,1,181.24,237.28Z"/><path class="cls-1" d="M225.92,202.58l-.82-.87-.12-.13c-.49-.51-4.9-5-8.41-5a.87.87,0,0,0-.87.87v14.06a.86.86,0,0,0,.85.86l14.72.26h0a1.79,1.79,0,0,0,1.3-3l-5.86-6.14Zm5.38,8.3-13.86-.24V198.42a14.3,14.3,0,0,1,5.18,3.29q.48.43.9.87a1.89,1.89,0,0,1,.2.2l.64.66,7,7.33Z"/></g></svg>