<svg fill="none" height="130" viewBox="0 0 267 130" width="267" xmlns="http://www.w3.org/2000/svg" xmlns:xlink="http://www.w3.org/1999/xlink"><linearGradient id="a"><stop offset="0" stop-color="#09005d"/><stop offset="1" stop-color="#1a0f91"/></linearGradient><linearGradient id="b" gradientUnits="userSpaceOnUse" x1="246.878" x2="243.324" xlink:href="#a" y1="-10.6476" y2="25.3233"/><linearGradient id="c"><stop offset="0" stop-color="#e1473d"/><stop offset="1" stop-color="#e9605a"/></linearGradient><linearGradient id="d" gradientUnits="userSpaceOnUse" x1="230.676" x2="240.123" xlink:href="#c" y1="113.544" y2="129.002"/><linearGradient id="e" gradientUnits="userSpaceOnUse" x1="196.878" x2="193.324" xlink:href="#a" y1="-9.6476" y2="26.3233"/><linearGradient id="f" gradientUnits="userSpaceOnUse" x1="180.676" x2="190.123" xlink:href="#c" y1="114.544" y2="130.002"/><linearGradient id="g" gradientUnits="userSpaceOnUse" x1="180.878" x2="177.324" xlink:href="#a" y1="-9.6476" y2="26.3233"/><linearGradient id="h" gradientUnits="userSpaceOnUse" x1="164.676" x2="174.123" xlink:href="#c" y1="114.544" y2="130.002"/><linearGradient id="i" gradientUnits="userSpaceOnUse" x1="136.878" x2="133.324" xlink:href="#a" y1="-9.6476" y2="26.3233"/><linearGradient id="j" gradientUnits="userSpaceOnUse" x1="120.676" x2="130.123" xlink:href="#c" y1="114.544" y2="130.002"/><linearGradient id="k" gradientUnits="userSpaceOnUse" x1="152.878" x2="149.324" xlink:href="#a" y1="-9.6476" y2="26.3233"/><linearGradient id="l" gradientUnits="userSpaceOnUse" x1="136.676" x2="146.123" xlink:href="#c" y1="114.544" y2="130.002"/><clipPath id="m"><path d="m0 0h267v129.184h-267z"/></clipPath><g clip-path="url(#m)"><g opacity=".5"><path d="m184.032 49.5271h-24.706v62.2869h24.706z" fill="#cfcfcf"/><path d="m184.032 46.4255h-13.969v3.1017h13.969z" fill="#cfcfcf"/><path d="m181.834 55.0842h-20.307v1.5492h20.307z" fill="#fff"/><path d="m181.834 60.6545h-20.307v1.5492h20.307z" fill="#fff"/><path d="m181.834 66.2251h-20.307v1.5492h20.307z" fill="#fff"/><path d="m181.834 71.7986h-20.307v1.5492h20.307z" fill="#fff"/><path d="m181.834 77.3691h-20.307v1.5492h20.307z" fill="#fff"/><path d="m181.834 82.9395h-20.307v1.5491h20.307z" fill="#fff"/><path d="m181.834 88.5098h-20.307v1.5491h20.307z" fill="#fff"/><path d="m181.834 94.0801h-20.307v1.5492h20.307z" fill="#fff"/><path d="m181.834 99.6538h-20.307v1.5492h20.307z" fill="#fff"/><path d="m181.834 105.224h-20.307v1.55h20.307z" fill="#fff"/><path d="m36.6559 49.49h-29.53334v-32.9004l29.53334.0216z" fill="#7d97f4"/><g fill="#c6e3ff"><path d="m15.509 34.4424h-3.3589v2.8919h3.3589z"/><path d="m23.5657 34.4424h-3.3589v2.8919h3.3589z"/><path d="m31.6282 34.4424h-3.3589v2.8919h3.3589z"/><path d="m15.509 41.1863h-3.3589v2.8919h3.3589z"/><path d="m23.5657 41.1863h-3.3589v2.8919h3.3589z"/><path d="m31.6282 41.1863h-3.3589v2.8919h3.3589z"/><path d="m15.509 20.9543h-3.3589v2.8919h3.3589z"/><path d="m23.5657 20.9543h-3.3589v2.8919h3.3589z"/><path d="m31.6282 20.9543h-3.3589v2.8919h3.3589z"/><path d="m15.509 27.6982h-3.3589v2.8919h3.3589z"/><path d="m23.5657 27.6982h-3.3589v2.8919h3.3589z"/><path d="m31.6282 27.6982h-3.3589v2.8919h3.3589z"/></g><path d="m43.7788 47.5854h-43.7788v48.7626h43.7788z" fill="#4e51fd"/><path d="m24.7165 52.7219h-19.68891v2.5088h19.68891z" fill="#fff"/><path d="m24.7165 61.7483h-19.68891v2.5088h19.68891z" fill="#fff"/><path d="m24.7165 70.769h-19.68891v2.5089h19.68891z" fill="#fff"/><path d="m24.7165 79.79h-19.68891v2.5088h19.68891z" fill="#fff"/><path d="m24.7165 88.811h-19.68891v2.5088h19.68891z" fill="#fff"/><path d="m43.7788 52.7271h-11.7291v2.5088h11.7291z" fill="#fff"/><path d="m43.7786 61.7478h-11.729v2.5088h11.729z" fill="#fff"/><path d="m43.7786 70.7688h-11.729v2.5088h11.729z" fill="#fff"/><path d="m43.7786 79.7898h-11.729v2.5088h11.729z" fill="#fff"/><path d="m43.7786 88.8108h-11.729v2.5088h11.729z" fill="#fff"/><path d="m149.189 73.188h-18.236v-20.3125l18.236 7.1195z" fill="#e1e1e1"/><path d="m136.645 62.707h-1.941v1.939h1.941z" fill="#91b3fa"/><path d="m141.3 62.707h-1.941v1.939h1.941z" fill="#91b3fa"/><path d="m145.958 62.707h-1.941v1.939h1.941z" fill="#91b3fa"/><path d="m136.645 67.2312h-1.941v1.939h1.941z" fill="#91b3fa"/><path d="m141.3 67.2312h-1.941v1.939h1.941z" fill="#91b3fa"/><path d="m145.958 67.2312h-1.941v1.939h1.941z" fill="#91b3fa"/><path d="m153.587 72.012h-27.033v30.111h27.033z" fill="#e1e1e1"/><path d="m150.223 75.187h-12.158v1.5492h12.158z" fill="#91b3fa"/><path d="m150.223 80.7573h-12.158v1.5492h12.158z" fill="#91b3fa"/><path d="m150.223 86.3276h-12.158v1.5492h12.158z" fill="#91b3fa"/><path d="m150.223 91.8982h-12.158v1.5492h12.158z" fill="#91b3fa"/><path d="m150.223 97.4719h-12.158v1.5492h12.158z" fill="#91b3fa"/><path d="m133.927 75.187h-4.785v1.5492h4.785z" fill="#91b3fa"/><path d="m133.927 80.7573h-4.785v1.5492h4.785z" fill="#91b3fa"/><path d="m133.927 86.3276h-4.785v1.5492h4.785z" fill="#91b3fa"/><path d="m133.927 91.8982h-4.785v1.5492h4.785z" fill="#91b3fa"/><path d="m133.927 97.4719h-4.785v1.5492h4.785z" fill="#91b3fa"/><path d="m116.335 93.7959h-116.335v20.0731h116.335z" fill="#7d97f4"/></g><path d="m186.884 19.2839h-3.222v90.9911h3.222z" fill="#7d97f4"/><path d="m186.884 19.2839h-1.609v90.9911h1.609z" fill="#7d97f4"/><path d="m206.004 19.2839h-3.222v90.9911h3.222z" fill="#7d97f4"/><path d="m206.004 19.2839h-1.609v90.9911h1.609z" fill="#7d97f4"/><path d="m225.124 19.2839h-3.222v90.9911h3.222z" fill="#7d97f4"/><path d="m225.124 19.2839h-1.609v90.9911h1.609z" fill="#7d97f4"/><path d="m244.244 19.2839h-3.222v90.9911h3.222z" fill="#7d97f4"/><path d="m244.244 19.2839h-1.609v90.9911h1.609z" fill="#7d97f4"/><path d="m264.683 36.1777h-100.683v2.5309h100.683z" fill="#7d97f4"/><path d="m264.683 37.4431h-100.683v1.2654h100.683z" fill="#7d97f4"/><path d="m225.124 19.2839h-61.124v2.5309h61.124z" fill="#7d97f4"/><path d="m225.124 20.5527h-61.124v1.2655h61.124z" fill="#7d97f4"/><path d="m264.683 51.7153h-100.683v2.5309h100.683z" fill="#7d97f4"/><path d="m264.683 52.9807h-100.683v1.2654h100.683z" fill="#7d97f4"/><path d="m264.683 67.2529h-100.683v2.5309h100.683z" fill="#7d97f4"/><path d="m264.683 68.5183h-100.683v1.2655h100.683z" fill="#7d97f4"/><path d="m264.683 82.7905h-100.683v2.5309h100.683z" fill="#7d97f4"/><path d="m264.683 84.0559h-100.683v1.2655h100.683z" fill="#7d97f4"/><path d="m264.683 98.3284h-100.683v2.5346h100.683z" fill="#7d97f4"/><path d="m264.683 99.5972h-100.683v1.2658h100.683z" fill="#7d97f4"/><path d="m168.635 7.53247h-4.635v102.74253h4.635z" fill="#7d97f4"/><path d="m168.635 7.53247h-2.317v102.74253h2.317z" fill="#7d97f4"/><path d="m267 7.53247h-4.635v102.74253h4.635z" fill="#7d97f4"/><path d="m267 7.53247h-2.317v102.74253h2.317z" fill="#7d97f4"/><path d="m120.246 79.7199-11.246 11.7488v-3.1268l9.664-12.5072z" fill="#ff7163"/><path d="m115.051 73.8563c.238.7711 3.991 5.0969 8.478 10.0879.818.9152 1.666 1.8515 2.518 2.7921 6.467 7.1264 13.392 14.5277 13.392 14.5277l48.925 1.068 11.695-22.6882s-13.133-23.1839-42.868-29.8654c-1.612-.3602-3.274-.6779-4.983-.9279-8.045-1.2245-17.187-1.2244-27.479.644-11.891 16.672-10.288 22.3874-9.682 24.366z" fill="#ff8b85"/><path d="m188.364 103.082-28.345-.619 28.595-35.5721c7.798 7.067 11.445 13.5028 11.445 13.5028z" fill="#ea615b"/><path d="m246.532 99.1119.441 5.8811.28 6.948.072 1.729c.094 2.364-1.81 4.326-4.181 4.3l-126.566-1.326v-18.5743l3.655-.4619-.415-17.8371 18.366 20.1504 46.265.1099 15.61-20.3916-1.967 21.6586h4.944l2.85-25.4633 22.009 1.5719 6.34 17.9218 12.293 3.7877" fill="#ff7163"/><path d="m116.574 104.993v11.651l126.566 1.326c2.371.026 4.279-1.936 4.181-4.3l-.072-1.729-.28-6.948z" fill="#ea615b"/><path d="m208.396 79.6143 7.879.322 9.321.3813.17.0042 4.13 13.3672h-23.035z" fill="#e5e5e5"/><path d="m206.861 93.6891h7.184l11.551-13.3715-9.321-.3813-9.053 10.4226z" fill="#fff"/><path d="m123.529 83.9399c.818.9152 1.666 1.8515 2.519 2.7921 9.609-19.3412 20.482-29.7045 28.293-35.1064.975-.6779 1.93-1.288 2.85-1.8515-1.612-.3602-3.274-.6779-4.983-.9279-8.028 5.5757-18.973 16.0279-28.679 35.0937z" fill="#ff7163"/><path d="m192.519 107.938h2.744v-7.902h-2.744z" fill="#0c0365"/><path d="m240.918 105.001h3.202v-3.198h-3.202z" fill="#0c0365"/><path d="m116.574 111.937h130.679l.319 6.029-3.957-.025c-.157.017-.314.025-.475.025l-5.967-.064-120.599-1.262z" fill="#ff8b85"/><path d="m131.76 48.482c-3.978 3.8216-10.25 11.753-15.61 26.9548-.632-.7966-1.022-1.3516-1.094-1.5846-.607-1.9786-2.21-7.6941 9.681-24.3661 2.404-.4364 4.745-.7668 7.027-1.0083z" fill="#ea615b"/><path d="m103.235 29.2126c-.01-.6027-.262-1.1763-.698-1.5922-.437-.4158-1.022-.6386-1.624-.6192l-48.7342 1.5582c-1.2407.0394-2.2145 1.0766-2.1778 2.3179l2.4046 80.7517c.0367 1.225 1.0464 2.196 2.2712 2.184l47.7542-.465c.6-.005 1.172-.251 1.591-.681.418-.43.648-1.009.637-1.609l-1.425-81.8447z" fill="#7d97f4"/><g fill="#bdd0fb" opacity=".63"><path d="m98.1515 33.0278h-43.3981c-.4218 0-.7607.2927-.7565.6927l.0415 3.8242c.0041.4021.3527.8525.7759.8532l43.5211.0436c.4309 0 .7642-.4636.7504-.8691l-.1321-3.8443c-.0138-.4041-.3735-.7003-.8029-.7003z"/><path d="m98.4329 41.3317-43.5868-.0727c-.4239-.0007-.7635.4041-.7586.8082l.0414 3.8741c.0042.4055.3534.7902.7781.7916l43.7113.1211c.4329.0013.7704-.3847.7566-.7944l-.1335-3.9094c-.0138-.4075-.3776-.8171-.8091-.8178z"/><path d="m98.7269 50.0645-43.7839-.1487c-.4261-.0014-.7691.1951-.7642.6027l.0422 3.908c.0041.4089.354.7182.7807.7203l43.9029.1958c.435.0021.7767-.3072.7621-.7203l-.1341-3.944c-.0139-.411-.3721-.6124-.8057-.6138z"/><path d="m99.0139 58.5814-43.9762-.2242c-.4273-.0021-.7711.2754-.7669.6864l.0429 3.9419c.0041.4131.3547.6456.7835.6483l44.0965.2713c.4364.0027.7829-.2277.7684-.6442l-.1356-3.9786c-.0138-.4152-.3769-.6982-.8119-.7009z"/><path d="m99.303 67.1731-44.1705-.301c-.4295-.0028-.7739.3563-.769.7715l.0428 3.9772c.0042.4165.3583.8677.7891.8711l44.2985.3515c.4384.0035.7791-.4463.7641-.867l-.137-4.0138c-.014-.4187-.3809-.7861-.8187-.7888z"/><path d="m99.5947 75.8402-44.3662-.3785c-.4315-.0035-.7766.4394-.7718.8573l.0436 4.0125c.0048.42.3596.7943.7918.7985l44.4949.4303c.441.0042.785-.3667.77-.7908l-.138-4.0499c-.014-.4221-.386-.8753-.825-.8794z"/><path d="m99.8998 84.8877-44.5703-.4601c-.4336-.0049-.7822.2235-.7773.6455l.0435 4.0478c.0049.4242.3604.7203.7947.7252l44.6936.5099c.443.0049.792-.2858.777-.7141l-.139-4.0865c-.014-.4262-.38-.6635-.8215-.6677z"/><path d="m100.197 93.7126-44.7699-.5411c-.435-.0056-.7849.3065-.7801.732l.0443 4.0838c.0048.4276.361.6442.7974.6504l44.8943.5916c.444.0055.797-.2034.782-.6352l-.14-4.1232c-.014-.4297-.385-.7528-.828-.7583z"/><path d="m100.497 102.616-44.971-.622c-.4371-.007-.7871.391-.7829.82l.0442 4.121c.0049.432.3652.874.8037.881l45.103.678c.447.007.794-.43.779-.866l-.142-4.16c-.014-.434-.389-.845-.834-.851z"/></g><path d="m56.6736 1.40254c-.0166-.777035-.7324-1.40254-1.61-1.40254h-53.22953c-.889375 0-1.83407.644878-1.83407 1.43229v110.04571c0 .588.376218 1.152.845801 1.567.470279.415 1.163239.648 1.827149.646l53.81185-.13c.6694-.001 1.3244-.241 1.7926-.665s.7323-.998.7192-1.591l-2.3244-109.90246z" fill="#91b3fa"/><g fill="#bdd0fb"><path d="m26.1043 7.79874-17.41192-.05328.00623-1.92979 17.39319.04844z"/><path d="m26.152 14.9076-17.48379-.0706.00622-1.9464 17.46447.0664z"/><path d="m26.2005 22.0746-17.55646-.0879.00692-1.9623 17.53644.0837z"/><path d="m26.2489 29.3018-17.62903-.1065.00692-1.9783 17.60901.1018z"/><path d="m26.2981 36.5884-17.7024-.1238.00693-1.9949 17.68227.119z"/><path d="m26.397 51.3467-17.8511-.1619.00691-2.0281 17.83029.1564z"/><path d="m26.549 73.954-18.07927-.2193.0076-2.0806 18.05717.2144z"/><path d="m26.3472 43.9367-17.7764-.1426.00692-2.0114 17.75628.1377z"/><path d="m26.4472 58.8187-17.92645-.1806.00692-2.0453 17.90573.1757z"/><path d="m26.4979 66.3544-18.00254-.2.00692-2.0626 17.98172.1944z"/><path d="m26.6001 81.6186-18.15601-.2394.00692-2.098 18.13529.2346z"/><path d="m26.6522 89.3495-18.2335-.2602.00692-2.1159 18.21278.2546z"/><path d="m26.7047 97.1468-18.31237-.281.00692-2.1339 18.29095.2747z"/><path d="m26.7572 105.011-18.39123-.302.00691-2.152 18.36972.296z"/><path d="m48.9334 7.86869-17.5212-.05328-.0194-1.93602 17.5018.04844z"/><path d="m49.0758 15.0002-17.5945-.0712-.0187-1.9519 17.5738.0664z"/><path d="m49.2189 22.1902-17.6671-.0886-.0193-1.9678 17.647.0837z"/><path d="m49.3636 29.4408-17.7411-.1065-.0194-1.9852 17.7211.1024z"/><path d="m49.5095 36.7518-17.8158-.1253-.0194-2.001 17.7951.1197z"/><path d="m49.8041 51.5584-17.9659-.1626-.0194-2.035 17.9452.1571z"/><path d="m50.2563 74.2419-18.1961-.2208-.0208-2.0875 18.1754.2159z"/><path d="m49.6561 44.1235-17.8905-.1432-.0194-2.0184 17.8697.1391z"/><path d="m49.9535 59.0553-18.042-.1813-.02-2.0522 18.0212.1764z"/><path d="m50.1042 66.6169-18.1187-.2014-.02-2.0696 18.0979.1959z"/><path d="m50.4099 81.9332-18.275-.2414-.0208-2.1049 18.2536.2353z"/><path d="m50.5641 89.6905-18.3532-.2622-.0207-2.1229 18.3317.256z"/><path d="m50.7205 97.5149-18.4334-.283-.0207-2.1416 18.4112.2775z"/><path d="m50.8774 105.407-18.5136-.304-.0208-2.16 18.4915.298z"/></g><path d="m241.406 120.85c.969-4.05-1.524-8.121-5.569-9.092-4.046-.971-8.111 1.526-9.081 5.576-.97 4.051 1.523 8.121 5.569 9.092 4.045.971 8.111-1.525 9.081-5.576z" fill="url(#b)"/><path d="m227.746 121.842c-.063 0-.123-.036-.15-.1-.356-.844-.537-1.738-.537-2.663 0-3.771 3.065-6.839 6.831-6.839 1.168 0 2.321.299 3.334.869.079.044.106.142.062.221s-.142.105-.221.061c-.964-.541-2.064-.826-3.177-.826-3.588 0-6.508 2.923-6.508 6.516 0 .88.172 1.732.511 2.537.035.082-.003.178-.087.213-.02.009-.042.012-.063.012z" fill="#7d97f4"/><path d="m235.154 122.387c1.809-.604 2.788-2.562 2.185-4.374s-2.56-2.792-4.369-2.188c-1.81.604-2.789 2.562-2.185 4.375.603 1.812 2.559 2.791 4.369 2.187z" fill="url(#d)"/><path d="m191.406 121.85c.969-4.05-1.524-8.121-5.569-9.092-4.046-.971-8.111 1.526-9.081 5.576-.97 4.051 1.523 8.121 5.569 9.092 4.045.971 8.111-1.525 9.081-5.576z" fill="url(#e)"/><path d="m177.746 122.842c-.063 0-.123-.036-.15-.1-.356-.844-.537-1.738-.537-2.663 0-3.771 3.065-6.839 6.831-6.839 1.168 0 2.321.299 3.334.869.079.044.106.142.062.221s-.142.105-.221.061c-.964-.541-2.064-.826-3.177-.826-3.588 0-6.508 2.923-6.508 6.516 0 .88.172 1.732.511 2.537.035.082-.003.178-.087.213-.02.009-.042.012-.063.012z" fill="#7d97f4"/><path d="m185.154 123.387c1.809-.604 2.788-2.562 2.185-4.374s-2.56-2.792-4.369-2.188c-1.81.604-2.789 2.562-2.185 4.375.603 1.812 2.559 2.791 4.369 2.187z" fill="url(#f)"/><path d="m175.406 121.85c.969-4.05-1.524-8.121-5.569-9.092-4.046-.971-8.111 1.526-9.081 5.576-.97 4.051 1.523 8.121 5.569 9.092 4.045.971 8.111-1.525 9.081-5.576z" fill="url(#g)"/><path d="m161.746 122.842c-.063 0-.123-.036-.15-.1-.356-.844-.537-1.738-.537-2.663 0-3.771 3.065-6.839 6.831-6.839 1.168 0 2.321.299 3.334.869.079.044.106.142.062.221s-.142.105-.221.061c-.964-.541-2.064-.826-3.177-.826-3.588 0-6.508 2.923-6.508 6.516 0 .88.172 1.732.511 2.537.035.082-.003.178-.087.213-.02.009-.042.012-.063.012z" fill="#7d97f4"/><path d="m169.154 123.387c1.809-.604 2.788-2.562 2.185-4.374s-2.56-2.792-4.369-2.188c-1.81.604-2.789 2.562-2.185 4.375.603 1.812 2.559 2.791 4.369 2.187z" fill="url(#h)"/><path d="m131.406 121.85c.969-4.05-1.524-8.121-5.569-9.092-4.046-.971-8.111 1.526-9.081 5.576-.97 4.051 1.523 8.121 5.569 9.092 4.045.971 8.111-1.525 9.081-5.576z" fill="url(#i)"/><path d="m117.746 122.842c-.063 0-.123-.036-.15-.1-.356-.844-.537-1.738-.537-2.663 0-3.771 3.065-6.839 6.831-6.839 1.168 0 2.321.299 3.334.869.079.044.106.142.062.221s-.142.105-.221.061c-.964-.541-2.064-.826-3.177-.826-3.588 0-6.508 2.923-6.508 6.516 0 .88.172 1.732.511 2.537.035.082-.003.178-.087.213-.02.009-.042.012-.063.012z" fill="#7d97f4"/><path d="m125.154 123.387c1.809-.604 2.788-2.562 2.185-4.374s-2.56-2.792-4.369-2.188c-1.81.604-2.789 2.562-2.185 4.375.603 1.812 2.559 2.791 4.369 2.187z" fill="url(#j)"/><path d="m147.406 121.85c.969-4.05-1.524-8.121-5.569-9.092-4.046-.971-8.111 1.526-9.081 5.576-.97 4.051 1.523 8.121 5.569 9.092 4.045.971 8.111-1.525 9.081-5.576z" fill="url(#k)"/><path d="m133.746 122.842c-.063 0-.123-.036-.15-.1-.356-.844-.537-1.738-.537-2.663 0-3.771 3.065-6.839 6.831-6.839 1.168 0 2.321.299 3.334.869.079.044.106.142.062.221s-.142.105-.221.061c-.964-.541-2.064-.826-3.177-.826-3.588 0-6.508 2.923-6.508 6.516 0 .88.172 1.732.511 2.537.035.082-.003.178-.087.213-.02.009-.042.012-.063.012z" fill="#7d97f4"/><path d="m141.154 123.387c1.809-.604 2.788-2.562 2.185-4.374s-2.56-2.792-4.369-2.188c-1.81.604-2.789 2.562-2.185 4.375.603 1.812 2.559 2.791 4.369 2.187z" fill="url(#l)"/></g></svg>