<svg xmlns="http://www.w3.org/2000/svg" viewBox="0 0 328.09 328.09"><defs><style>.cls-1{fill:#4e8466;}</style></defs><g id="kangoo"><path class="cls-1" d="M108.62,189.94l6,0h0a1,1,0,0,0,0-2l-6,0h0a1,1,0,0,0,0,2Z"/><path class="cls-1" d="M96.79,191.45a1,1,0,0,0,.33,0,26.43,26.43,0,0,1,5.63-1.29,1,1,0,0,0-.23-2,28.27,28.27,0,0,0-6,1.39,1,1,0,0,0,.32,1.94Z"/><path class="cls-1" d="M156.62,190.16l6,0h0a1,1,0,1,0,0-2l-6,0a1,1,0,1,0,0,2Z"/><path class="cls-1" d="M230.79,136.42a1,1,0,0,0,.31-1.95,28.57,28.57,0,0,0-6.08-1.26,1,1,0,1,0-.19,2,26.88,26.88,0,0,1,5.65,1.17A1.18,1.18,0,0,0,230.79,136.42Z"/><path class="cls-1" d="M235.75,138.73a26.81,26.81,0,0,1,4.64,3.44,1,1,0,0,0,.68.27,1,1,0,0,0,.73-.32,1,1,0,0,0-.06-1.42,28.54,28.54,0,0,0-5-3.69,1,1,0,0,0-1.36.35A1,1,0,0,0,235.75,138.73Z"/><path class="cls-1" d="M144.62,190.1l6,0h0a1,1,0,0,0,0-2l-6,0h0a1,1,0,0,0,0,2Z"/><path class="cls-1" d="M120.62,190l6,0h0a1,1,0,1,0,0-2l-6,0h0a1,1,0,0,0-1,1A1,1,0,0,0,120.62,190Z"/><path class="cls-1" d="M132.62,190.05l6,0h0a1,1,0,0,0,0-2l-6,0h0a1,1,0,1,0,0,2Z"/><path class="cls-1" d="M160.12,243.29h-6a1,1,0,0,0,0,2h6a1,1,0,0,0,0-2Z"/><path class="cls-1" d="M124.12,243.29h-6a1,1,0,1,0,0,2h6a1,1,0,0,0,0-2Z"/><path class="cls-1" d="M148.12,243.29h-6a1,1,0,0,0,0,2h6a1,1,0,0,0,0-2Z"/><path class="cls-1" d="M136.12,243.29h-6a1,1,0,0,0,0,2h6a1,1,0,0,0,0-2Z"/><path class="cls-1" d="M79.24,218.3c0-.56,0-1.12,0-1.69a27.71,27.71,0,0,1,.31-4.08,1,1,0,1,0-2-.3,27.82,27.82,0,0,0-.34,4.38c0,.61,0,1.21.06,1.81a1,1,0,0,0,1,.94h.07A1,1,0,0,0,79.24,218.3Z"/><path class="cls-1" d="M100.37,242.73a27,27,0,0,1-5.48-1.79,1,1,0,0,0-.83,1.82,28.66,28.66,0,0,0,5.9,1.92l.21,0a1,1,0,0,0,1-.8A1,1,0,0,0,100.37,242.73Z"/><path class="cls-1" d="M112.12,243.29h-6a1,1,0,1,0,0,2h6a1,1,0,0,0,0-2Z"/><path class="cls-1" d="M82,200.73a28.77,28.77,0,0,0-2.85,5.51,1,1,0,0,0,.57,1.29.92.92,0,0,0,.36.07A1,1,0,0,0,81,207a27.06,27.06,0,0,1,2.66-5.12,1,1,0,0,0-.28-1.38A1,1,0,0,0,82,200.73Z"/><path class="cls-1" d="M247,151.58a1,1,0,0,0,.92.62.84.84,0,0,0,.38-.08,1,1,0,0,0,.55-1.3,29,29,0,0,0-3-5.44,1,1,0,1,0-1.64,1.14A27.33,27.33,0,0,1,247,151.58Z"/><path class="cls-1" d="M80.22,224A1,1,0,0,0,79,223.3a1,1,0,0,0-.69,1.24,28.39,28.39,0,0,0,2.35,5.74,1,1,0,0,0,.88.52.93.93,0,0,0,.48-.12,1,1,0,0,0,.4-1.35A26.66,26.66,0,0,1,80.22,224Z"/><path class="cls-1" d="M85.7,234.07a1,1,0,0,0-1.52,1.31,28.77,28.77,0,0,0,4.54,4.22,1,1,0,0,0,1.4-.2,1,1,0,0,0-.2-1.4A26.62,26.62,0,0,1,85.7,234.07Z"/><path class="cls-1" d="M172.12,243.29h-6a1,1,0,0,0,0,2h6a1,1,0,0,0,0-2Z"/><path class="cls-1" d="M90.86,192.17A28.57,28.57,0,0,0,86,196a1,1,0,0,0,1.39,1.44,26.52,26.52,0,0,1,4.56-3.54,1,1,0,0,0-1-1.7Z"/><path class="cls-1" d="M206.93,133.09h-6a1,1,0,0,0,0,2h6a1,1,0,0,0,0-2Z"/><path class="cls-1" d="M218.93,133.09h-6a1,1,0,0,0,0,2h6a1,1,0,0,0,0-2Z"/><path class="cls-1" d="M248.56,157.12a27.8,27.8,0,0,1,.4,4.65c0,.37,0,.74,0,1.11a1,1,0,0,0,.95,1h.05a1,1,0,0,0,1-1c0-.39,0-.79,0-1.19a29.57,29.57,0,0,0-.43-5,1,1,0,0,0-1.16-.82A1,1,0,0,0,248.56,157.12Z"/><path class="cls-1" d="M138.86,135.09a1,1,0,0,0,0-2h-6a1,1,0,0,0,0,2Z"/><path class="cls-1" d="M174.86,135.09a1,1,0,0,0,0-2h-6a1,1,0,0,0,0,2Z"/><path class="cls-1" d="M162.86,135.09a1,1,0,0,0,0-2h-6a1,1,0,0,0,0,2Z"/><path class="cls-1" d="M150.86,135.09a1,1,0,0,0,0-2h-6a1,1,0,0,0,0,2Z"/><path class="cls-1" d="M33.59,108.18H65.16a1,1,0,0,0,0-2H33.59a1,1,0,0,0,0,2Z"/><path class="cls-1" d="M64.26,137.07a1,1,0,0,0-1-1H45.62a1,1,0,0,0,0,2H63.26A1,1,0,0,0,64.26,137.07Z"/><path class="cls-1" d="M57.55,125.05a1,1,0,0,0-1-1H24.1a1,1,0,0,0,0,2H56.55A1,1,0,0,0,57.55,125.05Z"/><path class="cls-1" d="M119.42,63.79h1.47a.34.34,0,0,1,.33.27l.68,3.32a1.33,1.33,0,0,0,1.3,1.07h2.36a1.34,1.34,0,0,0,1.3-1.07l.68-3.32a.32.32,0,0,1,.32-.27h1.65l-2,9a2.28,2.28,0,0,0,2.23,2.77h16A2.28,2.28,0,0,0,148,72.83l-2-9h1.46a.33.33,0,0,1,.33.27l.67,3.32a1.35,1.35,0,0,0,1.31,1.07h2.36a1.34,1.34,0,0,0,1.3-1.07l.68-3.32a.33.33,0,0,1,.32-.27h1.47a1.32,1.32,0,0,0,1.33-1.33V59a1.33,1.33,0,0,0-1.33-1.33H144.65l-1.21-5.54a2.3,2.3,0,0,0-2.23-1.79H134.3a2.29,2.29,0,0,0-2.23,1.79l-1.22,5.54H119.42A1.34,1.34,0,0,0,118.09,59v3.48A1.33,1.33,0,0,0,119.42,63.79Zm10.11,9.7a.23.23,0,0,1-.05-.23l2.07-9.47h5.2V73.6h-7A.27.27,0,0,1,129.53,73.49Zm16.5-.23a.26.26,0,0,1-.05.23.31.31,0,0,1-.22.11h-7V63.79H144Zm-4.55-20.72,1.13,5.11h-3.86V52.32h2.46A.28.28,0,0,1,141.48,52.54Zm-7.46,0a.28.28,0,0,1,.28-.22h2.45v5.33H132.9Z"/><path class="cls-1" d="M290.76,170.89H273.51A51.33,51.33,0,0,0,223,110.42a1.13,1.13,0,0,0-.32.06,1,1,0,0,0-.38-.07H189.93V64.29a1,1,0,0,0-1-1H174V48.61a3.22,3.22,0,0,0-3.22-3.22H104.58a3.22,3.22,0,0,0-3.22,3.22V63.29H85a1,1,0,0,0-1,1V97.45H78.33V86.93a1,1,0,0,0-1-1H58.15a1,1,0,0,0,0,2H76.33v60.32H58.15a1,1,0,0,0,0,2H84.47a3.6,3.6,0,0,0,3.54-3,11.84,11.84,0,0,1,23.28,0,3.62,3.62,0,0,0,3.55,3h2.58a4.45,4.45,0,0,0,4.44-4.44V135.09h5a1,1,0,0,0,0-2h-5v-7.47a7.83,7.83,0,0,0-1.29-4.3l-5.83-8.9h65.17V134a.7.7,0,0,0,0,.14.5.5,0,0,0,0,.13v23.3H105.64a10.06,10.06,0,1,0-6,2H222.28a2.25,2.25,0,0,1,0,4.49H104.4a.91.91,0,0,1-.7,0,51.36,51.36,0,0,0,0,102.71h71.74v19.49a1,1,0,0,0,1,1H290.76a1,1,0,0,0,1-1V171.89A1,1,0,0,0,290.76,170.89ZM91.57,149.44a8.08,8.08,0,1,1,8.08,8.07A8.09,8.09,0,0,1,91.57,149.44ZM239.48,285.21v-6h37.64v6Zm37.64-8H239.48V231.57h37.64Zm12.64,8H279.12V230.57a1,1,0,0,0-1-1H238.48a1,1,0,0,0-1,1v54.64h-7.67V230.57a1,1,0,0,0-1-1H189.18a1,1,0,0,0-1,1v54.64H177.44V172.89H289.76Zm-99.58,0v-6h37.63v6Zm37.63-8H190.18V231.57h37.63Zm-52.37-59.6h-71a2.25,2.25,0,0,1,0-4.49h71Zm-72.08-169a1.22,1.22,0,0,1,1.22-1.22h66.16A1.22,1.22,0,0,1,172,48.61V80a1.22,1.22,0,0,1-1.22,1.22H104.58A1.22,1.22,0,0,1,103.36,80V48.61ZM86,65.29h15.38v6.15H93a1,1,0,0,0-1,1v25H86ZM109.66,123H85.32a1.68,1.68,0,0,1-1.68-1.68V106.36a1.69,1.69,0,0,1,1.68-1.67H100a1.69,1.69,0,0,1,1.41.76l3.2,5,1.29,2,5.13,8A1.68,1.68,0,0,1,109.66,123Zm42.54-12.55H113.43L107.27,101a7.85,7.85,0,0,0-6.57-3.55H94v-24h7.35V80a3.23,3.23,0,0,0,3.22,3.22h66.16A3.22,3.22,0,0,0,174,80V73.44h5.95v37Zm29.71,23.67V72.44a1,1,0,0,0-1-1H174V65.29h14v92.23h-6ZM103.7,264.72a49.36,49.36,0,0,1,0-98.71.91.91,0,0,1,.7,0H222.28a4.25,4.25,0,0,0,0-8.49H189.93V135.09h5a1,1,0,0,0,0-2h-5V112.41h32.35a.82.82,0,0,0,.31-.07,1,1,0,0,0,.39.08,49.41,49.41,0,0,1,49.35,49.35,48.88,48.88,0,0,1-.86,9.12h-22c.2-.59.38-1.19.54-1.79a1,1,0,1,0-1.93-.51c-.21.78-.46,1.54-.73,2.3H176.44a1,1,0,0,0-1,1V188.7a1,1,0,0,0-.82-.46l-6,0h0a1,1,0,0,0,0,2l6,0h0a1,1,0,0,0,.82-.46v21.35h-71a4.25,4.25,0,0,0,0,8.49h71v45.1Z"/><rect class="cls-1" x="195.21" y="245.62" width="11.13" height="7.11" rx="3.04"/><rect class="cls-1" x="211.65" y="245.62" width="11.13" height="7.11" rx="3.04"/><rect class="cls-1" x="244.83" y="245.62" width="11.13" height="7.11" rx="3.04"/><rect class="cls-1" x="261.27" y="245.62" width="11.13" height="7.11" rx="3.04"/><path class="cls-1" d="M211.42,219.77h-4.85a1,1,0,0,0-1,1v5.53a1,1,0,0,0,1,1h4.85a1,1,0,0,0,1-1v-5.53A1,1,0,0,0,211.42,219.77Zm-1,5.53h-2.85v-3.53h2.85Z"/><path class="cls-1" d="M260.72,219.77h-4.84a1,1,0,0,0-1,1v5.53a1,1,0,0,0,1,1h4.84a1,1,0,0,0,1-1v-5.53A1,1,0,0,0,260.72,219.77Zm-1,5.53h-2.84v-3.53h2.84Z"/><path class="cls-1" d="M259.83,207H186.46a1,1,0,0,0-1,1v8.61a1,1,0,0,0,1,1h94.37a1,1,0,0,0,1-1V208a1,1,0,0,0-1-1h-21Zm-72.37,6.13V209h8.24v6.61h-8.24Zm10.24,0V209h9.17v6.61H197.7Zm11.17,0V209h8.34v6.61h-8.34Zm10.34,0V209h8.35v6.61h-8.35Zm10.35-.44V209h8.38v6.61h-8.38Zm10.38-2.46V209h8.39v6.61h-8.39ZM250.33,209h8.5v6.61h-8.5Zm10.5,0h8.5v6.61h-8.5Zm19,6.61h-8.5V209h8.5Z"/></g></svg>