<svg xmlns="http://www.w3.org/2000/svg" viewBox="0 0 328.09 328.09"><defs><style>.cls-1{fill:#4e8466;}</style></defs><g id="camion"><path class="cls-1" d="M69.8,182.72a4.47,4.47,0,1,0-4.47-4.47A4.47,4.47,0,0,0,69.8,182.72Zm2.47-4.47a2.47,2.47,0,1,1-2.47-2.46A2.47,2.47,0,0,1,72.27,178.25Z"/><path class="cls-1" d="M270.23,248.46H117.9a8.22,8.22,0,1,0-5.4,2H270.23a1,1,0,0,0,0-2Zm-163.91-6.23a6.22,6.22,0,1,1,6.22,6.22A6.23,6.23,0,0,1,106.32,242.23Z"/><path class="cls-1" d="M47.11,234a8.22,8.22,0,1,0,8.22,8.22A8.23,8.23,0,0,0,47.11,234Zm0,14.44a6.22,6.22,0,1,1,6.22-6.22A6.23,6.23,0,0,1,47.11,248.45Z"/><path class="cls-1" d="M300.32,208.13a45.08,45.08,0,0,0-1-8.9l-3.06-14.42a6,6,0,0,0-5.79-4.7H271.33v-74h2.11a1,1,0,0,0,1-1V95.83a1,1,0,0,0-1-1H202a1,1,0,0,0-1,1v9.33a1,1,0,0,0,1,1h2.12v98.6l-1.24.6a10.4,10.4,0,0,0-5.25,5.85h-.37V187.1a13.62,13.62,0,0,0,4.05-9.7,30.68,30.68,0,0,0-4.05-13.64V79a1,1,0,0,0-1-1h-78a1,1,0,0,0-1,1V98.22H83.8a1,1,0,0,0-.88.52L72.47,117.92a1,1,0,0,0,0,1,1,1,0,0,0,.86.49h8V160h-1.6a1,1,0,0,0-1,1v8.66a1,1,0,0,0,1,1h1.6V208.4c-2.33-5.44-2.08-8.15-1.94-8.88a11.55,11.55,0,0,0,.18-1.67C80,184.63,75,183.18,74.27,183a4.34,4.34,0,0,0-3.82.71,4,4,0,0,0-1.51,3v0a12.57,12.57,0,0,1-3.8,1.57v-7.8a1,1,0,0,0-1-1H51.35a1,1,0,0,0-1,1v12a1,1,0,0,0,1,1h9.37a2.74,2.74,0,0,0,1.83.71h.16a24.71,24.71,0,0,0,7.08-1.41c.12.72.25,1.48.41,2.32a7,7,0,0,1-.15,3.24,40.21,40.21,0,0,0-1.37,9.67c-4.5.23-14.48,1.2-20.75,5.37l-7,4.28a7.41,7.41,0,0,1-2.12.87L28.65,221a5.74,5.74,0,0,0-4.35,6.08l1.18,12.83a3.45,3.45,0,0,0,3.46,3.15h6.13a3,3,0,0,0,3-2.46,9.22,9.22,0,0,1,18.15,0,3,3,0,0,0,3,2.46h41.22a3,3,0,0,0,3-2.46,9.21,9.21,0,0,1,18.14,0,3,3,0,0,0,3,2.46h4.9a3.73,3.73,0,0,0,3.73-3.73,14.65,14.65,0,0,0-2.5-8.21h144.7a8.24,8.24,0,1,0-5.36-2H222.61a8.23,8.23,0,1,0-10.71,0H129.13a14.65,14.65,0,0,0-7.13-4.06l-14.29-3.41a36,36,0,0,0-11.29-8.44h99.87l.09,0h.8c0,.18-.07.37-.09.56l-.55,6.27a3.74,3.74,0,0,0,3.73,3.73h4.9a3,3,0,0,0,3-2.46,9.21,9.21,0,0,1,18.14,0,3,3,0,0,0,3,2.46H263a3,3,0,0,0,3-2.46,9.21,9.21,0,0,1,18.14,0,3,3,0,0,0,3,2.46l9.88.09h.1a3.33,3.33,0,0,0,3.32-3.35Zm-31.08,14.79a6.22,6.22,0,1,1,6.22,6.22A6.23,6.23,0,0,1,269.24,222.92Zm-58.21,0a6.22,6.22,0,1,1,6.22,6.22A6.23,6.23,0,0,1,211,222.92Zm-15.74-11.71h-6.62V191a13.63,13.63,0,0,0,6.62-2.28ZM65.14,192l-1,.13c-.56.06-1.1.11-1.55.14a.68.68,0,0,1-.53-.19.78.78,0,0,1-.23-.52h0v-.13a.74.74,0,0,1,.75-.72l.56,0c.34,0,.68,0,1-.09s.68-.1,1-.16a14.82,14.82,0,0,0,4-1.45q.49-.27.93-.54c.34-.21.65-.43.93-.63l0,0a.92.92,0,0,1,.56-.19.89.89,0,0,1,.7.35.87.87,0,0,1-.06,1.14,8.16,8.16,0,0,1-1,.78,7.84,7.84,0,0,1-.93.55,10.15,10.15,0,0,1-.94.45A18.82,18.82,0,0,1,65.14,192Zm-12.79-.44v-10h2.59v1.91a2,2,0,0,0,2,2h1.43a2,2,0,0,0,2-2v-1.91h2.69v7.09l-.62,0a2.73,2.73,0,0,0-2.69,2.72v.13H52.35Zm4.59-10h1.51v1.91s0,0,0,0l-1.47,0ZM72,199a8.93,8.93,0,0,0,.2-4.16c-.18-1.05-.35-2-.5-2.88a9.71,9.71,0,0,0,2-1.48,2.89,2.89,0,0,0,.22-3.8,2.85,2.85,0,0,0-2.44-1.1,1.58,1.58,0,0,1,.22-.23,2.06,2.06,0,0,1,1.33-.43,4.16,4.16,0,0,1,.82.1h0s4.06,1.07,3.65,12.79a8.83,8.83,0,0,1-.15,1.36c-.25,1.3-.31,4.14,1.7,9.17-.61-.07-1.22-.12-1.85-.17a17.59,17.59,0,0,1-1.6-6.85,1,1,0,0,0-.79-1,1,1,0,0,0-1.14.62A26.13,26.13,0,0,0,72.43,208H70.68A38.43,38.43,0,0,1,72,199ZM58,214.53A60.19,60.19,0,0,1,69,212.91h0a.41.41,0,0,1,.42.41v.22l0,9.72H55.13C55,220.66,55.38,215.17,58,214.53Zm16.25-1.38a.44.44,0,0,1,.13-.31.36.36,0,0,1,.3-.11c1.12,0,2.2.12,3.25.23.58.06,1.14.12,1.7.2a42,42,0,0,1,20.08,8.58.86.86,0,0,1,.27.95.85.85,0,0,1-.81.57H74.29Zm.15-5.14c0-.47.07-.91.11-1.33.15.45.31.9.47,1.34Zm36.77,3.2h-18V183.73h18Zm29.81,0h-18V183.73h18Zm13.42-40.57h20.7a28.67,28.67,0,0,0-1,4.88h-2.39a4.85,4.85,0,0,0-9.63,0h-9.25v-4.88Zm32.23,40.57H167.75a2.87,2.87,0,0,0,.2-1.3c-.31-3.72-1.18-10.78-3.47-16.53l.05-1.19a18,18,0,0,0,6,2.38,2.71,2.71,0,0,0,2.14-.42,2.78,2.78,0,0,0,1.17-1.89,2.73,2.73,0,0,0-1.92-3,11.15,11.15,0,0,1-4.86-2.94h10.24a13.61,13.61,0,0,0,9.34,4.71ZM164,176.11a2.88,2.88,0,1,1,5.75,0,2.71,2.71,0,0,1,0,.41,2.65,2.65,0,0,1-.35,1,2.84,2.84,0,0,1-5,0,3,3,0,0,1-.35-1A2.71,2.71,0,0,1,164,176.11Zm-12.49,10.14c.19-.33.38-.64.58-.94s.47-.69.72-1a11,11,0,0,1,10-4.36,1.85,1.85,0,0,1,1.33.9,5,5,0,0,1-.11,3.47l-.08.22a1,1,0,0,0,0,.78s0,0,0,0a9,9,0,0,0,.57,1,12.38,12.38,0,0,0,6.79,4.85.75.75,0,0,1,.52.82.8.8,0,0,1-.33.53.71.71,0,0,1-.56.11c-4.93-1.1-6.57-3.08-6.57-3.09a1,1,0,0,0-1.8.56l-.16,3.41a.91.91,0,0,0,.07.43c2.26,5.53,3.11,12.49,3.42,16.15a.79.79,0,0,1-.21.62.8.8,0,0,1-.59.29.84.84,0,0,1-.88-.79c-.51-7.14-1.95-9.54-2.12-9.79a1,1,0,0,0-.83-.45h-.16a1,1,0,0,0-.81.73c-1.09,4.15-4.08,7.9-5.76,9.76a.78.78,0,0,1-1.1.08.8.8,0,0,1-.12-1.06c7-9.67,5.51-12.53,4.81-13.23-2.76-2.38-1.86-7.66-1.31-9.94.12-.49.22-.85.26-1a.78.78,0,0,0,0-.09,1,1,0,0,0-.15-.91,1.14,1.14,0,0,0-.25-.24,1,1,0,0,0-1.21.09l-.15.15a11.2,11.2,0,0,0-.94,1c-.27.32-.52.65-.77,1s-.59.9-.86,1.35a30.49,30.49,0,0,0-1.42,2.76.79.79,0,0,1-.58.44.86.86,0,0,1-.39,0,.79.79,0,0,1-.47-1,21.2,21.2,0,0,1,.86-2.23C151.06,187.16,151.3,186.69,151.54,186.25Zm9.8,17.67a37.54,37.54,0,0,1,.94,6.42,3.46,3.46,0,0,0,.21.87h-5.88A30.64,30.64,0,0,0,161.34,203.92Zm-8.1-12.68c.27-.6.66-1.41,1.14-2.25-.29,2.89,0,6.52,2.38,8.66.12.33.6,2.53-3.92,9.13V191.86A2.53,2.53,0,0,0,153.24,191.24Zm46.1-13.84A11.68,11.68,0,0,1,188.67,189V182l5.84-7.73a1,1,0,1,0-1.59-1.2l-4.25,5.62v-11a1,1,0,0,0-2,0v3.85l-2.1-3.27a1,1,0,0,0-1.38-.3,1,1,0,0,0-.31,1.38l3.79,5.9V189A11.68,11.68,0,0,1,176,177.4c0-7.06,5.77-19.23,11.67-19.23S199.34,170.34,199.34,177.4ZM119.25,80h76v80.74c-2.14-2.72-4.74-4.58-7.62-4.58-2.6,0-5,1.52-7,3.81H152.84v-6.12h34.29a1,1,0,0,0,1-1v-8.79a1,1,0,0,0-1-1H152.84v-5.93h34.29a1,1,0,0,0,1-1v-8.79a1,1,0,0,0-1-1H152.84V120.8h34a1,1,0,0,0,1-1V111a1,1,0,0,0-1-1h-29.4l-3.44-6.31h32.84a1,1,0,0,0,1-1V93.91a1,1,0,0,0-1-1h-60.3a1,1,0,0,0-1,1v4.31h-6.34Zm-1,20.21h31.62l1.26,2.31,4.88,9h0l3.23,5.91H75l9.36-17.18Zm-35,19.18h67.55V160H143V131.51a1,1,0,0,0-1-1h-20a1,1,0,0,0-1,1V160h-7.85V131.51a1,1,0,0,0-1-1h-20a1,1,0,0,0-1,1V160h-8ZM141,160h-18V132.51h18Zm-29.81,0h-18V132.51h18Zm-30.52,8.66V162h72.75v6.66H80.69Zm70.15,2v13a20,20,0,0,0-2.76,5.61,2.76,2.76,0,0,0,1.68,3.45,2.71,2.71,0,0,0,1.08.16v18.34H143V182.73a1,1,0,0,0-1-1h-20a1,1,0,0,0-1,1v28.48h-7.85V182.73a1,1,0,0,0-1-1h-20a1,1,0,0,0-1,1V211a50.21,50.21,0,0,0-8-2.11V170.64ZM215,164.79c0,3.43-2,6.23-4.43,6.23s-4.42-2.8-4.42-6.23V148.52H215Zm2-16.27h8.84v16.27a8,8,0,0,1-.9,3.76.05.05,0,0,0,0,0,4.17,4.17,0,0,1-3.5,2.43c-2.44,0-4.42-2.8-4.42-6.23Zm19.69,0v16.27c0,3.43-2,6.23-4.42,6.23s-4.43-2.8-4.43-6.23V148.52Zm10.85,0v16.27c0,3.43-2,6.23-4.43,6.23s-4.42-2.8-4.42-6.23V148.52Zm10.85,0v16.27c0,3.43-2,6.23-4.43,6.23s-4.42-2.8-4.42-6.23V148.52Zm10.84,0v16.27c0,3.43-2,6.23-4.42,6.23s-4.42-2.8-4.42-6.23V148.52Zm-49.85,50.56h0l8.38-8.78c.53-.55,5.23-5.37,8.91-5.37a.5.5,0,0,1,.5.5v15.44a.51.51,0,0,1-.49.5l-16.17.29h0a1.53,1.53,0,0,1-1.1-2.58Zm19.45-19a17.65,17.65,0,0,0-12,4.75V169.18h0a5.75,5.75,0,0,0,10.85,0,5.75,5.75,0,0,0,10.85,0,5.75,5.75,0,0,0,10.85,0,6.27,6.27,0,0,0,5.42,3.84,5.81,5.81,0,0,0,4.52-2.39v9.48Zm-35.8-76V96.83h69.41v7.33H203Zm66.3,2v40.36H206.15V106.16Zm-63.18,64.58a5.74,5.74,0,0,0,4.42,2.28,6.28,6.28,0,0,0,5.43-3.84,6.27,6.27,0,0,0,5.42,3.84,5.43,5.43,0,0,0,3.42-1.28v15.15l-11.48,12.19a17,17,0,0,1-5,3.64l-2.23,1.08Z"/><path class="cls-1" d="M218.14,137.26h12.6a1,1,0,0,0,1-1v-15.2a7.3,7.3,0,0,0-14.6,0v15.2A1,1,0,0,0,218.14,137.26Zm6.3-21.49a5.3,5.3,0,0,1,5.3,5.29v14.2h-10.6v-14.2A5.3,5.3,0,0,1,224.44,115.77Z"/><path class="cls-1" d="M245.1,137.26h12.6a1,1,0,0,0,1-1v-15.2a7.3,7.3,0,0,0-14.6,0v15.2A1,1,0,0,0,245.1,137.26Zm6.3-21.49a5.3,5.3,0,0,1,5.3,5.29v14.2H246.1v-14.2A5.3,5.3,0,0,1,251.4,115.77Z"/></g></svg>