<svg fill="none" height="135" viewBox="0 0 342 135" width="342" xmlns="http://www.w3.org/2000/svg" xmlns:xlink="http://www.w3.org/1999/xlink"><linearGradient id="a"><stop offset="0" stop-color="#09005d"/><stop offset="1" stop-color="#1a0f91"/></linearGradient><linearGradient id="b" gradientUnits="userSpaceOnUse" x1="273.651" x2="303.367" xlink:href="#a" y1="96.8096" y2="41.6008"/><linearGradient id="c"><stop offset="0" stop-color="#ff928e"/><stop offset="1" stop-color="#fe7062"/></linearGradient><linearGradient id="d" gradientUnits="userSpaceOnUse" x1="283.431" x2="249.593" xlink:href="#c" y1="92.425" y2="134.892"/><linearGradient id="e" gradientUnits="userSpaceOnUse" x1="265.281" x2="252.61" xlink:href="#a" y1="113.118" y2="134.01"/><linearGradient id="f" gradientUnits="userSpaceOnUse" x1="167.614" x2="197.33" xlink:href="#a" y1="96.8096" y2="41.6008"/><linearGradient id="g" gradientUnits="userSpaceOnUse" x1="177.394" x2="143.556" xlink:href="#c" y1="92.425" y2="134.892"/><linearGradient id="h" gradientUnits="userSpaceOnUse" x1="159.244" x2="146.573" xlink:href="#a" y1="113.118" y2="134.01"/><clipPath id="i"><path d="m282 0h60v111h-60z"/></clipPath><clipPath id="j"><path d="m223 12h53v98h-53z"/></clipPath><clipPath id="k"><path d="m0 53h72v78h-72z"/></clipPath><clipPath id="l"><path d="m0 0h195v120h-195z" transform="matrix(-1 0 0 1 302 15)"/></clipPath><clipPath id="m"><path d="m0 0h69v79h-69z" transform="matrix(-1 0 0 1 128 54)"/></clipPath><g clip-path="url(#i)"><path d="m339.653 2.14521c-.026-1.177234-1.155-2.14521-2.54-2.14521h-52.332c-1.403 0-2.781 1.01928-2.781 2.21203v106.62797c0 .574.389 1.124.867 1.53.478.405 1.186.631 1.861.63l54.717-.127c.681-.001 1.347-.235 1.823-.649.477-.414.745-.986.732-1.565z" fill="#91b3fa"/><g fill="#bdd0fb"><path d="m301.113 12.5647-14.908-.0169-.118-6.49702h14.923z"/><path d="m317.824 12.5613-14.893-.0168-.102-6.49372h14.907z"/><path d="m334.518 12.558-14.878-.0169-.086-6.49032h14.892z"/><path d="m301.3 24.227-14.883.0081-.117-6.4552 14.896-.0048z"/><path d="m317.981 24.2175-14.867.0081-.102-6.4512 14.882-.0054z"/><path d="m334.646 24.2087-14.852.0081-.086-6.4485 14.867-.0054z"/><path d="m301.486 35.8089-14.857.0129-.118-6.4323 14.871-.0101z"/><path d="m318.138 35.7941-14.842.0128-.101-6.4289 14.856-.0101z"/><path d="m334.774 35.7792-14.827.0128-.085-6.4255 14.841-.0108z"/><path d="m301.671 47.3504-14.831.0189-.117-6.4099 14.845-.0156z"/><path d="m318.294 47.3302-14.816.0182-.101-6.4066 14.83-.0155z"/><path d="m334.901 47.3092-14.801.0189-.085-6.4039 14.815-.0155z"/><path d="m301.855 58.8528-14.805.0236-.116-6.3877 14.819-.0209z"/><path d="m318.45 58.8264-14.791.0237-.1-6.385 14.804-.0203z"/><path d="m335.028 58.8001-14.776.0236-.084-6.3816 14.789-.021z"/><path d="m302.038 70.3153-14.779.0284-.116-6.3661 14.794-.0257z"/><path d="m318.604 70.2829-14.764.0291-.1-6.3628 14.779-.0256z"/><path d="m335.154 70.2512-14.75.0283-.084-6.3593 14.764-.0257z"/><path d="m302.222 81.7379-14.754.0337-.116-6.3438 14.768-.0311z"/><path d="m318.759 81.7001-14.739.0337-.1-6.3404 14.753-.0311z"/><path d="m335.28 81.6629-14.724.0331-.084-6.3377 14.738-.0304z"/><path d="m302.405 93.1213-14.729.0385-.115-6.3216 14.742-.0364z"/><path d="m318.913 93.0781-14.713.0385-.1-6.3189 14.727-.0357z"/><path d="m335.406 93.0349-14.7.0385-.083-6.3155 14.713-.0357z"/><path d="m302.586 104.466-14.703.044-.115-6.301 14.717-.0405z"/><path d="m319.067 104.417-14.689.044-.099-6.2979 14.703-.0405z"/><path d="m335.531 104.369-14.674.043-.084-6.2941 14.688-.0405z"/></g></g><g clip-path="url(#j)"><path d="m273.927 13.894c-.023-1.0394-1.02-1.894-2.244-1.894h-46.226c-1.24 0-2.457.8999-2.457 1.953v94.14c0 .507.344.992.766 1.35s1.047.558 1.644.557l48.333-.112c.601-.001 1.19-.208 1.611-.573.42-.366.657-.87.646-1.382z" fill="#91b3fa"/><g fill="#bdd0fb"><path d="m239.883 23.0933-13.168-.0149-.105-5.7361h13.182z"/><path d="m254.645 23.0903-13.156-.0149-.09-5.7331h13.168z"/><path d="m269.391 23.0874-13.143-.0149-.076-5.7302h13.155z"/><path d="m240.048 33.3901-13.146.0071-.104-5.6992 13.159-.0042z"/><path d="m254.784 33.3815-13.133.0071-.091-5.6956 13.147-.0048z"/><path d="m269.504 33.3737-13.12.0072-.076-5.6933 13.133-.0047z"/><path d="m240.212 43.6155-13.123.0113-.104-5.6789 13.136-.0089z"/><path d="m254.922 43.6023-13.11.0113-.09-5.6759 13.123-.009z"/><path d="m269.617 43.5891-13.097.0114-.076-5.673 13.11-.0095z"/><path d="m240.376 53.805-13.101.0166-.103-5.6592 13.113-.0137z"/><path d="m255.06 53.7872-13.088.0161-.089-5.6563 13.1-.0137z"/><path d="m269.729 53.7686-13.074.0167-.075-5.6539 13.087-.0137z"/><path d="m240.539 63.9602-13.078.0209-.103-5.6396 13.09-.0185z"/><path d="m255.197 63.9372-13.065.0209-.088-5.6372 13.077-.0179z"/><path d="m269.841 63.9138-13.052.0209-.074-5.6342 13.064-.0185z"/><path d="m240.7 74.0801-13.054.025-.103-5.6205 13.068-.0227z"/><path d="m255.334 74.0516-13.042.0256-.089-5.6175 13.055-.0227z"/><path d="m269.953 74.0236-13.029.025-.075-5.6146 13.042-.0226z"/><path d="m240.863 84.1651-13.033.0298-.103-5.6008 13.046-.0274z"/><path d="m255.471 84.1319-13.02.0298-.088-5.5979 13.032-.0274z"/><path d="m270.064 84.099-13.007.0292-.074-5.5955 13.019-.0268z"/><path d="m241.024 94.2154-13.01.0339-.102-5.5811 13.022-.0322z"/><path d="m255.607 94.1773-12.997.0339-.089-5.5788 13.01-.0316z"/><path d="m270.175 94.1391-12.984.034-.074-5.5758 12.997-.0316z"/><path d="m241.184 104.232-12.988.038-.101-5.5626 13-.0358z"/><path d="m255.742 104.188-12.975.039-.088-5.5601 12.988-.0358z"/><path d="m270.285 104.145-12.961.039-.074-5.5572 12.974-.0357z"/></g></g><g clip-path="url(#k)"><path d="m29.7541 82.9047c-3.1837-1.2594-4.3564-5.6906-5.0157-11.4197-.1354-1.1673-.8891-3.5608-1.8371-3.8808-1.2903.2765-2.8642 2.0172-2.716 3.6428.1431 1.582.3194 3.3867.4471 4.298.6873 4.8587 2.7263 9.6816 6.3469 11.046 1.6352.6169 5.7898.7424 5.7898.7424l.2325-3.8988s-2.854-.3763-3.245-.5299z" fill="#3a7159"/><path d="m32.9787 83.6497c1.6557 0 5.8588.8294 5.7515 3.9755-.1073 3.1435-2.4759-.489-3.2271-1.1801-1.8269-.0743-2.8412.5068-2.8412.5068l.3168-3.2997z" fill="#ebb78d"/><path d="m11.2423 129.915c-.0945-.244-.3833-.64-.7461-.894-.6822-.476-2.51165-1.277-2.90768-1.469l-1.21367-1.797-4.06516-2.391s-1.584157 2.027-2.2152656 3.305c-.1916321.389-.0664325.768.2427336 1.07 1.009262.988 2.907692 1.856 4.001282 2.426.98626.515 2.06196.735 3.17087.794.603.031 1.91121.072 2.98439 0 .5391-.036.9479-.543.7486-1.047z" fill="#192225"/><path d="m23.1746 87.2999c-.6388-.3148-11.2629-1.39-12.2926-1.39-2.26122 1.3977-.5391 19.4961-.5391 19.4961s-3.25262 5.716-5.85882 11.648c-.45225 1.031-2.35069 3.632-2.70329 4.49-.11242.271-.2504.824-.34494 1.072-.09453.251-.25806.517-.40626.825-.370485.768-.24273 1.361-.196739 1.74.909609 1.006 5.552219 2.186 7.006069 2.296.39348-.258.66688-.616 1.10891-1.146.2274-.274.5008-.62.73587-.95.19418-.271.6873-.822.8841-1.126.2759-.428.4497-1.577.7282-2.056 3.1606-5.424 6.099-12.817 6.099-12.817s6.1475-19.4198 5.7821-22.0769z" fill="#214032"/><path d="m4.13906 117.706c-.28106.482-.65921 1.065-1.03481 1.644.73842.473 1.65314 1.047 2.65985 1.646 1.56883.934 3.35995 1.927 5.0335 2.693.161-.512.3015-1.162.4957-1.493.0639-.107.1252-.22.1891-.33-2.56531-1.18-5.53178-2.998-7.34334-4.16z" fill="#c5da69"/><path d="m23.2411 125.635-4.4357.652.2198 3.983c.0357.433.4267.707.8585.684 4.0242-.223 7.2794-.607 9.8601-1.449.5136-.169.8278-.658.5902-1.144-.115-.233-.3398-.625-.6745-.794-1.4692-.745-6.421-1.93-6.421-1.93z" fill="#192225"/><path d="m20.0907 94.1862 1.1524-6.3511s-10.0058-2.1657-12.47655-.023c-.50336 4.6052 3.25775 20.6839 6.48995 31.1229.3577 1.152.7077 2.238 1.045 3.231.2504.735.7742.98.7282 2.045-.0281.648.6541.653.6516 1.644-.0051 1.024.8431 1.51 1.0399 2.429.0307.143.1533.251.2989.259 1.9956.102 5.3095-1.685 6.2549-2.228.1073-.061.1559-.184.1303-.304-.1047-.456.2351-1.257-.6643-2.645-.2146-.33-.3015-.911-.4676-1.226-.5033-.949-.3449-1.84-.5519-2.885-.1482-.755-.3015-1.551-.4727-2.373-2.1309-10.319-3.1606-22.6907-3.1606-22.6907z" fill="#2c5543"/><path d="m24.0563 121.618c-.2019-.64-.1815-1.267-.2683-1.958-2.4683.852-5.5522 1.546-7.6628 1.971.0614.179.1201.361.1789.535.1763.517.488.793.6388 1.28.6541-.136 1.3797-.292 2.1437-.469 1.602-.371 3.3651-.832 4.9697-1.359z" fill="#c5da69"/><path d="m20.091 94.1862 1.1523-6.3511s-10.0057-2.1657-12.47649-.023c-.16353 1.5052.12775 4.2366.7052 7.5952 4.12649.1689 7.85949.1203 10.68289-.471-.0435-.4839-.0665-.7501-.0665-.7501z" fill="#214032"/><path d="m23.19 67.7577c-.4139-.3584-1.8754-1.0547-3.7917-1.536-.9505-.238-1.6123-1.1007-1.6123-2.0837 0 0 .092-.4659 0-.768-1.4436-.1613-3.4673 0-4.7371 0-.0818.343 0 .7398 0 .7398 0 .9907-.6746 1.856-1.6353 2.0889-1.91121.4608-3.43149 1.1443-4.08304 1.5974-2.4861 5.7981.98883 24.3855.98883 26.2517 6.75051.3584 11.87351.3814 14.87321-1.4643.4446-4.7306 1.556-22.9981 0-24.8258z" fill="#2c5543"/><path d="m23.1389 67.4864c-.672-.5837-3.2041-1.5053-4.6145-1.7203 2.7544 4.6513 2.5423 24.4291 2.4325 29.705.5186.0896 1.3235.0231 2.4375-.3711.4446-4.7307 1.298-25.7884-.2555-27.6162z" fill="#c5da69"/><path d="m21.565 95.4737c.1073-5.2273.3168-24.68-2.3558-29.5694-.2453-.0588-.4778-.1075-.6848-.1382 2.7544 4.6513 2.5423 24.4291 2.4325 29.705.2069.0359.4624.0436.7639.0205-.0536-.0051-.1073-.0102-.1558-.0205z" fill="#fff"/><path d="m23.8416 87.0517c-1.1268-.0128-2.1207-.0461-2.8489-.0768.0076.6681.0128 1.3183.0153 1.9455.7282.0307 1.6787.0614 2.7544.0742.0281-.6246.0537-1.2748.0792-1.9404z" fill="#fff"/><path d="m12.3462 65.7021c-2.47335.4455-5.12299 1.9123-6.08881 2.7417-2.48611 5.7982 1.42574 25.6629 1.42574 27.5291 2.85657.151 4.39727.1101 6.63307.0256 0 0 .8942-22.1764-1.9675-30.2964z" fill="#c5da69"/><path d="m12.3463 65.7021c-.2326.041-.4676.0948-.7001.1536 2.8003 8.2378 1.9163 30.1428 1.9163 30.1428-1.0118.0384-1.8831.0666-2.7979.0742 1.2086.0077 2.2639-.0256 3.5491-.0742 0 0 .8943-22.1764-1.9674-30.2964z" fill="#fff"/><path d="m6.44653 87.0031c.08943.6707.17886 1.3235.26573 1.9532.81508.0256 1.78346.0461 2.82338.0461 1.56626 0 3.29606-.0461 4.91086-.1818 0-.6246 0-1.2748-.0025-1.948-2.7263.2483-5.96361.2022-7.99747.1331z" fill="#fff"/><path d="m38.7454 86.4451h-11.3982v2.7877h11.1453c.0715.0205.1482.0307.2248.0307.5928 0 1.0757-.6323 1.0757-1.4105s-.465-1.3875-1.045-1.4079z" fill="#060809"/><path d="m63.7366 125.084c-.7077-2.468-2.9588-3.986-5.0259-3.389-.8891.256-1.5994.863-2.0645 1.666-.6157 1.065-.7997 2.473-.396 3.879.7077 2.467 2.9588 3.985 5.0259 3.389.6745-.195 1.2468-.591 1.6863-1.121.9071-1.096 1.252-2.762.7742-4.424z" fill="#060809"/><path d="m63.0647 125.279c-.7077-2.468-2.9588-3.986-5.0258-3.39-.8892.256-1.5995.863-2.0645 1.667-.6158 1.065-.7998 2.473-.3961 3.878.7078 2.468 2.9588 3.986 5.0259 3.389.6745-.194 1.2469-.591 1.6863-1.121.9071-1.095 1.252-2.762.7742-4.423z" fill="#192225"/><path d="m51.9295 125.084c-.7078-2.468-2.9588-3.986-5.0259-3.389-.8892.256-1.5995.863-2.0645 1.666-.6158 1.065-.7997 2.473-.396 3.879.7077 2.467 2.9588 3.985 5.0258 3.389.6746-.195 1.2469-.591 1.6864-1.121.907-1.096 1.252-2.762.7742-4.424z" fill="#060809"/><path d="m51.2576 125.279c-.7078-2.468-2.9588-3.986-5.0259-3.39-.8891.256-1.5994.863-2.0645 1.667-.6158 1.065-.7997 2.473-.396 3.878.7077 2.468 2.9588 3.986 5.0259 3.389.6745-.194 1.2468-.591 1.6863-1.121.9071-1.095 1.252-2.762.7742-4.423z" fill="#192225"/><path d="m62.0657 123.668-9.6455-37.8604-.5954-2.373-17.929 5.1658 10.1718 33.5166c.1839.563.7767.783 1.1523.435.4165-.384.9224-.665 1.4948-.801 1.9239-.461 4.014.909 4.7856 3.136.4216 1.218.391 2.457.0128 3.489-.1635.448.2121.965.6235.845l8.4701-2.44c1.1677-.335 1.8116-1.71 1.459-3.115z" fill="#546c6b"/><path d="m61.6747 83.4346.2172-.0615c.2044-.0589.3117-.3046.2427-.5478l-.3194-1.1135c-.0689-.2432-.2912-.3943-.4956-.3354l-.184.0538c-.023-.0589-.0664-.1101-.1329-.1383-1.0808-.4582-2.2306-.6502-3.3574-.5683l-.0204-.0204h-9.7094l.0179.0102c1.0859-.0589 2.1897.1357 3.2297.576.0664.0281.1098.0793.1328.1382l.184-.0538c.2044-.0588.4267.0922.4957.3354l.3194 1.1135c.0689.2432-.0384.489-.2428.5479l-.2172.0614h-.0102l9.8397.0026z" fill="#2f3d3c"/><path d="m71.9054 123.668-10.2408-40.2334h-9.8396l.6617 2.6443 9.5791 37.5891c.3526 1.406-.2913 2.78-1.459 3.116l-8.4701 2.439s5.5496.006 8.6004 0c.8202 0 1.6353-.115 2.4248-.343l7.2846-2.099c1.1677-.335 1.8115-1.71 1.4589-3.115z" fill="#3f5150"/><path d="m51.8351 83.4348.2172-.0615c.2044-.0588.3117-.3046.2427-.5478l-.3194-1.1135c-.069-.2432-.2913-.3943-.4957-.3354l-.1839.0538c-.023-.0589-.0665-.1101-.1329-.1382-1.0425-.4429-2.1437-.6349-3.2296-.576-.5238.0281-1.0425.1152-1.5484.2611l-9.183 2.6444c-1.5612.4505-2.9205 1.4361-3.8812 2.8107-.0409.0589-.0486.1255-.0384.1895l-.1839.0537c-.2044.0589-.3117.3046-.2428.5478l.3194 1.1136c.069.2432.2913.3942.4957.3353l.2172-.0614h.0102l9.7656-2.8159 8.1635-2.3525h.0102z" fill="#3f5150"/><path d="m20.8188 82.9048c-5.1459-1.2595-8.12-5.9851-9.1012-11.7192-.0281-.1664-.0588-.3917-.0869-.6528-.1839-1.6511-1.0169-3.3279-3.44935-3.0079-2.08496.2765-3.07378 2.094-2.83615 3.7221.23251 1.582.51612 3.3867.72309 4.2981 1.10891 4.8587 4.40751 9.6815 10.26121 11.0459 2.6446.617 9.3619.7424 9.3619.7424l.3756-3.8987s-4.6119-.3763-5.2456-.5299z" fill="#3a7159"/><path d="m26.0441 83.6497c1.6557 0 5.8589.8294 5.7515 3.9755-.1073 3.1435-2.4758-.489-3.227-1.1801-1.8269-.0743-2.8413.5068-2.8413.5068l.3168-3.2997z" fill="#ebb78d"/><path d="m37.4627 88.8743c-.1533-.5325-.649-.8576-1.1089-.7245l-3.9374 1.1341c-.5621.1613-1.1754.0512-1.7017-.3046l-2.2536-1.5283c-.2325-.7168-.9096-1.1494-1.5407-.9676-.6439.1868-.994.942-.7793 1.692.2146.7475.9121 1.2032 1.556 1.0189.0077 0 .0153-.0051.023-.0077l2.8387 1.925c.5238.3559 1.1396.466 1.7017.3047l4.6426-1.3389c.4599-.1331.7078-.6706.5545-1.2031z" fill="#192225"/><path d="m14.6841 61.5166h-1.9802v1.8713h1.9802z" fill="#ffdaad"/><path d="m16.0049 53.8625c-2.3583 0-4.2695 1.408-4.2695 4.1548 0 2.7467 1.441 5.0174 4.2695 6.0106 2.2255.7808 4.2696-.5094 4.2696-6.0106 0-2.7468-1.9112-4.1548-4.2696-4.1548z" fill="#ffdaad"/><path d="m15.1005 53.1714c-1.3261.3456-3.7407-.3174-4.801 3.7093-.54426 2.0684-.1354 3.9039 2.1565 6.2692.3424.3533.7818 1.1315.8253-.3917.0127-.4275.0153-.9164-.207-1.646-.4497.0896-.6899-.7065-.7793-1.111-.2197-.9958.3628-1.6076.833-1.1775 0 0 .0025.0025.0051.0051.2478.2278.3935.5453.4165.8832.0306.4838.0689 1.0879.1149 1.6946.1942 2.5138 1.6864 4.1599 3.1147 4.3237 1.694.192 3.0942-1.495 3.1479-4.3595-.0511.1049-.0946.2688-.1457.4428-.2069.7219-.7461.6195-.8534.384-.1098-.238-.4037-.4915-1.2826-.4915-.879 0-1.2495.3303-1.482.535-.6975.6093-1.6736-.5247-1.9316-1.0879-.3782-.8192-.3015-1.7817-.3475-2.2041.0204-.1485.0332-.3507.0383-.6195 0-.0077 0-.0153 0-.0205.0204-.8831.8764-1.5103 1.7272-1.2722 1.3619.3814 3.3472 1.3439 4.8828.2278 1.2086-.878-1.298-5.1659-5.4244-4.0907z" fill="#3a1903"/><path d="m17.9443 61.3197c.0537-.0179.1048-.0358.161-.0589l.046-.0204c.023-.0128.0511-.0308.0715-.0615.0256-.0333.0434-.0717.0511-.1049.0179-.0743.0077-.1152.0051-.1485-.0051-.0307-.0128-.0589-.0179-.0768-.0536-.1562-.0996-.2509-.1482-.3635-.0919-.2176-.166-.4352-.2095-.6656-.0434-.2304-.0562-.471-.0434-.7168 0-.0409-.0153-.0768-.0486-.0921-.0383-.0179-.0817.0051-.0971.0537-.0792.2535-.1073.5325-.0868.809.0204.2764.0894.5452.1814.7884.0306.0819.0664.169.0945.2407-.0204.0076-.0383.0153-.0562.023-.1942.0819-.3935.1715-.5826.3021-.023.0153-.0383.0435-.0383.0768 0 .0512.0307.0947.0741.0972.2198.0103.4318-.0256.6413-.0844z" fill="#f2af6a"/><path d="m18.5882 59.0259c.1507-.0461.3117-.064.4701-.0589.1584-.0026.3168.0179.4676.0666.1507.0486.2938.1228.419.2201.0307.0256.0818.0256.1125 0 .023-.0179.0281-.0461.0153-.0691-.0843-.1434-.23-.2662-.4088-.3558-.1789-.0871-.391-.1408-.6056-.1459-.2146 0-.4292.0512-.6081.1356-.1789.0845-.0153.2509.138.2048z" fill="#3a1903"/><path d="m14.9497 59.2334c.0307.0256.0792.0256.1124 0 .1278-.0948.2709-.1664.4242-.2125.1507-.0461.3117-.064.4701-.0589.1584-.0026.3169.0179.4676.0666.1508.0486.3194-.1152.1405-.2023-.1788-.087-.3909-.1408-.6055-.1459-.2146 0-.4293.0512-.6081.1357-.1789.0845-.3271.2073-.414.3481-.0127.0231-.0102.0487.0154.0692z" fill="#3a1903"/><path d="m19.3727 60.0934c-.3782.0845-.8049-.0205-1.0834-.1485.0434-.064.1967-.2841.1967-.2841l.6133-.0871.2504.1485z" fill="#fff"/><path d="m18.2279 59.8656c.0639-.1306.1686-.2458.2989-.3251.1303-.0794.2836-.1255.4369-.128.1559-.0026.3118.0358.4497.11.115.064.2223.146.2913.256.0358.0589.092.21.046.2253-.046.0154-.4267.1126-.5442.1152-.1635 0-.23-.1254-.2019-.2867.0102-.0538.0332-.1024.0665-.1434-.0358-.0076-.0741-.0128-.1099-.0128-.1124-.0051-.2274.0128-.3373.0564-.1098.0435-.2121.11-.304.1971-.0154.0179-.0409.0205-.0639.0102-.0281-.0128-.0409-.0486-.0256-.0768z" fill="#220308"/><path d="m16.3832 60.1089c-.3782.0845-.8049-.0205-1.0834-.1485.0434-.064.1967-.2816.1967-.2816l.6133-.087.2504.1485.023.3712z" fill="#fff"/><path d="m15.2359 59.8785c.0639-.1305.1687-.2457.299-.3251.1303-.0793.2836-.1254.4369-.128.1559-.0025.3117.0359.4497.1101.115.064.2223.1459.2913.256.0358.0589.092.2099.046.2252-.046.0154-.4267.1127-.5443.1152-.1635 0-.2299-.1254-.2018-.2867.0102-.0537.0332-.1024.0664-.1433-.0358-.0077-.0741-.0128-.1099-.0128-.1124-.0051-.2274.0128-.3372.0563-.1099.0435-.2121.1101-.3041.1971-.0153.0179-.0409.0205-.0639.0103-.0281-.0128-.0408-.0487-.0255-.0768z" fill="#220308"/></g><g clip-path="url(#l)"><path d="m241.298 87.96h4.784v22.851h-4.784z" fill="#dd5650"/><path d="m246.993 56.9724c.028-.5186.465-.9193.987-.9005 5.047.2075 29.007 1.3106 33.932 3.6867 3.768 1.8197 7.903 8.6132 10.817 13.1908 2.086 3.2812 6.701 10.565 7.636 14.2846.789 3.154 1.264 9.6975 1.212 12.946l-1.316 17.188h-21.719l-2.175-5.676c-1.419-3.705-4.962-6.147-8.919-6.147h-21.578v-28.5271l1.123-20.0502z" fill="#e9615b"/><path d="m284.487 61.6631c2.988 2.8616 5.982 7.741 8.242 11.2909 1.931 3.0361 6.029 9.5042 7.368 13.403.023.0708.047.1415.07.2122-.662-.1839-1.677-.561-1.992-1.188-.475-.9523-1.086-4.2194-8.632-16.5475-2.298-3.7574-4.539-5.9543-5.052-7.1659z" fill="#0a015e"/><path d="m258.144 60.3903c5.55.3159 17.588 1.1315 21.432 2.4562 5.009 1.7255 10.634 15.0248 10.897 15.6093l3.792 9.7305c.09.2735-.112.561-.404.561h-9.792c-.372 0-.738-.066-1.086-.198l-25.76-9.6314c-1.165-.4338-1.936-1.5511-1.936-2.8004v-13.0164c0-1.5605 1.306-2.8004 2.857-2.7108z" fill="#0a015e"/><path d="m293.175 87.7855s-3.632-8.17-4.854-10.8431c-1.842-4.0402-6.151-12.3234-9.055-13.1955-2.674-.8062-10.361-1.7868-21.178-2.4044-.033 0-.071 0-.104 0-.963 0-1.748.7873-1.748 1.7585v13.3134c0 .6695.418 1.2729 1.043 1.5086l19.032 2.3572c1.541.1933 2.927 1.0513 3.778 2.3572l3.298 5.0444c.193.0707.4.1084.606.1084h9.182z" fill="#4143e3"/><path d="m302 101.853c.023-.311-.08-.565-.24-.579l-3.472-.321c-.292-.028-.55.514-.588 1.155l-.155 2.673c-.023.429.104.792.296.825l3.539.613c.159.028.31-.208.333-.523z" fill="#ebebeb"/><path d="m277.006 114.328h24.994v10.055h-24.994z" fill="#dd5650"/><g fill="#0a015e"><path d="m288.138 69.1025h-.437c-1.443 0-2.618 1.1739-2.618 2.626v8.401c0 1.4473 1.17 2.6259 2.618 2.6259h.437c1.442 0 2.617-1.1739 2.617-2.6259v-8.401c0-1.4474-1.17-2.626-2.617-2.626z"/><path d="m293.1 91.1941h.287v-14.4307c0-1.4332-1.161-2.5976-2.59-2.5976h-.681v.2875h.681c1.269 0 2.303 1.0372 2.303 2.3101z"/><path d="m291.155 91.2083.794-13.4972c.028-.4715-.136-.9241-.461-1.2682-.324-.3442-.761-.5327-1.231-.5327v.2875c.39 0 .757.1556 1.025.4432.267.2876.404.66.38 1.0513l-.794 13.4973z"/><path d="m290.257 89.8931h3.849v4.4692h-3.849z"/><path d="m291.676 81.4119h1.565v.2875h-1.565z"/></g><path d="m256.42 92.4056s-.08-.0047-.221-.033c-.141-.0236-.357-.0802-.588-.2357-.225-.1509-.474-.4102-.597-.7779-.065-.1839-.084-.3913-.075-.6176.005-.2216.061-.4526.174-.6647.221-.429.71-.7873 1.288-.7873.592 0 1.221 0 1.884.0047 1.33 0 2.787 0 4.314.0047.366 0 .723.1414.982.3866.263.2404.427.5751.465.9146.033.3536-.009.6977-.179.99-.159.2923-.422.5139-.714.6364-.296.132-.611.1132-.93.1132-.315 0-.62 0-.917 0-.587 0-1.137.0047-1.639.0094-.992.0095-1.8.0189-2.378.0236-.268.0047-.484.0094-.644.0141-.146.0047-.225.0095-.225.0142s.079.0094.225.0141c.16 0 .376.0095.644.0142.578.0047 1.381.0141 2.378.0235.502 0 1.052.0047 1.639.0095h.917c.16 0 .31.0047.484 0 .169-.0142.338-.0472.498-.1132.319-.132.606-.3724.785-.693.183-.3159.235-.7072.197-1.0749-.038-.3771-.221-.7449-.512-1.0089-.287-.264-.682-.4243-1.081-.4243-1.532 0-2.989 0-4.314.0048-.662 0-1.292.0047-1.884.0094-.625.0047-1.142.4007-1.377.858-.117.231-.174.4809-.174.7119-.004.2263.019.4526.094.6459.137.3912.404.6505.644.8014.244.1509.465.198.616.2169.15.0188.225 0 .225 0z" fill="#263238"/><path d="m277.341 124.254 2.468-.241c-.647-11.997-.972-10.237-2.273-13.004-2.504-5.318-4.988-6.277-7.748-6.919-2.565-.593-5.151-.448-7.656-.31l-.612.034c-5.167.269-15.985.028-16.092.028l-.041 3.352c.107 0 10.997.249 16.23-.027l.617-.035c2.377-.131 4.831-.262 7.136.269 2.464.566 4.101 1.215 6.075 5.416.597 1.269.495 2.034 1.394 11.437z" fill="#dd5650"/><path d="m289.548 76.2353s.042-.0896.089-.2499c.047-.165.108-.4054.178-.7024.137-.5941.31-1.4332.301-2.3761-.005-.9429-.249-1.7868-.545-2.3289-.146-.2734-.291-.4762-.404-.6082s-.183-.1933-.188-.1885c-.024.0188.24.297.498.8438.263.5422.484 1.3625.489 2.2865.004.924-.146 1.7538-.254 2.3525-.113.5987-.183.9712-.164.9759z" fill="#fafafa"/><path d="m301.154 96.526s.014-.1131.014-.3206c0-.2074-.004-.5044-.019-.8721-.023-.7355-.075-1.7491-.164-2.8664s-.193-2.1309-.287-2.8569c-.047-.363-.084-.66-.117-.8627-.033-.2028-.057-.3159-.066-.3159s-.005.1131.009.3206c.019.2357.043.528.071.8674.066.7685.15 1.7585.244 2.8617.08 1.0984.151 2.0931.207 2.8616.024.3394.047.6317.066.8674.019.2028.033.3159.042.3159z" fill="#fafafa"/><path d="m243.427 104.418v16.859h-11.63l-4.662-8.067h-84.916v-8.792z" fill="#dd5650"/><path d="m148.427 105.578h85.512l9.751-61.5655h-100.728z" fill="#e9615b"/><path d="m164.102 110.132h-42.92v-42.8682l19.712-23.2513h58.639z" fill="#e9615b"/><path d="m139.917 107.727 5.681.081 17.706-59.6657-6.391.0236z" fill="#ff827a"/><path d="m173.51 105.714 5.662.132 16.997-57.7038-6.368-.0377z" fill="#ff827a"/><path d="m207.23 105.714 5.662.132 16.997-57.7038-6.367-.0377z" fill="#ff827a"/><path d="m260.664 133.137c6.948 0 12.58-5.597 12.58-12.501 0-6.905-5.632-12.502-12.58-12.502s-12.581 5.597-12.581 12.502c0 6.904 5.633 12.501 12.581 12.501z" fill="url(#b)"/><path d="m261.654 130.751c5.615-.552 9.717-5.522 9.161-11.102-.555-5.58-5.558-9.656-11.173-9.104s-9.717 5.523-9.161 11.103c.555 5.58 5.557 9.655 11.173 9.103z" fill="url(#d)"/><path d="m269.245 124.4c-.035 0-.07-.007-.104-.021-.135-.057-.199-.213-.141-.349.457-1.074.69-2.217.69-3.395 0-4.81-3.939-8.724-8.779-8.724-1.502 0-2.984.384-4.286 1.108-.128.072-.291.027-.363-.101s-.026-.29.102-.361c1.381-.769 2.954-1.176 4.547-1.176 5.135 0 9.313 4.151 9.313 9.254 0 1.249-.247 2.461-.732 3.602-.044.101-.142.162-.246.162z" fill="#fff" opacity=".7"/><path d="m264.993 122.417c.99-2.376-.145-5.099-2.536-6.083s-5.132.144-6.122 2.52c-.99 2.375.145 5.099 2.536 6.083s5.132-.144 6.122-2.52z" fill="url(#e)"/><path d="m154.627 133.137c6.948 0 12.58-5.597 12.58-12.501 0-6.905-5.632-12.502-12.58-12.502s-12.581 5.597-12.581 12.502c0 6.904 5.633 12.501 12.581 12.501z" fill="url(#f)"/><path d="m155.617 130.751c5.615-.552 9.717-5.522 9.161-11.102-.555-5.58-5.558-9.656-11.173-9.104s-9.717 5.523-9.161 11.103c.555 5.58 5.558 9.655 11.173 9.103z" fill="url(#g)"/><path d="m163.208 124.4c-.035 0-.07-.007-.104-.021-.135-.057-.199-.213-.141-.349.457-1.074.69-2.217.69-3.395 0-4.81-3.939-8.724-8.779-8.724-1.502 0-2.984.384-4.285 1.108-.129.072-.292.027-.364-.101s-.026-.29.103-.361c1.381-.769 2.953-1.176 4.546-1.176 5.136 0 9.313 4.151 9.313 9.254 0 1.249-.247 2.461-.732 3.602-.044.101-.142.162-.246.162z" fill="#fff" opacity=".7"/><path d="m158.956 122.417c.991-2.376-.145-5.099-2.536-6.083s-5.132.144-6.122 2.52c-.99 2.375.145 5.099 2.536 6.083s5.132-.144 6.122-2.52z" fill="url(#h)"/><rect fill="#0a015e" height="3.58209" rx="1.79104" width="9.88479" x="254.373" y="89.3284"/></g><g clip-path="url(#m)"><path d="m98.5562 69.1014c1.2781-.8176 2.9128-.4075 3.8108.8099.998 1.3549 3.054 4.7629 3.908 6.1957.186.3089.628.3348.846.0467l5.165-6.7486.188.1843 2.378 2.3335.142.1401s-3.497 7.5532-5.773 10.1307c-1.294 1.4639-3.921 1.3938-5.408 0-2.033-1.9052-6.0765-9.3157-6.0765-9.3157-.8251-1.2666-.461-2.959.8171-3.7766z" fill="#3a7159"/><path d="m112.435 69.5063 1.304-2.0791 1.197 2.1492 3.174 1.9831-3.258.3659-2.378-2.3334z" fill="#ebb78d"/><path d="m119.1 69.6232c.22 5.2821 4.395 8.9289 7.494 16.3601 2.975 7.138 1.639 12.3032-8.028 13.9281-9.667 1.6246-14.347-6.6007-11.254-13.3466 3.926-8.563 7.181-13.6971 7.111-16.0279-.071-2.3309-.372-3.9739-1.31-5.5884 3.787-1.6145 7.184-.5321 7.184-.5321z" fill="#2c2d5b"/><path d="m115.868 80.582c.723-2.3049 1.257-3.7844 1.637-4.8045.32-.8617 1.498-.9785 1.986-.1973 2.262 3.6105 6.799 10.1307 7.042 14.5848.309 5.6636-4.806 8.1865-8.965 6.2139-4.159-1.9753-3.339-10.5694-1.7-15.7943z" fill="#2c2d5b" opacity=".5"/><path d="m118.823 69.6155c-.267.0389-.548-.1583-.542-.4361.041-.2933.366-.4568.626-.5191.031-.0078.062-.0156.094-.0259-.233.0674-.469-.0909-.456-.3349.042-.2777.299-.4828.553-.5658.175-.0571.296-.1012.471-.1609l.094-.3946c.341.1454.49.4491.503.5607v.0052c.013.0441.019.0934.011.1453 0 .0104 0 .0156-.003.026-.016.1375-.086.2621-.188.3608.151.1557.251.3244.259.3919 0 0 0 .0026-.003.0052.026.0649.042.135.029.2102-.005.0545-.008.0831-.013.1376-.016.2492-.236.4179-.466.4724.112.1272.167.2622.175.3322 0 .0052-.002.0078-.005.013.01.0441.021.0857.013.135v.026c-.013.2362-.228.3971-.45.4308.07.0883.11.1661.123.2232.002.0078.005.0156.008.0234v.0026c.018.0441.031.0908.031.1454v.0233c.003.2492-.312.3945-.519.4205-.028 0-.041 0-.07.0026-.236.0286-.453-.1791-.467-.4023.048-.1895.244-.3349.438-.392l.005-.0415c-.073 0-.147 0-.217-.0026-.233.0052-.461-.1843-.459-.4205.037-.2414.302-.3919.532-.4101.021 0 .042-.0052.063-.0078h-.003c-.055.0052-.112.0104-.167.0182z" fill="#ebb78d"/><path d="m113.252 68.2061c.055-.1012.487-.7761.487-.7787 0 0 .21-.2284.377-.34l1.043-.501c.055-.0363.131-.0207.162.0364.27.4646.134.9162-.32 1.2303l-.364.2596v.4542c-.007.815-.083 1.63-.227 2.4347l-.04.2232c-.167-.4568-1.068-2.7176-1.116-3.0187z" fill="#ebb78d"/><path d="m100.447 127.892c-.6048.088-2.4958.319-4.1799.018-.1336-.023-.8276.067-.8407.2l-.3484 3.808c-.0262.443.33.765.7753.817 2.7815.317 8.2267.397 10.8507 0 .553-.083 1.181-.532 1.04-1.067-.118-.456-.469-.786-.838-.903-2.978-.937-5.181-2.414-6.076-2.819-.121-.054-.254-.072-.388-.054z" fill="#192225"/><path d="m100.201 89.2642c1.985 5.2846 2.905 25.4968 2.108 35.8968-.023.294.144.691.121.966-.042.454-.05.896-.097 1.303-.05.408.12.999.065 1.355-1.225.807-4.7349 1.433-6.9402 1.077-.2305-.036-.3902-.246-.364-.475.0314-.309.0916-.675.0681-.893-.0367-.322-.2515-.589-.2881-.95-.0393-.405.055-1.469.0157-1.918-.9979-11.517-1.6736-36.3592-1.6736-36.3592h6.9881z" fill="#2c5543"/><path d="m98.4331 112.453c-.9507 2.591-2.4462 5.973-3.9051 8.602-.9324-9.401-1.2702-29.1953-1.3121-31.8714l5.2224 16.3964c.812 2.222.8093 4.654-.0052 6.873z" fill="#214032"/><path d="m94.8868 125.623c-.0209-.241-.0419-.493-.0628-.747 2.2209.099 5.17-.195 7.543-.509-.018.27-.037.537-.055.794-.024.294.144.691.12.966-.005.049-.007.099-.01.148-.236.031-.477.062-.723.091-2.1973.265-4.73.483-6.8253.42.0157-.428.0367-.9.0157-1.163z" fill="#c5da69"/><path d="m93.9465 131.663c-.0995-.246-.3693-.69-.77-.911-.7071-.389-2.5929-1.303-2.9989-1.5l-1.0869-1.588c-.1047-.154-.2593-.268-.4374-.32-.7097-.213-2.6374-.872-3.6274-1.972-.1624-.182-.4557-.154-.5919.046l-1.9905 2.936c-.2488.369-.1022.82.2514 1.093.901.693 2.9517 1.91 4.1408 2.408 1.0555.442 2.1188.771 3.2608.878.7962.075 2.2314.104 3.0774 0 .5552-.068.9769-.553.7726-1.067z" fill="#192225"/><path d="m83.8159 125.79c.0786-.276-.0052-.603.3379-1.008.1414-.168.2409-.467.3326-.698.1048-.267.1388-.506.2619-.799.1388-.332.5055-.691.6443-1.057 1.4143-3.724 3.3367-7.729 4.146-9.554 1.0634-2.396.8853-5.189-.034-7.642 0 0-3.5698-9.4086-3.1848-12.256l6.8934-3.8934 4.2901 16.6974c.8119 2.222.8093 4.654-.0052 6.873-.8434 2.295-2.7632 6.975-4.6018 11.086-.0812.182-.9193 1.41-.9952 1.583-.207.46-.2724 1.197-.4532 1.589-.0969.21-.4007.688-.4871.875-.2279.485-.3745.817-.4741 1.038-.11.244-.3562.4-.6259.392-2.1948-.06-6.202-2.674-6.0475-3.224z" fill="#2c5543"/><path d="m85.7566 121.289c2.2891 1.386 4.8925 2.681 6.4089 3.405-.1335.205-.2383.371-.2619.429-.1755.386-.2488.97-.3745 1.378-.8643-.41-2.1136-1.02-3.4886-1.744-1.0136-.535-2.0927-1.132-3.1325-1.758.165-.249.385-.508.4846-.773.1178-.312.2409-.623.364-.937z" fill="#c5da69"/><path d="m96.0524 67.2091-.4924-4.1555-3.8579-.3634c.0209.3867.0681 1.3445.089 2.266.0236 1.1394.0445 2.2529.0445 2.2529z" fill="#ebb78d"/><path d="m93.2133 88.8826.0995.3815h6.8882c.506 1.3471.943 3.6702 1.299 6.5513-3.7111.7761-8.9493.9448-14.672.8099-.9403-3.2549-.2436-5.2172-.076-6.4631.9298 0 6.4587-1.2796 6.4587-1.2796z" fill="#214032"/><path d="m101.587 69.3713c-.409-.3504-1.8574-1.033-3.7536-1.5054-.9403-.2336-1.5951-1.0772-1.5951-2.0376 0 0 .0917-.4568 0-.7501-1.43-.1583-3.431 0-4.6881 0-.0812.3348 0 .7242 0 .7242 0 .9681-.6679 1.8169-1.6186 2.0453-1.891.4516-3.3944 1.1187-4.0387 1.5626-2.4619 5.6766.8617 24.6245.8617 26.4492 6.6787.3504 12.2207.1039 15.1884-1.7053.437-4.6306.571-21.8758-.354-24.7829z" fill="#2c5543"/><path d="m101.537 69.1038c-.666-.571-3.1694-1.4717-4.5653-1.6819 2.7238 4.5527 2.5143 23.9081 2.4069 29.0734.5133.0883 1.3094.0208 2.4124-.3634.437-4.6305 1.286-25.2397-.254-27.0281z" fill="#c5da69"/><path d="m99.9784 96.4953c.1076-5.1159.3146-24.1547-2.331-28.9385-.2436-.0571-.4714-.1038-.6783-.1349 2.7238 4.5527 2.5143 23.9081 2.4069 29.0734.2043.0338.4584.0441.757.0182-.052-.0052-.107-.0104-.1546-.0182z" fill="#fff"/><path d="m102.233 88.2542c-1.113-.0129-2.097-.0467-2.8177-.0752.0079.654.0131 1.29.0157 1.9025.72.0286 1.661.0597 2.727.0727.026-.61.052-1.2459.078-1.9z" fill="#fff"/><path d="m90.8587 67.3572c-2.4488.436-4.0124 1.2433-4.9658 2.0505-2.4619 5.6766.351 25.7485.351 27.5732 2.826.1479 4.3503.109 6.5634.0259 0 0 .8853-21.7045-1.946-29.6496z" fill="#c5da69"/><path d="m90.8585 67.3572c-.2305.0415-.4609.0934-.694.1505 2.771 8.0646 1.8962 29.4991 1.8962 29.4991-1.0031.0364-1.8622.0649-2.7684.0727 1.1943.0078 2.2393-.0233 3.5122-.0727 0 0 .8853-21.7045-1.946-29.6496z" fill="#fff"/><path d="m85.0208 88.2078c.089.6567.1755 1.2952.2645 1.9104.8067.0259 1.7653.0441 2.792.0441 1.5505 0 3.2607-.0441 4.8584-.1791 0-.6125 0-1.2485-.0026-1.9078-2.6977.244-5.9009.1973-7.9123.1298z" fill="#fff"/><path d="m94.5384 55.2615c-2.3075 0-4.1775 1.3627-4.1775 4.0232s1.4117 4.859 4.1775 5.8193c2.1764.7554 4.1774-.4931 4.1774-5.8193 0-2.6579-1.87-4.0232-4.1774-4.0232z" fill="#ffdaad"/><path d="m93.6532 54.5919c-1.2467.488-3.6615-.3089-4.6987 3.5923-.5317 2.0038-.1309 3.7792 2.1084 6.0712.3352.3426.9219.1038.9193-.3712 0-.4153-.0969-.8929-.3169-1.5989-.1519-.1531-.3876-.7242-.5553-1.0876-.3247-.7008.0131-1.3185.6077-1.1291.3457.1117.7045-.1297.7726-.4827.131-.6749.1624-1.342.1624-1.817 0 0 3.1848 1.0123 5.9898-.3374 2.8055-1.3471.055-4.8097-4.9919-2.8396z" fill="#572a09"/><path d="m96.4346 62.4824c.0524-.0156.1022-.0338.1598-.0572l.0445-.0207c.021-.013.0498-.0286.0707-.0597.0262-.0312.0419-.0675.0498-.1012.0157-.0727.0078-.1117.0052-.1428-.0052-.0311-.0104-.0571-.0183-.0753-.0524-.1505-.0995-.2414-.1441-.353-.089-.2102-.1623-.4205-.2042-.6437-.0446-.2232-.055-.4542-.0419-.6956 0-.0389-.0158-.0753-.0472-.0883-.0367-.0181-.0786.0052-.0943.0519-.0759.244-.1047.5166-.0838.7839.0183.2674.0891.5269.1781.7631.0288.0805.0655.1636.0917.2336-.0184.0078-.0367.0156-.055.0234-.1912.0805-.385.1661-.571.2933-.0209.0156-.0367.0441-.0367.0753 0 .0493.0315.0908.0708.0934.2147.0104.4216-.0233.6285-.083z" fill="#f2af6a"/><path d="m96.8353 63.4636c-.1859.1376-.4374.4127-.9769.4075-.5395-.0051-.8329-.2933-.9769-.423 0 0 .9376-.0649 1.9538.0155z" fill="#fff"/><path d="m97.0658 59.8482c.1493-.0441.3065-.0623.461-.0571.1545-.0026.3117.0182.4583.0649.1493.0467.2881.1194.4112.2128.0315.0234.0786.0234.11 0 .0236-.0181.0288-.0441.0157-.0649-.0838-.1375-.2252-.2595-.3981-.3426-.1754-.0856-.3824-.135-.5945-.1427-.2121 0-.4191.0493-.5972.1323-.1754.0831-.0157.244.1336.1999z" fill="#3a1903"/><path d="m93.5038 60.0478c.0288.0233.0786.0259.11 0 .1257-.0909.2645-.1609.4138-.2051.1493-.0441.3065-.0623.4584-.0571.1545-.0026.3116.0182.4583.0649.1493.0467.3117-.1116.1362-.1972-.1755-.0857-.3824-.135-.5945-.1428-.2122 0-.4191.0493-.5972.1324-.1755.083-.3195.1998-.406.3374-.013.0208-.0078.0467.0131.0675z" fill="#3a1903"/><path d="m97.8333 60.8811c-.3693.0831-.7884-.0181-1.0608-.1453.0419-.0623.1938-.2751.1938-.2751l.5998-.0857.2462.1454z" fill="#fff"/><path d="m96.7097 60.6605c.0602-.1272.165-.2388.2907-.3141.1257-.0779.2776-.122.4295-.1246s.3064.0338.44.1064c.1126.0597.2174.1402.2855.2466.0367.0571.0917.2025.0445.218-.0471.0156-.419.1091-.5317.1117-.1597 0-.2252-.1194-.199-.2778.0078-.0545.0314-.1012.0655-.1375-.0367-.0078-.0708-.013-.1074-.013-.11-.0052-.2226.013-.33.0545s-.2069.1064-.2986.1921c-.0157.0155-.0419.0207-.0629.0103-.0288-.0129-.0392-.0467-.0261-.0726z" fill="#220308"/><path d="m94.905 60.8965c-.3693.0831-.7883-.0181-1.0607-.1453.0419-.0623.1938-.2752.1938-.2752l.5998-.0856.2462.1453z" fill="#fff"/><path d="m93.7841 60.6734c.0603-.1272.165-.2388.2907-.3141.1257-.0778.2777-.122.4296-.1246.1519-.0025.3064.0338.44.1065.1126.0597.2174.1401.2855.2466.0366.0571.0916.2024.0445.218-.0472.0156-.4191.109-.5317.1116-.1598 0-.2252-.1194-.199-.2777.0078-.0545.0314-.1013.0654-.1376-.0366-.0078-.0707-.013-.1074-.013-.11-.0052-.2226.013-.33.0545-.1073.0416-.2069.1064-.2985.1921-.0158.0156-.0419.0208-.0629.0104-.0288-.013-.0393-.0467-.0262-.0727z" fill="#220308"/><path d="m87.226 68.8159c-.9769-.0545-1.9617.7371-2.5929 1.5885-.9979 1.3549-3.0539 4.763-3.9077 6.1957-.1859.3089-.6286.3349-.846.0467l-5.1648-6.7485-.1886.1842-2.3781 2.3335-.1414.1402s3.4964 7.5532 5.7724 10.1306c1.2939 1.464 3.9208 1.3939 5.4085 0 1.6212-1.5184 3.4572-3.6157 4.8715-6.4007.3588-.7086.4531-7.3975-.8329-7.4702z" fill="#3a7159"/><path d="m74.5653 69.9968-1.3043-2.0791-1.1995 2.1518-3.1718 1.9804 3.2582.366 2.3781-2.3308z" fill="#ebb78d"/><path d="m67.8971 70.1137c-.22 5.282-4.3948 8.9289-7.4932 16.3601-2.9753 7.1379-1.6396 12.3032 8.0275 13.9282s14.3474-6.6008 11.2542-13.3468c-3.926-8.5629-7.1815-13.697-7.1108-16.0279.0733-2.3308.3719-3.9738 1.3096-5.5883-3.7872-1.6145-7.1842-.5321-7.1842-.5321z" fill="#2c2d5b"/><path d="m68.0621 81.0749c.7228-2.3049 1.2571-3.7844 1.6369-4.8045.3195-.8617 1.4981-.9785 1.9853-.1972 2.2629 3.6105 6.7991 10.1306 7.0427 14.5847.3091 5.6636-4.806 8.1865-8.9652 6.2139-4.1591-1.9753-3.3393-10.5693-1.6997-15.7943z" fill="#2c2d5b" opacity=".5"/><g fill="#ebb78d"><path d="m68.1774 70.1059c.2671.0389.5474-.1583.5421-.4361-.0419-.2933-.3666-.4568-.6259-.5191-.0315-.0078-.0629-.0156-.0943-.026.2331.0675.4688-.0908.4557-.3374-.0419-.2777-.2986-.4828-.5526-.5658-.1755-.0571-.296-.1013-.4715-.161l-.0942-.3945c-.3405.1454-.4898.4491-.5029.5607v.0052c-.0131.0441-.0183.0934-.0105.1453 0 .0104 0 .0156.0026.026.0157.1375.0865.2621.1886.3608-.1519.1557-.2514.3244-.2593.3919 0 0 .0026.0026.0026.0052-.0262.0649-.0419.135-.0288.2102.0053.0545.0079.0831.0131.1376.0157.2492.2357.4179.4662.4724-.1126.1272-.1676.2622-.1755.3322 0 .0052.0027.0078.0053.013-.0105.0441-.021.0857-.0131.135v.0259c.0131.2362.2278.3972.4505.4309-.0708.0883-.11.1661-.1231.2232-.0027.0078-.0053.0156-.0079.0234v.0026c-.0183.0441-.0314.0908-.0288.1453v.0234c-.0026.2492.3117.3945.5186.4205.0288 0 .0419 0 .0707.0026.2357.0285.4531-.1791.4662-.4023-.0472-.1895-.2436-.3349-.4374-.392l-.0052-.0415c.0733 0 .1466 0 .2174-.0026.233.0052.4609-.1843.4583-.4205-.0367-.2414-.3012-.3919-.5317-.4101-.0209 0-.0419-.0052-.0628-.0078h.0026c.055.0052.1126.0104.1676.0182z"/><path d="m73.7482 68.6966c-.055-.1012-.4872-.7761-.4872-.7787 0 0-.2095-.2284-.3771-.34l-1.0424-.501c-.055-.0363-.131-.0207-.1624.0364-.2698.4646-.1336.9162.3195 1.2303l.3641.2595v.4543c.0078.815.0838 1.63.2278 2.4347l.0393.2232c.1676-.4568 1.0686-2.7202 1.1158-3.0187z"/></g></g></svg>