<svg fill="none" height="157" viewBox="0 0 258 157" width="258" xmlns="http://www.w3.org/2000/svg" xmlns:xlink="http://www.w3.org/1999/xlink"><linearGradient id="a"><stop offset="0" stop-color="#4f52ff"/><stop offset="1" stop-color="#4042e2"/></linearGradient><linearGradient id="b" gradientUnits="userSpaceOnUse" x1="-32.7533" x2="-98.6073" xlink:href="#a" y1="96.749" y2="115.546"/><linearGradient id="c" gradientUnits="userSpaceOnUse" x1="59.6637" x2="115.161" xlink:href="#a" y1="76.9003" y2="76.9003"/><linearGradient id="d" gradientUnits="userSpaceOnUse" x1="240.422" x2="359.913" xlink:href="#a" y1="58.5021" y2="36.0384"/><linearGradient id="e"><stop offset="0" stop-color="#ff928e"/><stop offset="1" stop-color="#fe7062"/></linearGradient><linearGradient id="f" gradientUnits="userSpaceOnUse" x1="60.5278" x2="92.2305" xlink:href="#e" y1="75.3173" y2="29.6757"/><linearGradient id="g" gradientUnits="userSpaceOnUse" x1="55.3612" x2="88.8181" xlink:href="#e" y1="21.6103" y2="19.3183"/><linearGradient id="h" gradientUnits="userSpaceOnUse" x1="79.8633" x2="86.1853" xlink:href="#e" y1="39.7261" y2=".495651"/><linearGradient id="i" gradientUnits="userSpaceOnUse" x1="19.6036" x2="51.3063" xlink:href="#e" y1="143.524" y2="97.8828"/><linearGradient id="j" gradientUnits="userSpaceOnUse" x1="14.4368" x2="47.8938" xlink:href="#e" y1="89.8174" y2="87.5255"/><linearGradient id="k" gradientUnits="userSpaceOnUse" x1="38.9391" x2="45.2611" xlink:href="#e" y1="107.933" y2="68.7028"/><linearGradient id="l"><stop offset="0" stop-color="#e1473d"/><stop offset="1" stop-color="#e9605a"/></linearGradient><linearGradient id="m" gradientUnits="userSpaceOnUse" x1="203.877" x2="201.982" xlink:href="#l" y1="99.5541" y2="128.904"/><linearGradient id="n"><stop offset="0" stop-color="#fe7062"/><stop offset="1" stop-color="#ff928e"/></linearGradient><linearGradient id="o" gradientUnits="userSpaceOnUse" x1="256.497" x2="253.492" xlink:href="#n" y1="140.904" y2="152.633"/><linearGradient id="p" gradientUnits="userSpaceOnUse" x1="182.856" x2="198.966" xlink:href="#l" y1="50.3369" y2="104.917"/><linearGradient id="q" gradientUnits="userSpaceOnUse" x1="152.739" x2="251.145" xlink:href="#n" y1="85.7012" y2="151.226"/><linearGradient id="r" gradientUnits="userSpaceOnUse" x1="227.045" x2="180.671" xlink:href="#n" y1="63.6107" y2="97.639"/><linearGradient id="s" gradientUnits="userSpaceOnUse" x1="133.129" x2="132.497" xlink:href="#l" y1="118.603" y2="133.118"/><linearGradient id="t"><stop offset="0" stop-color="#09005d"/><stop offset="1" stop-color="#1a0f91"/></linearGradient><linearGradient id="u" gradientUnits="userSpaceOnUse" x1="330.463" x2="318.781" xlink:href="#t" y1="-209.522" y2="-189.812"/><linearGradient id="v" gradientUnits="userSpaceOnUse" x1="323.405" x2="311.723" xlink:href="#t" y1="-213.706" y2="-193.996"/><linearGradient id="w" gradientUnits="userSpaceOnUse" x1="130.595" x2="145.409" xlink:href="#l" y1="123.842" y2="131.48"/><linearGradient id="x" gradientUnits="userSpaceOnUse" x1="122.707" x2="155.944" xlink:href="#n" y1="96.2061" y2="113.34"/><linearGradient id="y" gradientUnits="userSpaceOnUse" x1="149.042" x2="145.487" xlink:href="#t" y1="14.6149" y2="50.5858"/><linearGradient id="z" gradientUnits="userSpaceOnUse" x1="132.532" x2="141.977" xlink:href="#l" y1="142.052" y2="157.511"/><linearGradient id="A" gradientUnits="userSpaceOnUse" x1="236.501" x2="232.947" xlink:href="#t" y1="23.2992" y2="59.2701"/><linearGradient id="B" gradientUnits="userSpaceOnUse" x1="220.778" x2="230.225" xlink:href="#l" y1="142.319" y2="157.777"/><linearGradient id="C" gradientUnits="userSpaceOnUse" x1="184.713" x2="181.158" xlink:href="#t" y1="18.1672" y2="54.1381"/><linearGradient id="D" gradientUnits="userSpaceOnUse" x1="168.511" x2="177.957" xlink:href="#l" y1="142.359" y2="157.817"/><linearGradient id="E" gradientUnits="userSpaceOnUse" x1="257.518" x2="253.964" xlink:href="#t" y1="25.3744" y2="61.3452"/><linearGradient id="F" gradientUnits="userSpaceOnUse" x1="241.996" x2="251.443" xlink:href="#l" y1="142.301" y2="157.76"/><linearGradient id="G" gradientUnits="userSpaceOnUse" x1="121.485" x2="125.857" xlink:href="#l" y1="137.872" y2="137.872"/><linearGradient id="H"><stop offset="0" stop-color="#ff928e"/><stop offset="1" stop-color="#feb3b1"/></linearGradient><linearGradient id="I" gradientUnits="userSpaceOnUse" x1="137.923" x2="133.19" xlink:href="#H" y1="125.654" y2="130.066"/><linearGradient id="J" gradientUnits="userSpaceOnUse" x1="148.443" x2="147.969" xlink:href="#H" y1="81.4506" y2="92.3372"/><linearGradient id="K" gradientUnits="userSpaceOnUse" x1="139.899" x2="141.557" xlink:href="#H" y1="95.1553" y2="101.702"/><path d="m116.82 6.05858-58.4102-6.05858-58.4098 6.85127v145.75673l58.4098-3.608 58.4102 4 58.336-6.105v-144.22439z" fill="#fff"/><path d="m59.6637 145.678-55.49695 3.422v-138.2704l55.49695-6.50001z" fill="url(#b)"/><path d="m115.161 149.472-55.4973-3.794v-141.34841l55.4973 5.74761z" fill="url(#c)"/><path d="m170.588 143.68-55.427 5.792v-139.3948l55.427-3.21367z" fill="url(#d)"/><path d="m59.6636 4.32959h-1.2565v141.38641h1.2565z" fill="#bdd0fb"/><path d="m114.702 149.472 1.257-.083v-139.44051h-1.257z" fill="#bdd0fb"/><g opacity=".69"><path d="m131.228 11.4735 14.388 11.0206-9.807 9.2039-11.558-10.7639z" fill="#91b3fa"/><path d="m35.4781 33.4558 1.295-12.8021 22.2623 4.7395v17.0695z" fill="#91b3fa"/><path d="m156.825 108.833 11.616-5.806 1.572 11.779-10.154 3.265z" fill="#91b3fa"/><path d="m47.3708 118.207 11.6645 6.005 11.6277-1.923-1.0508-7.96-10.5769-2.449z" fill="#91b3fa"/><g fill="#bdd0fb"><path d="m35.478 33.4558-31.65 11.1546.67637 2.6049 4.57093-1.6108 29.2867 9.2705.49-2.1013-26.4045-8.3578 22.6587-7.9864 21.1388 16.2479-2.9093 23.4478-23.1172 1.9129-20.33033 31.9499 1.87593 1.622 19.6908-30.9459 23.923-1.9796 3.3897-27.3271z"/><path d="m25.5995 127.609-24.16542-23.875 1.50936-2.075 24.16626 23.874z"/><path d="m118.328 103.817-14.422-41.3822-2.163 1.0239 7.587 21.7713-36.847 13.2033.686 2.6017 37.043-13.2736 5.952 17.0796z"/><path d="m149.135 95.7663-7.022 8.8997-13.868-31.7168-1.664.9889 14.175 32.4199.043-.027-5.407 6.855 1.719 1.842 13.743-17.4205z"/><path d="m140.69 40.7722-1.355-2.216c-.059.0491-.096.0902-.098.0929.742-.8462 10.803-15.0348 17.386-24.3666l.821-1.1641 14.973 17.6222-1.66 1.9147-13.152-15.4806c-1.446 2.0478-4.591 6.4974-7.741 10.9347-8.722 12.2871-8.963 12.4868-9.175 12.6628z"/><path d="m110.521 55.1956-4.691-18.7153-5.734-17.059-25.667 1.7772-.1382-2.7161 27.3602-1.8955 6.406 19.0727 4.705 18.7731z"/><path d="m36.7433 33.6827-1.862-.1664.9722-14.8176 23.3709 5.6285-.378 2.132-21.292-5.1275z"/><path d="m135.516 33.2868-1.165-1.701 9.72-9.0472-13.469-11.2973 1.092-1.76669 15.468 12.97379z"/><path d="m172.361 117.821-14.646-64.7153-2.124.7466 11.053 48.8417-10.34 5.528.697 2.024 9.935-5.313 1.19 9.54-7.736 2.66.47 2.122 8.843-3.041.534 2.354z"/><path d="m59.4352 142.926-34.3607-15.93.8636-2.529 32.6615 15.142 9.2976-15.152-8.357 2.326-14.2352-7.719.9853-2.467 13.4984 7.318 10.7449-2.99c1.0342-.288 1.8847.842 1.3229 1.759l-12.4204 20.242z"/><path d="m134.076 113.71-23.382 29.492-23.7571-25.736-13.3786-19.6789-1.4638 1.3515 13.4223 19.7444.0437.065 23.8655 25.854-3.708 4.676 1.715 1.847 28.358-35.768z"/></g></g><g fill="#91b3fa"><path d="m66.5944 54.0316-8.1602-10.5178c-18.2881-7.5125-39.1171-15.2791-55.27465-16.1717l.09974-2.4463c16.50401.9118 37.63321 8.808 56.12521 16.4116l.2511.1034 8.518 10.9776-1.5592 1.6423z"/><path d="m169.23 137.822c-17.815-12.744-37.964-26.771-51.964-32.197l-45.5074 19.575-.728-2.298 46.1944-19.869.347.132c14.23 5.409 34.693 19.648 52.757 32.57z"/><path d="m80.3711 45.2498-13.971-40.30527 1.9486-.91706 13.971 40.30443z"/><path d="m143.683 56.4061c-3.614-16.3373-10.576-27.5882-21.285-34.3974l1.006-2.1494c5.908 3.7567 10.808 8.8807 14.561 15.2292 3.41 5.7669 5.946 12.5402 7.752 20.7062l-2.035.6114z"/><path d="m34.5882 123.558-1.7543-1.369 20.6462-37.0378 1.7534 1.37z"/><path d="m149.481 57.798-60.6523-2.8178.084-2.4472 60.1943 2.7958 22.082-10.5484.797 2.2659z"/><path d="m4.54469 137.687-.75599-2.285 55.1014-24.769 10.8254 1.253-.2074 2.437-10.3283-1.196z"/><path d="m75.5552 87.9673c-23.658-.2917-45.8293-1.6931-57.1376-15.443l1.5172-1.6948c10.7431 13.064 32.4507 14.4023 55.6422 14.6888z"/><path d="m73.4787 145.919-4.9445-34.33.0752-.279 14.2439-52.9191 6.3848-12.5954 25.2649-15.9124 16.854-21.61369 1.555 1.64756-17.094 21.92193-25.0679 15.7881-5.9639 11.7659-14.096 52.3701 4.8614 33.751z"/><path d="m171.665 143.289-29.521-62.2527-54.5744-23.2989-9.7141-2.6995-35.255-3.1059-38.92821 33.2429-1.24248-1.9752 39.55469-33.7781.3867.0342 35.8089 3.155 9.9958 2.7783.0587.0245 55.3704 23.6379.189.4003 29.711 62.6522z"/></g><path d="m83.9874 57.9687c3.8935 0 7.0498-3.1564 7.0498-7.0501 0-3.8936-3.1563-7.0501-7.0498-7.0501s-7.0498 3.1565-7.0498 7.0501c0 3.8937 3.1563 7.0501 7.0498 7.0501z" fill="#bdd0fb"/><path d="m83.9875 55.9709c2.7897 0 5.0513-2.2619 5.0513-5.0521 0-2.7903-2.2616-5.0522-5.0513-5.0522-2.7898 0-5.0513 2.2619-5.0513 5.0522 0 2.7902 2.2615 5.0521 5.0513 5.0521z" fill="#91b3fa"/><path d="m44.1545 125.085c3.8935 0 7.0498-3.157 7.0498-7.05 0-3.894-3.1563-7.051-7.0498-7.051s-7.0498 3.157-7.0498 7.051c0 3.893 3.1563 7.05 7.0498 7.05z" fill="#bdd0fb"/><path d="m44.1545 123.087c2.7897 0 5.0513-2.262 5.0513-5.053 0-2.79-2.2616-5.052-5.0513-5.052-2.7898 0-5.0514 2.262-5.0514 5.052 0 2.791 2.2616 5.053 5.0514 5.053z" fill="#91b3fa"/><path d="m86.8684 41.3503c.3132-1.3284-.5086-2.6594-1.8357-2.9729-1.327-.3136-2.6567.5091-2.9699 1.8375-.3132 1.3285.5087 2.6595 1.8357 2.973 1.327.3136 2.6567-.5091 2.9699-1.8376z" fill="url(#f)"/><path d="m96.909 13.4969c0 4.7005-7.0725 16.6927-10.7566 22.6082-.286.4592-.9018.7379-2.0419.7379-.5403 0-.3278-.2799-.6139-.7391-3.6845-5.9158-10.7559-17.9069-10.7559-22.607-.0004-6.12925 5.41-11.09822 12.0842-11.09822s12.0841 4.96897 12.0841 11.09822z" fill="url(#g)"/><path d="m96.1946 13.4969c0 4.7005-7.0726 16.6927-10.7567 22.6082-.286.4592-.788.7379-1.3283.7379-.5402 0-1.0414-.2799-1.3271-.7391-3.6845-5.9158-10.7559-17.9069-10.7559-22.607-.0007-6.12925 5.4096-11.09822 12.0834-11.09822s12.0842 4.96897 12.0842 11.09822z" fill="url(#h)"/><path d="m89.62 19.2276c2.8803-2.8832 2.8803-7.5578 0-10.44109-2.8802-2.88323-7.55-2.88323-10.4302 0-2.8803 2.88329-2.8803 7.55789 0 10.44109 2.8802 2.8833 7.55 2.8833 10.4302 0z" fill="#fff" opacity=".36"/><path d="m83.6901 18.6497c2.9616 0 5.3625-2.4034 5.3625-5.3681 0-2.9648-2.4009-5.36815-5.3625-5.36815-2.9617 0-5.3626 2.40335-5.3626 5.36815 0 2.9647 2.4009 5.3681 5.3626 5.3681z" fill="#fff" opacity=".36"/><path d="m45.9442 109.557c.3132-1.328-.5086-2.659-1.8357-2.972-1.327-.314-2.6566.509-2.9699 1.837-.3132 1.329.5087 2.66 1.8357 2.973 1.3271.314 2.6567-.509 2.9699-1.838z" fill="url(#i)"/><path d="m55.9847 81.7041c0 4.7004-7.0725 16.6927-10.7566 22.6079-.2861.459-.9018.738-2.042.738-.5402 0-.3278-.28-.6138-.739-3.6845-5.9157-10.7559-17.9069-10.7559-22.6069-.0004-6.1293 5.41-11.0983 12.0842-11.0983 6.6741 0 12.0841 4.969 12.0841 11.0983z" fill="url(#j)"/><path d="m55.2704 81.7041c0 4.7004-7.0726 16.6927-10.7566 22.6079-.2861.459-.7881.738-1.3284.738-.5402 0-1.0414-.28-1.3271-.739-3.6845-5.9157-10.7559-17.9069-10.7559-22.6069-.0007-6.1293 5.4096-11.0983 12.0834-11.0983s12.0842 4.969 12.0842 11.0983z" fill="url(#k)"/><path d="m48.6958 87.4347c2.8803-2.8833 2.8803-7.5579 0-10.4412-2.8802-2.8832-7.55-2.8832-10.4302 0-2.8803 2.8833-2.8803 7.5579 0 10.4412 2.8802 2.8832 7.55 2.8832 10.4302 0z" fill="#fff" opacity=".36"/><path d="m42.7658 86.8569c2.9616 0 5.3625-2.4034 5.3625-5.3682 0-2.9647-2.4009-5.3681-5.3625-5.3681-2.9617 0-5.3626 2.4034-5.3626 5.3681 0 2.9648 2.4009 5.3682 5.3626 5.3682z" fill="#fff" opacity=".36"/><path d="m1.33362 16.7703h2.79504v121.1187h-2.79504z" fill="#fff"/><path d="m112.91 149.34h3.16181v10.2485h-3.16181z" fill="#fff" transform="matrix(-.06473434 .99790253 -.99790253 -.06473434 269.245919 46.334252)"/><path d="m73.8674 1.94958h3.79829v10.2485h-3.79829z" fill="#fff" transform="matrix(-.10174909 .99481009 -.99481009 -.10174909 83.322803 -71.336087)"/><path d="m0 0h3.84052v10.2485h-3.84052z" fill="#fff" transform="matrix(.0563144 .998413 .998413 -.0563144 125.798 5.60413)"/><path d="m170.497 17.7019h3.72672v125.777h-3.72672z" fill="#fff"/><path d="m254.71 140.303h-107.325v6.321h107.325z" fill="url(#m)"/><path d="m257.14 138.844h-2.428v8.589h2.428z" fill="url(#o)"/><path d="m149.166 100.696c0-1.6294 1.743-2.696 4.365-2.696h98.762c2.622 0 4.846 1.0666 4.846 2.696v37.073c0 1.63-2.224 3.019-4.846 3.019h-98.762c-2.622 0-4.365-1.39-4.365-3.019z" fill="url(#p)"/><path d="m151.757 102.191c0-1.491 1.997-2.8941 4.469-2.8941h93.169c2.473 0 4.345 1.4031 4.345 2.8941v33.887c0 1.491-1.872 2.764-4.345 2.764h-93.169c-2.472 0-4.469-1.273-4.469-2.764z" fill="url(#q)"/><path d="m122.859 126.804 4.87-14.975c.121-.377.474-.538.87-.538h19.595v35.333h-26.49l1.154-19.82z" fill="url(#r)"/><path d="m121.449 141.534c.262-.172.637-.265 1.001-.259l20.427.393.104 5.803-20.484.502c-.747 0-1.497-.361-1.497-.866v-4.917c0-.247.188-.484.449-.656z" fill="url(#s)"/><path d="m126.662 125.946 2.943-11.668c.103-.407.468-.718.888-.718h11.511c.247 0 .484.128.656.305.171.178.264.43.258.678l-.276 9.355c-.012.438-.335.811-.769.88l-14.179 2.296c-.304.049-.613-.057-.821-.284s-.288-.543-.213-.843z" fill="url(#u)"/><path d="m127.25 113.423.149.025c.256.043.48.191.62.407.14.218.181.485.113.734l-3.208 11.947c-.125.462-.583.751-1.051.662l-1.014-.19z" fill="url(#v)"/><path d="m141.861 127.661h-3.681c-.459 0-.831.372-.831.831v.443c0 .46.372.832.831.832h3.681c.458 0 .83-.372.83-.832v-.443c0-.459-.372-.831-.83-.831z" fill="url(#w)"/><path d="m146.811 100.794c.307-.022.707.087.932.297.226.21.453.508.453.816v9.384h-11.958s.642-9.771 10.574-10.497z" fill="url(#x)"/><path d="m143.331 149.059c.787-4.09-1.887-8.044-5.972-8.832s-8.034 1.89-8.821 5.98 1.887 8.044 5.972 8.831c4.085.788 8.034-1.889 8.821-5.979z" fill="url(#y)"/><path d="m129.609 150.398c-.063 0-.123-.036-.15-.099-.356-.845-.537-1.739-.537-2.664 0-3.771 3.065-6.839 6.831-6.839 1.168 0 2.321.299 3.334.869.079.044.106.142.062.221s-.142.106-.221.061c-.964-.541-2.064-.826-3.177-.826-3.588 0-6.508 2.923-6.508 6.516 0 .88.172 1.732.511 2.535.034.082-.003.179-.087.213-.02.01-.043.013-.063.013z" fill="#7d97f4"/><path d="m137.259 150.832c1.762-.731 2.599-2.754 1.869-4.519-.73-1.764-2.751-2.602-4.513-1.871-1.763.73-2.6 2.754-1.87 4.518.73 1.765 2.751 2.603 4.514 1.872z" fill="url(#z)"/><path d="m231.528 149.662c.962-4.052-1.538-8.118-5.585-9.082s-8.109 1.54-9.071 5.592c-.963 4.052 1.537 8.118 5.585 9.082 4.047.964 8.108-1.54 9.071-5.592z" fill="url(#A)"/><path d="m217.853 150.657c-.063 0-.122-.037-.149-.1-.356-.842-.538-1.738-.538-2.663 0-3.771 3.065-6.84 6.832-6.84 1.167 0 2.321.3 3.334.87.079.044.106.142.061.221-.044.078-.141.105-.22.061-.965-.541-2.063-.827-3.177-.827-3.588 0-6.508 2.924-6.508 6.517 0 .88.172 1.732.51 2.537.035.082-.003.178-.086.213-.021.009-.043.012-.063.012z" fill="#7d97f4"/><path d="m225.009 151.258c1.852-.459 2.982-2.334 2.523-4.189-.458-1.854-2.331-2.985-4.182-2.526-1.852.459-2.982 2.334-2.524 4.188.459 1.854 2.331 2.985 4.183 2.527z" fill="url(#B)"/><path d="m179.24 149.665c.97-4.05-1.524-8.121-5.569-9.092-4.046-.971-8.111 1.526-9.081 5.576s1.524 8.121 5.569 9.092c4.046.971 8.111-1.525 9.081-5.576z" fill="url(#C)"/><path d="m165.58 150.657c-.063 0-.123-.037-.15-.1-.356-.844-.537-1.738-.537-2.663 0-3.771 3.065-6.84 6.831-6.84 1.168 0 2.321.3 3.335.87.078.044.105.142.061.221-.044.078-.142.105-.221.061-.964-.541-2.064-.827-3.176-.827-3.589 0-6.509 2.924-6.509 6.517 0 .88.172 1.732.511 2.537.035.082-.003.178-.087.213-.02.009-.042.012-.063.012z" fill="#7d97f4"/><path d="m172.988 151.202c1.81-.604 2.788-2.562 2.185-4.374s-2.559-2.792-4.369-2.188-2.788 2.562-2.185 4.374 2.559 2.792 4.369 2.188z" fill="url(#D)"/><path d="m252.749 149.663c.963-4.052-1.537-8.119-5.585-9.082-4.047-.964-8.108 1.539-9.071 5.591-.962 4.053 1.538 8.119 5.585 9.083s8.109-1.54 9.071-5.592z" fill="url(#E)"/><path d="m239.073 150.657c-.063 0-.123-.037-.149-.1-.356-.844-.538-1.738-.538-2.663 0-3.771 3.065-6.84 6.832-6.84 1.167 0 2.321.3 3.334.87.079.044.106.142.061.221-.044.078-.141.105-.22.061-.965-.541-2.064-.827-3.177-.827-3.588 0-6.508 2.924-6.508 6.517 0 .88.172 1.732.51 2.537.035.082-.003.178-.086.213-.021.009-.043.012-.063.012z" fill="#7d97f4"/><path d="m246.492 151.172c1.811-.602 2.792-2.559 2.191-4.372s-2.556-2.795-4.367-2.193c-1.81.601-2.791 2.559-2.19 4.372.601 1.812 2.556 2.794 4.366 2.193z" fill="url(#F)"/><path d="m124.941 135.441h-2.54c-.506 0-.916.41-.916.916v3.03c0 .506.41.916.916.916h2.54c.506 0 .916-.41.916-.916v-3.03c0-.506-.41-.916-.916-.916z" fill="url(#G)"/><path d="m124.076 135.441v5.348h.637c.506 0 1.144-.566 1.144-1.073v-3.016c0-.507-.64-1.259-1.144-1.259z" fill="url(#I)"/><path d="m146.577 135.441c-.089 0-.162-.073-.162-.163v-21.718c0-.09.073-.163.162-.163.09 0 .163.073.163.163v21.718c0 .09-.073.163-.163.163z" fill="url(#J)"/><path d="m138.429 110.37c-.018 0-.035-.003-.052-.01-.085-.028-.13-.121-.101-.206.816-2.367 2.427-5.489 5.468-6.922 1.829-.861 3.292-.699 3.353-.693.089.011.152.092.142.18-.011.089-.091.153-.18.142-.014-.001-1.445-.156-3.195.672-2.928 1.389-4.49 4.423-5.283 6.725-.023.068-.086.109-.152.109z" fill="url(#K)"/></svg>