<svg fill="none" height="181" viewBox="0 0 368 181" width="368" xmlns="http://www.w3.org/2000/svg" xmlns:xlink="http://www.w3.org/1999/xlink"><linearGradient id="a"><stop offset="0" stop-color="#e1473d"/><stop offset="1" stop-color="#e9605a"/></linearGradient><linearGradient id="b" gradientUnits="userSpaceOnUse" x1="173.263" x2="175.159" xlink:href="#a" y1="123.554" y2="152.904"/><linearGradient id="c"><stop offset="0" stop-color="#fe7062"/><stop offset="1" stop-color="#ff928e"/></linearGradient><linearGradient id="d" gradientUnits="userSpaceOnUse" x1="120.643" x2="123.649" xlink:href="#c" y1="164.904" y2="176.633"/><linearGradient id="e" gradientUnits="userSpaceOnUse" x1="194.285" x2="178.174" xlink:href="#a" y1="74.3369" y2="128.917"/><linearGradient id="f" gradientUnits="userSpaceOnUse" x1="224.402" x2="125.995" xlink:href="#c" y1="109.701" y2="175.226"/><linearGradient id="g" gradientUnits="userSpaceOnUse" x1="150.095" x2="196.469" xlink:href="#c" y1="87.6107" y2="121.639"/><linearGradient id="h" gradientUnits="userSpaceOnUse" x1="244.011" x2="244.643" xlink:href="#a" y1="142.603" y2="157.118"/><linearGradient id="i"><stop offset="0" stop-color="#09005d"/><stop offset="1" stop-color="#1a0f91"/></linearGradient><linearGradient id="j" gradientUnits="userSpaceOnUse" x1="46.6772" x2="58.3597" xlink:href="#i" y1="-185.522" y2="-165.812"/><linearGradient id="k" gradientUnits="userSpaceOnUse" x1="53.7353" x2="65.4178" xlink:href="#i" y1="-189.706" y2="-169.996"/><linearGradient id="l" gradientUnits="userSpaceOnUse" x1="246.545" x2="231.731" xlink:href="#a" y1="147.842" y2="155.48"/><linearGradient id="m" gradientUnits="userSpaceOnUse" x1="254.434" x2="221.196" xlink:href="#c" y1="120.206" y2="137.34"/><linearGradient id="n" gradientUnits="userSpaceOnUse" x1="228.099" x2="231.653" xlink:href="#i" y1="38.6149" y2="74.5858"/><linearGradient id="o" gradientUnits="userSpaceOnUse" x1="244.608" x2="235.163" xlink:href="#a" y1="166.052" y2="181.511"/><linearGradient id="p" gradientUnits="userSpaceOnUse" x1="140.639" x2="144.193" xlink:href="#i" y1="47.2992" y2="83.2701"/><linearGradient id="q" gradientUnits="userSpaceOnUse" x1="156.362" x2="146.915" xlink:href="#a" y1="166.319" y2="181.777"/><linearGradient id="r" gradientUnits="userSpaceOnUse" x1="192.428" x2="195.982" xlink:href="#i" y1="42.1672" y2="78.1381"/><linearGradient id="s" gradientUnits="userSpaceOnUse" x1="208.63" x2="199.183" xlink:href="#a" y1="166.359" y2="181.817"/><linearGradient id="t" gradientUnits="userSpaceOnUse" x1="119.622" x2="123.177" xlink:href="#i" y1="49.3744" y2="85.3452"/><linearGradient id="u" gradientUnits="userSpaceOnUse" x1="135.144" x2="125.698" xlink:href="#a" y1="166.301" y2="181.76"/><linearGradient id="v" gradientUnits="userSpaceOnUse" x1="255.655" x2="251.284" xlink:href="#a" y1="161.872" y2="161.872"/><linearGradient id="w"><stop offset="0" stop-color="#ff928e"/><stop offset="1" stop-color="#feb3b1"/></linearGradient><linearGradient id="x" gradientUnits="userSpaceOnUse" x1="239.218" x2="243.95" xlink:href="#w" y1="149.654" y2="154.066"/><linearGradient id="y" gradientUnits="userSpaceOnUse" x1="228.697" x2="229.171" xlink:href="#w" y1="105.451" y2="116.337"/><linearGradient id="z" gradientUnits="userSpaceOnUse" x1="237.241" x2="235.583" xlink:href="#w" y1="119.155" y2="125.702"/><linearGradient id="A" gradientUnits="userSpaceOnUse" x1="98.7014" x2="82.0991" xlink:href="#c" y1="8.23524" y2="52.6771"/><linearGradient id="B" gradientUnits="userSpaceOnUse" x1="98.9289" x2="82.3265" xlink:href="#c" y1="8.31934" y2="52.7612"/><linearGradient id="C" gradientUnits="userSpaceOnUse" x1="97.5192" x2="94.4148" xlink:href="#w" y1="24.8843" y2="28.8176"/><linearGradient id="D" gradientUnits="userSpaceOnUse" x1="93.26" x2="91.9418" xlink:href="#a" y1="17.5393" y2="22.4267"/><linearGradient id="E" gradientUnits="userSpaceOnUse" x1="84.841" x2="85.7904" xlink:href="#w" y1="23.064" y2="28.899"/><linearGradient id="F" gradientUnits="userSpaceOnUse" x1="80.7157" x2="81.6651" xlink:href="#w" y1="23.735" y2="29.57"/><linearGradient id="G" gradientUnits="userSpaceOnUse" x1="285.701" x2="269.099" xlink:href="#c" y1="10.2352" y2="54.6771"/><linearGradient id="H" gradientUnits="userSpaceOnUse" x1="285.929" x2="269.327" xlink:href="#c" y1="10.3193" y2="54.7612"/><linearGradient id="I" gradientUnits="userSpaceOnUse" x1="284.519" x2="281.415" xlink:href="#w" y1="26.8843" y2="30.8176"/><linearGradient id="J" gradientUnits="userSpaceOnUse" x1="280.26" x2="278.942" xlink:href="#a" y1="19.5393" y2="24.4267"/><linearGradient id="K" gradientUnits="userSpaceOnUse" x1="271.841" x2="272.79" xlink:href="#w" y1="25.064" y2="30.899"/><linearGradient id="L" gradientUnits="userSpaceOnUse" x1="267.716" x2="268.665" xlink:href="#w" y1="25.735" y2="31.57"/><clipPath id="M"><path d="m0 58h130v95h-130z"/></clipPath><clipPath id="N"><path d="m0 0h130v95h-130z" transform="matrix(-1 0 0 1 368 58)"/></clipPath><clipPath id="O"><path d="m0 0h56.3869v180.45h-56.3869z" transform="matrix(.23414621 -.9722014 .9722014 .23414621 87 54.8193)"/></clipPath><g clip-path="url(#M)"><path d="m128.969 152.174h-36.063v-90.6178l36.063 12.0786z" fill="#abc"/><path d="m124.848 152.174h-26.7899v-35.959l26.7899 3.607z" fill="#eaedf3"/><path d="m98.0581 129.589v-.608l26.7899 2.324v.547z" fill="#abc"/><path d="m105.786 152.174h-.343v-34.959l.343.047z" fill="#abc"/><path d="m118.494 152.174h-.343v-33.248l.343.043z" fill="#abc"/><path d="m130 113.027-34.5176-6.208v-8.0603l34.5176 7.3133z" fill="#4e51fd"/><path d="m130 78.5205-34.5176-11.6935v-8.0605l34.5176 12.799z" fill="#4e51fd"/><path d="m93.2499 152.174h-92.735007v-77.7618l92.735007-12.5414z" fill="#bfc8d6"/><path d="m42.2459 80.1886v71.9854h-36.40728v-67.7291l3.9103-.453z" fill="#eaedf3"/><path d="m95.4824 66.827-95.4824 12.1803v-6.9095l95.4824-13.3313z" fill="#4e51fd"/><path d="m95.4823 106.819-47.0546 3.183v-7.494l47.0546-3.7493z" fill="#4e51fd"/><g fill="#abc"><path d="m14.4256 152.174h-.3438v-68.7153l.3438-.0347z"/><path d="m23.3555 152.174h-.3433v-69.7476l.3433-.0357z"/><path d="m32.8006 152.174h-.3438v-70.8487l.3438-.0375z"/><path d="m5.83862 96.2534v-.5367l36.40728-3.5457v.5706z"/><path d="m5.83862 104.306v-.537l36.40728-3.039v.57z"/><path d="m5.83862 131.952v-.537l36.40728-1.301v.571z"/></g><path d="m89.1284 115.859v36.315h-37.9526v-34.101l7.3428-.428 1.9207-.109.3293-.018 17.6864-1.039.3749-.019z" fill="#eaedf3"/><path d="m51.1758 130.754v-.577l37.9526-1.426v.614z" fill="#abc"/><path d="m60.7925 117.511v34.663h-.3433v-34.644z" fill="#abc"/><path d="m78.8242 116.454v35.72h-.1716v-35.701z" fill="#abc"/><path d="m69.8946 152.174h-.3438v-22.687l.3438-.007z" fill="#abc"/><path d="m42.2459 135.26v16.915h-36.31243c-.03313-.32-.09436-.614-.09436-.874v-66.8561l3.87065-.453c2.20334 2.3404 4.42674 6.6938 5.37534 14.7659 2.1667 18.4462 7.2053 23.4062 14.539 24.9562 3.5098.741 9.0157 4.665 12.6223 11.545z" fill="#fff" opacity=".5"/><path d="m89.1284 144.077v8.097h-37.9526v-34.102l7.3428-.428c.7874 1.383 1.4786 3.07 1.9067 5.125.0045.021.0281.044.0331.065.0979.468.2098.924.3197 1.364 2.6561 10.866 8.33 13.882 16.4553 14.853.3895.047.8025.112 1.2292.195.1023.022.267.044.3709.066 3.0686.66 6.9397 2.266 10.2949 4.765z" fill="#fff" opacity=".5"/><path d="m130 113.027-1 .819-35.8335-5.4 2.3333-1.627z" fill="#4e51fd"/><path d="m48.5 110.002 1.2778 1.054 43.3887-2.61 2.3334-1.627z" fill="#4e51fd"/><path d="m130 78.5204-1 .8622-35.8335-10.1788 2.3333-2.3769z" fill="#4e51fd"/><path d="m0 79.0072.499892.5305 92.666708-10.3339 2.3333-2.3769z" fill="#4e51fd"/></g><g clip-path="url(#N)"><path d="m239.031 152.174h36.063v-90.6178l-36.063 12.0786z" fill="#abc"/><path d="m243.152 152.174h26.79v-35.959l-26.79 3.607z" fill="#eaedf3"/><path d="m269.942 129.589v-.608l-26.79 2.324v.547z" fill="#abc"/><path d="m262.214 152.174h.343v-34.959l-.343.047z" fill="#abc"/><path d="m249.506 152.174h.343v-33.248l-.343.043z" fill="#abc"/><path d="m238 113.027 34.518-6.208v-8.0603l-34.518 7.3133z" fill="#4e51fd"/><path d="m238 78.5205 34.518-11.6935v-8.0605l-34.518 12.799z" fill="#4e51fd"/><path d="m274.75 152.174h92.735v-77.7618l-92.735-12.5414z" fill="#bfc8d6"/><path d="m325.754 80.1886v71.9854h36.407v-67.7291l-3.91-.453z" fill="#eaedf3"/><path d="m272.518 66.827 95.482 12.1803v-6.9095l-95.482-13.3313z" fill="#4e51fd"/><path d="m272.518 106.819 47.054 3.183v-7.494l-47.054-3.7493z" fill="#4e51fd"/><g fill="#abc"><path d="m353.574 152.174h.344v-68.7153l-.344-.0347z"/><path d="m344.644 152.174h.344v-69.7476l-.344-.0357z"/><path d="m335.199 152.174h.344v-70.8487l-.344-.0375z"/><path d="m362.161 96.2534v-.5367l-36.407-3.5457v.5706z"/><path d="m362.161 104.306v-.537l-36.407-3.039v.57z"/><path d="m362.161 131.952v-.537l-36.407-1.301v.571z"/></g><path d="m278.872 115.859v36.315h37.952v-34.101l-7.343-.428-1.92-.109-.33-.018-17.686-1.039-.375-.019z" fill="#eaedf3"/><path d="m316.824 130.754v-.577l-37.952-1.426v.614z" fill="#abc"/><path d="m307.207 117.511v34.663h.344v-34.644z" fill="#abc"/><path d="m289.176 116.454v35.72h.171v-35.701z" fill="#abc"/><path d="m298.105 152.174h.344v-22.687l-.344-.007z" fill="#abc"/><path d="m325.754 135.26v16.915h36.313c.033-.32.094-.614.094-.874v-66.8561l-3.871-.453c-2.203 2.3404-4.427 6.6938-5.375 14.7659-2.167 18.4462-7.205 23.4062-14.539 24.9562-3.51.741-9.016 4.665-12.622 11.545z" fill="#fff" opacity=".5"/><path d="m278.872 144.077v8.097h37.952v-34.102l-7.343-.428c-.787 1.383-1.478 3.07-1.906 5.125-.005.021-.028.044-.033.065-.098.468-.21.924-.32 1.364-2.656 10.866-8.33 13.882-16.455 14.853-.39.047-.803.112-1.23.195-.102.022-.267.044-.37.066-3.069.66-6.94 2.266-10.295 4.765z" fill="#fff" opacity=".5"/><path d="m238 113.027 1 .819 35.833-5.4-2.333-1.627z" fill="#4e51fd"/><path d="m319.5 110.002-1.278 1.054-43.389-2.61-2.333-1.627z" fill="#4e51fd"/><path d="m238 78.5204 1 .8622 35.833-10.1788-2.333-2.3769z" fill="#4e51fd"/><path d="m368 79.0072-.5.5305-92.667-10.3339-2.333-2.3769z" fill="#4e51fd"/></g><path d="m122.43 164.303h107.325v6.321h-107.325z" fill="url(#b)"/><path d="m120 162.844h2.428v8.589h-2.428z" fill="url(#d)"/><path d="m227.974 124.696c0-1.629-1.743-2.696-4.365-2.696h-98.762c-2.622 0-4.845 1.067-4.845 2.696v37.073c0 1.63 2.223 3.019 4.845 3.019h98.762c2.622 0 4.365-1.39 4.365-3.019z" fill="url(#e)"/><path d="m225.383 126.191c0-1.491-1.996-2.894-4.469-2.894h-93.169c-2.472 0-4.344 1.403-4.344 2.894v33.887c0 1.491 1.872 2.764 4.344 2.764h93.169c2.473 0 4.469-1.273 4.469-2.764z" fill="url(#f)"/><path d="m254.281 150.804-4.869-14.975c-.122-.377-.475-.538-.87-.538h-19.596v35.333h26.49l-1.153-19.82z" fill="url(#g)"/><path d="m255.691 165.534c-.261-.172-.636-.265-1-.259l-20.428.393-.104 5.803 20.484.502c.747 0 1.497-.361 1.497-.866v-4.917c0-.247-.187-.484-.449-.656z" fill="url(#h)"/><path d="m250.479 149.946-2.944-11.668c-.103-.407-.468-.718-.887-.718h-11.512c-.247 0-.483.128-.655.305-.172.178-.265.43-.259.678l.276 9.355c.013.438.336.811.769.88l14.179 2.296c.305.049.613-.057.821-.284s.289-.543.213-.843z" fill="url(#j)"/><path d="m249.891 137.423-.15.025c-.255.043-.479.191-.619.407-.14.218-.181.485-.114.734l3.209 11.947c.124.462.583.751 1.051.662l1.013-.19z" fill="url(#k)"/><path d="m235.28 151.661h3.681c.458 0 .83.372.83.831v.443c0 .46-.372.832-.83.832h-3.681c-.459 0-.831-.372-.831-.832v-.443c0-.459.372-.831.831-.831z" fill="url(#l)"/><path d="m230.33 124.794c-.307-.022-.708.087-.933.297s-.452.508-.452.816v9.384h11.957s-.641-9.771-10.574-10.497z" fill="url(#m)"/><path d="m233.809 173.059c-.786-4.09 1.888-8.044 5.973-8.832s8.034 1.89 8.821 5.98c.786 4.09-1.888 8.044-5.973 8.831-4.085.788-8.034-1.889-8.821-5.979z" fill="url(#n)"/><path d="m247.532 174.398c.063 0 .123-.036.149-.099.357-.845.538-1.739.538-2.664 0-3.771-3.065-6.839-6.831-6.839-1.168 0-2.322.299-3.335.869-.079.044-.105.142-.061.221s.141.106.22.061c.965-.541 2.065-.826 3.177-.826 3.588 0 6.508 2.923 6.508 6.516 0 .88-.171 1.732-.51 2.535-.035.082.003.179.086.213.021.01.043.013.063.013z" fill="#7d97f4"/><path d="m239.882 174.832c-1.763-.731-2.6-2.754-1.87-4.519.73-1.764 2.751-2.602 4.514-1.871 1.762.73 2.599 2.754 1.869 4.518-.73 1.765-2.751 2.603-4.513 1.872z" fill="url(#o)"/><path d="m145.613 173.662c-.963-4.052 1.537-8.118 5.585-9.082 4.047-.964 8.108 1.54 9.071 5.592.962 4.052-1.538 8.118-5.585 9.082s-8.109-1.54-9.071-5.592z" fill="url(#p)"/><path d="m159.287 174.657c.063 0 .123-.037.15-.1.356-.842.537-1.738.537-2.663 0-3.771-3.065-6.84-6.831-6.84-1.168 0-2.322.3-3.335.87-.079.044-.105.142-.061.221.044.078.142.105.22.061.965-.541 2.063-.827 3.177-.827 3.588 0 6.508 2.924 6.508 6.517 0 .88-.171 1.732-.51 2.537-.035.082.003.178.087.213.02.009.042.012.063.012z" fill="#7d97f4"/><path d="m152.131 175.258c-1.852-.459-2.982-2.334-2.523-4.189.458-1.854 2.331-2.985 4.182-2.526 1.852.459 2.982 2.334 2.524 4.188-.459 1.854-2.331 2.985-4.183 2.527z" fill="url(#q)"/><path d="m197.901 173.665c-.97-4.05 1.523-8.121 5.569-9.092 4.045-.971 8.111 1.526 9.081 5.576.969 4.05-1.524 8.121-5.57 9.092-4.045.971-8.111-1.525-9.08-5.576z" fill="url(#r)"/><path d="m211.561 174.657c.063 0 .122-.037.149-.1.356-.844.538-1.738.538-2.663 0-3.771-3.065-6.84-6.832-6.84-1.167 0-2.321.3-3.334.87-.079.044-.106.142-.062.221.045.078.142.105.221.061.964-.541 2.064-.827 3.177-.827 3.588 0 6.508 2.924 6.508 6.517 0 .88-.172 1.732-.51 2.537-.035.082.003.178.086.213.021.009.043.012.063.012z" fill="#7d97f4"/><path d="m204.153 175.202c-1.81-.604-2.788-2.562-2.185-4.374s2.559-2.792 4.369-2.188 2.788 2.562 2.185 4.374-2.559 2.792-4.369 2.188z" fill="url(#s)"/><path d="m124.391 173.663c-.963-4.052 1.538-8.119 5.585-9.082 4.047-.964 8.108 1.539 9.071 5.591.963 4.053-1.538 8.119-5.585 9.083s-8.108-1.54-9.071-5.592z" fill="url(#t)"/><path d="m138.067 174.657c.063 0 .123-.037.15-.1.356-.844.537-1.738.537-2.663 0-3.771-3.065-6.84-6.831-6.84-1.168 0-2.321.3-3.334.87-.079.044-.106.142-.062.221.044.078.142.105.221.061.964-.541 2.064-.827 3.177-.827 3.588 0 6.508 2.924 6.508 6.517 0 .88-.172 1.732-.511 2.537-.035.082.003.178.087.213.02.009.042.012.063.012z" fill="#7d97f4"/><path d="m130.648 175.172c-1.81-.602-2.791-2.559-2.19-4.372s2.556-2.795 4.366-2.193c1.811.601 2.791 2.559 2.191 4.372-.601 1.812-2.556 2.794-4.367 2.193z" fill="url(#u)"/><path d="m252.199 159.441h2.54c.506 0 .916.41.916.916v3.03c0 .506-.41.916-.916.916h-2.54c-.505 0-.915-.41-.915-.916v-3.03c0-.506.41-.916.915-.916z" fill="url(#v)"/><path d="m253.064 159.441v5.348h-.636c-.506 0-1.144-.566-1.144-1.073v-3.016c0-.507.639-1.259 1.144-1.259z" fill="url(#x)"/><path d="m230.563 159.441c.09 0 .162-.073.162-.163v-21.718c0-.09-.072-.163-.162-.163s-.162.073-.162.163v21.718c0 .09.072.163.162.163z" fill="url(#y)"/><path d="m238.712 134.37c.017 0 .034-.003.052-.01.085-.028.129-.121.1-.206-.816-2.367-2.426-5.489-5.468-6.922-1.829-.861-3.292-.699-3.353-.693-.088.011-.151.092-.142.18.011.089.092.153.18.142.014-.001 1.445-.156 3.196.672 2.927 1.389 4.489 4.423 5.282 6.725.023.068.086.109.153.109z" fill="url(#z)"/><path d="m88.0375 43.8214c3.771 0 6.8281-3.0672 6.8281-6.8507 0-3.7836-3.0571-6.8508-6.8281-6.8508s-6.828 3.0672-6.828 6.8508c0 3.7835 3.057 6.8507 6.828 6.8507z" fill="url(#A)"/><path d="m94.853 36.6036h-13.6435s-.5439 3.8024 5.5505 14.2168c.2662.4543.7514.7256 1.2765.7267.5251 0 1.0114-.2671 1.2776-.7214 6.0933-10.4155 5.5389-14.2221 5.5389-14.2221z" fill="url(#B)"/><path d="m88.0343 51.769v.0389h.0021c-.5942 0-1.1486-.3281-1.4473-.8381-3.5623-6.0874-4.8672-9.9371-5.3346-12.0906-.1331-.4953-.2096-.9811-.2337-1.4795-.0409-.509-.0094-.7245-.0063-.7466l.0178-.1094c.2746-3.6804 3.3276-6.5437 7.0052-6.5437s6.806 2.9044 7.0146 6.6142c.0052.0484.0157.1714.0115.3775v.0252c0 .673-.0943 1.3397-.2809 1.9811-.4831 2.1525-1.7974 5.9633-5.2979 11.9487-.3007.5142-.8352.8244-1.4494.8244zm-6.6383-14.8572c-.0021.103.001.2492.0199.47.0231.4711.0954.9254.2222 1.3954l.0021.0074c.4601 2.1251 1.7523 5.9254 5.2905 11.9728.2275.3891.6498.6309 1.1047.6309v.1987-.1987c.4098 0 .8783-.2439 1.1078-.6362 3.4785-5.9464 4.778-9.7257 5.2538-11.8498l.0032-.0126c.1771-.6067.2274-1.2376.2274-1.8749l-.0398-.0284v-.0021c0-.1987.0335-.306.0304-.3333l.0189-.0116c-.1939-3.5016-3.0918-6.244-6.609-6.244-3.5173 0-6.4131 2.7813-6.6132 6.3134l-.0053.2019h-.0126z" fill="#fff" opacity=".8"/><path d="m90.8473 39.7463c1.5397-1.5448 1.5397-4.0496 0-5.5944-1.5398-1.5449-4.0362-1.5449-5.5759 0-1.5398 1.5448-1.5398 4.0496 0 5.5944 1.5397 1.5449 4.0361 1.5449 5.5759 0z" fill="url(#C)"/><path d="m88.0596 41.1253c-2.2952 0-4.1629-1.8739-4.1629-4.1767 0-2.3029 1.8677-4.1767 4.1629-4.1767s4.1628 1.8738 4.1628 4.1767c0 2.3028-1.8676 4.1767-4.1628 4.1767zm0-7.9118c-2.0521 0-3.7227 1.6751-3.7227 3.7351 0 2.0599 1.6696 3.735 3.7227 3.735s3.7227-1.6751 3.7227-3.735c0-2.06-1.6696-3.7351-3.7227-3.7351z" fill="url(#D)"/><path d="m84.3202 32.8296c-.0189 0-.0367-.0073-.0504-.0231-.0241-.0273-.0209-.0694.0074-.0936 1.1078-.9548 2.5226-1.4795 3.9847-1.4795.0366 0 .066.0294.066.0662s-.0294.0663-.066.0663c-1.4306 0-2.8151.5142-3.8988 1.448-.0126.0105-.0272.0157-.0429.0157z" fill="url(#E)"/><path d="m82.2081 37.4386c-.0367 0-.066-.0294-.066-.0662 0-1.1451.3165-2.2629.9149-3.2314.0189-.0315.0598-.041.0912-.021.0315.0189.0409.0599.021.0915-.5859.9474-.8951 2.041-.8951 3.1619 0 .0368-.0293.0663-.066.0663z" fill="url(#F)"/><path d="m275.038 45.8214c3.771 0 6.828-3.0672 6.828-6.8507 0-3.7836-3.057-6.8508-6.828-6.8508-3.772 0-6.829 3.0672-6.829 6.8508 0 3.7835 3.057 6.8507 6.829 6.8507z" fill="url(#G)"/><path d="m281.853 38.6036h-13.643s-.544 3.8024 5.55 14.2168c.266.4543.751.7256 1.276.7267.526 0 1.012-.2671 1.278-.7214 6.093-10.4155 5.539-14.2221 5.539-14.2221z" fill="url(#H)"/><path d="m275.034 53.769v.0389h.002c-.594 0-1.148-.3281-1.447-.8381-3.562-6.0874-4.867-9.9371-5.334-12.0906-.134-.4953-.21-.9811-.234-1.4795-.041-.509-.01-.7245-.006-.7466l.017-.1094c.275-3.6804 3.328-6.5437 7.005-6.5437 3.678 0 6.807 2.9044 7.015 6.6142.005.0484.016.1714.012.3775v.0252c0 .673-.095 1.3397-.281 1.9811-.483 2.1525-1.798 5.9633-5.298 11.9487-.301.5142-.835.8244-1.45.8244zm-6.638-14.8572c-.002.103.001.2492.02.47.023.4711.095.9254.222 1.3954l.002.0074c.46 2.1251 1.753 5.9254 5.291 11.9728.227.3891.65.6309 1.104.6309v.1987-.1987c.41 0 .879-.2439 1.108-.6362 3.479-5.9464 4.778-9.7257 5.254-11.8498l.003-.0126c.177-.6067.228-1.2376.228-1.8749l-.04-.0284v-.0021c0-.1987.033-.306.03-.3333l.019-.0116c-.194-3.5016-3.092-6.244-6.609-6.244s-6.413 2.7813-6.613 6.3134l-.005.2019h-.013z" fill="#fff" opacity=".8"/><path d="m277.847 41.7463c1.54-1.5448 1.54-4.0496 0-5.5944-1.539-1.5449-4.036-1.5449-5.576 0-1.539 1.5448-1.539 4.0496 0 5.5944 1.54 1.5449 4.037 1.5449 5.576 0z" fill="url(#I)"/><path d="m275.06 43.1253c-2.296 0-4.163-1.8739-4.163-4.1767 0-2.3029 1.867-4.1767 4.163-4.1767 2.295 0 4.162 1.8738 4.162 4.1767 0 2.3028-1.867 4.1767-4.162 4.1767zm0-7.9118c-2.052 0-3.723 1.6751-3.723 3.7351 0 2.0599 1.669 3.735 3.723 3.735 2.053 0 3.722-1.6751 3.722-3.735 0-2.06-1.669-3.7351-3.722-3.7351z" fill="url(#J)"/><path d="m271.32 34.8296c-.019 0-.037-.0073-.05-.0231-.024-.0273-.021-.0694.007-.0936 1.108-.9548 2.523-1.4795 3.985-1.4795.037 0 .066.0294.066.0662s-.029.0663-.066.0663c-1.431 0-2.815.5142-3.899 1.448-.012.0105-.027.0157-.043.0157z" fill="url(#K)"/><path d="m269.208 39.4386c-.037 0-.066-.0294-.066-.0662 0-1.1451.317-2.2629.915-3.2314.019-.0315.06-.041.091-.021.032.0189.041.0599.021.0915-.586.9474-.895 2.041-.895 3.1619 0 .0368-.029.0663-.066.0663z" fill="url(#L)"/><g clip-path="url(#O)"><path d="m272.934 53.4754c-.029.1206-.097.2342-.2.3302-.34.3098-.962.3099-1.386-.0026-.301-.2201-.602-.4382-.903-.6562-.428-.3089-.501-.8121-.166-1.1253.338-.3125.958-.3175 1.386-.0086.306.2215.613.4429.918.6665.294.2161.416.5232.351.796zm-3.883-2.741c-.026.11-.083.2149-.176.3066-.323.3227-.941.3417-1.38.0435-.309-.2108-.621-.4202-.933-.6275-.443-.2946-.542-.7973-.224-1.1235.319-.3262.935-.3501 1.378-.0555.317.2107.631.425.948.6379.316.2149.453.5344.385.8178zm-4.005-2.6208c-.024.0994-.073.1972-.151.2815-.306.3337-.918.3764-1.368.0911-.32-.2002-.64-.4003-.961-.5983-.454-.2817-.579-.7818-.281-1.1195.301-.3371.912-.3847 1.366-.103.328.2021.653.4056.978.6092.336.2131.488.5449.417.839zm-4.119-2.4937c-.022.0909-.066.1767-.13.2551-.286.3474-.892.4096-1.357.1386-.328-.1908-.659-.3802-.988-.5689-.466-.2668-.617-.7664-.339-1.1157.281-.3486.888-.4151 1.355-.1504.336.1907.669.3828 1.005.5777.358.2093.528.5547.454.8615zm-4.231-2.3617c-.019.0804-.055.1568-.106.2294-.266.3568-.865.4407-1.344.1868-.336-.1795-.672-.3589-1.012-.5369-.478-.2518-.656-.7467-.395-1.1068.261-.3602.858-.449 1.337-.1972.344.1814.686.3622 1.03.5457.382.2039.566.5638.49.8811zm-4.332-2.2229c-.017.0698-.047.1364-.088.2003-.243.369-.839.4739-1.324.2341-.344-.1702-.689-.3361-1.034-.5042-.488-.2362-.692-.7284-.452-1.098.241-.3696.832-.48 1.32-.2438.35.1694.703.3394 1.053.5109.403.1978.607.5693.527.9014zm-4.427-2.0821c-.014.0593-.036.1165-.069.1712-.223.3784-.807.5041-1.304.2814-.35-.1581-.703-.3148-1.056-.4693-.501-.2191-.727-.7053-.509-1.0871.217-.3818.8-.5124 1.3-.2912.358.158.717.316 1.075.4782.424.1918.649.5748.566.9175zm-4.513-1.9351c-.011.0486-.029.096-.054.1414-.202.3878-.776.5337-1.283.3266-.358-.1467-.717-.2913-1.076-.4339-.508-.2028-.761-.6821-.566-1.074.196-.3891.766-.5405 1.277-.3391.364.1459.731.2925 1.095.4426.447.1816.691.5783.605.9357zm-4.591-1.7862c-.01.038-.022.0755-.039.1116-.178.3957-.743.5639-1.257.3731-.364-.1347-.729-.2673-1.093-.3998-.517-.1872-.794-.6612-.619-1.0576.176-.3985.734-.5708 1.251-.3836.37.1339.743.2685 1.112.4066.466.1727.734.5795.645.9497zm-4.663-1.6333c-.007.0275-.014.055-.026.0812-.157.4031-.707.5906-1.23.4176-.37-.1227-.738-.2426-1.108-.3632-.525-.1688-.829-.6359-.671-1.0411.152-.4064.7-.5967 1.222-.4286.376.1219.751.2437 1.126.3698.486.1618.776.5808.684.9636zm-4.723-1.4798c-.004.0169-.008.0338-.012.0486-.136.4104-.673.6166-1.201.4626-.373-.1099-.747-.2178-1.123-.3263-.528-.1519-.846-.6089-.721-1.0219.131-.4117.664-.6234 1.195-.4709.382.1098.76.219 1.141.3309.507.1488.82.5778.724.9755zm-4.775-1.3223s-.003.0127-.004.0169c-.115.4177-.637.6433-1.171.5034-.379-.0979-.755-.1952-1.135-.2889-.535-.1335-.891-.5771-.772-1.0005.11-.419.63-.6474 1.163-.5145.385.0971.769.1942 1.153.2956.526.1357.862.577.764.9873zm-4.818-1.1671c-.099.4125-.602.6517-1.135.5301-.379-.0846-.76-.1698-1.14-.2523-.54-.1166-.905-.5558-.82-.9786.086-.4178.592-.6718 1.13-.5559.387.0844.774.1709 1.162.2575.538.1208.897.5609.807.9844-.001.0042-.003.0106-.004.0148zm-4.852-1.012c-.096.3998-.573.6385-1.095.5398-.384-.0746-.766-.1465-1.151-.217-.542-.099-.929-.528-.866-.9559s.555-.6943 1.096-.5953c.391.0717.782.1456 1.169.2188.54.1032.922.533.853.9596-.003.0149-.007.0318-.011.0466zm-4.882-.8556c-.092.3849-.544.6274-1.055.5447-.385-.0614-.77-.1206-1.155-.1798-.543-.0814-.95-.4995-.909-.9305s.517-.7146 1.06-.6332c.391.0584.784.1195 1.174.1822.544.0863.946.5052.899.937-.004.026-.007.0521-.013.0774zm-4.901-.7016c-.09.3723-.519.6136-1.018.5517-.385-.048-.772-.0966-1.161-.1432-.543-.0659-.968-.4704-.949-.9044.019-.4341.479-.7329 1.023-.669.394.0478.787.0956 1.178.1449.545.0687.963.4782.939.911-.003.0372-.007.0745-.015.1083zm-4.913-.5498c-.087.3617-.493.6019-.978.5545-.387-.0375-.773-.0721-1.161-.1074-.545-.0484-.986-.4412-.987-.8778 0-.4365.441-.751.985-.7026.395.0345.785.0704 1.178.1091.544.0526.982.4491.98.8849-.001.0492-.006.0949-.017.1393zm-4.914-.3981c-.084.349-.468.5901-.94.5593-.387-.0262-.775-.0503-1.161-.0716-.545-.0329-1.002-.4136-1.025-.851-.023-.4375.405-.7665.948-.7363.394.0232.785.0479 1.178.0733.545.035 1 .4199 1.017.8582.003.0589-.002.1159-.015.1709zm-4.911-.2473c-.082.3384-.445.5778-.903.5614-.387-.015-.772-.0272-1.161-.0379-.544-.0147-1.017-.3838-1.057-.8231-.042-.4399.365-.7825.91-.7678.393.012.784.0234 1.178.0375.543.019 1.012.3916 1.049.8302.007.0687.002.1369-.013.1982zm-4.889-.1011c-.079.3279-.425.5648-.869.5607-.384-.003-.767-.0034-1.152-.0022-.542-.0007-1.03-.3555-1.092-.7957-.06-.4396.328-.7959.871-.7973.391.0001.779-.0004 1.169.004.541.0029 1.028.3619 1.082.8022.01.0785.005.1557-.012.2277zm-4.867.041c-.076.3173-.404.5517-.832.5628-.381.0088-.763.0197-1.145.0306-.541.0154-1.04-.3265-1.123-.7649-.082-.4406.291-.8071.829-.8253.388-.0117.776-.0213 1.163-.0309.54-.0133 1.039.3328 1.116.7721.015.0888.012.1752-.008.2556zm-4.843.1808c-.074.3068-.383.5387-.799.5594-.382.0201-.76.0407-1.14.0635-.535.0322-1.049-.2976-1.149-.7356-.1-.4381.254-.8184.789-.8505.386-.0236.77-.0451 1.157-.0638.537-.0273 1.048.3039 1.142.7428.022.0992.019.1948-.002.2836zm-4.813.3179c-.072.2982-.363.5257-.765.5587-.378.0298-.754.0623-1.133.0942-.533.0462-1.059-.2707-1.176-.7063-.118-.4378.219-.8289.75-.8757.382-.0333.766-.0661 1.147-.0973.533-.044 1.058.2771 1.17.7135.028.1076.028.2128.005.3101zm-4.78.4512c-.069.2877-.346.5141-.732.5553-.375.0396-.751.0833-1.124.1256-.528.0608-1.065-.2432-1.2-.6785s.184-.8373.713-.8981c.378-.0431.759-.0856 1.138-.1287.53-.058 1.064.2496 1.196.6842.035.1159.039.2309.013.3366zm-4.739.5817c-.068.2792-.329.5005-.701.5519s-.744.1028-1.114.157c-.523.0754-1.069-.2151-1.222-.6479-.152-.4329.149-.8437.672-.9191.376-.055.754-.1072 1.129-.158.525-.0726 1.07.2221 1.217.6558.044.1247.048.2489.021.3631zm-4.696.7086c-.066.2708-.315.4882-.672.5478-.368.0612-.737.1223-1.103.1863-.518.09-1.076-.1876-1.244-.6174-.167-.4297.114-.852.632-.94.372-.0647.744-.1274 1.118-.1873.52-.0851 1.074.194 1.239.6252.05.1331.058.267.029.3875zm-4.649.8319c-.063.2623-.298.4767-.641.5416-.366.0709-.728.1425-1.091.2141-.512.1026-1.077-.1609-1.262-.5882s.081-.8557.593-.9582c.369-.0746.738-.147 1.106-.2173.514-.0998 1.078.1679 1.257.5961.06.142.072.2835.04.4125zm-4.598.9516c-.061.2538-.283.4645-.614.5368-.359.0793-.721.16-1.08.2413-.507.1151-1.08-.1348-1.281-.5591-.2-.4242.048-.8613.555-.9764.365-.0821.728-.165 1.092-.245.509-.1123 1.079.1412 1.277.5648.069.1488.081.2995.049.4348zm-4.543 1.0699c-.059.2453-.269.4501-.585.5306-.355.089-.71.178-1.066.2691-.502.1276-1.081-.1082-1.296-.5293-.216-.4211.014-.8649.515-.9925.359-.0926.721-.1824 1.079-.2729.501-.1255 1.082.1152 1.292.535.08.1557.096.314.061.46zm-4.488 1.1817c-.058.239-.257.4394-.56.5232-.351.0966-.7.196-1.052.2948-.494.1408-1.082-.0836-1.312-.4995-.231-.4159-.017-.8678.476-1.0086.356-.1003.711-.2005 1.065-.2986.496-.138 1.08.09 1.308.5073.089.1625.108.3306.072.4829zm-4.429 1.2922c-.055.2306-.242.4272-.532.5142-.345.1071-.693.2135-1.038.3205-.488.1534-1.079-.0584-1.325-.4691-.246-.4128-.048-.8686.437-1.0225.349-.1107.7-.2185 1.048-.3249.49-.1485 1.081.0632 1.323.4775.099.1693.123.345.085.5037zm-4.363 1.3998c-.053.2221-.231.4143-.507.5067-.342.1147-.683.2293-1.022.3468-.48.1644-1.079-.0338-1.338-.4408-.259-.4069-.078-.8715.401-1.0359.345-.1182.689-.2344 1.034-.3506.481-.1616 1.078.0381 1.334.4465.109.174.138.3601.099.5251zm-4.299 1.5023c-.052.2158-.22.4036-.483.4992-.335.123-.673.2453-1.008.3704-.473.1748-1.077-.0086-1.348-.4118s-.109-.8723.364-1.0471c.339-.1265.679-.2503 1.018-.3748.475-.172 1.075.015 1.345.4182.12.1808.153.3725.112.5459zm-4.233 1.6035c-.05.2094-.211.3901-.46.489-.331.1306-.662.2612-.991.3946-.464.1859-1.074.0145-1.358-.3828-.283-.3973-.137-.8725.327-1.0583.334-.1342.669-.2663 1.003-.3984.466-.1831 1.072-.0082 1.355.3913.13.1855.167.3848.124.5646zm-4.165 1.7005c-.049.203-.199.3793-.438.4808-.324.1389-.651.2751-.973.4168-.459.1962-1.068.0382-1.364-.3554s-.167-.8705.291-1.0667c.328-.1426.656-.2829.986-.4206.46-.1935 1.069-.0312 1.362.3617.14.1882.184.3979.139.584zm-4.093 1.7959c-.047.1946-.189.3686-.416.4705-.32.1445-.638.2917-.959.4383-.449.2073-1.064.0613-1.371-.3257-.309-.3878-.195-.8707.254-1.0759.321-.1487.645-.2967.968-.4426.452-.2046 1.063-.055 1.37.332.153.1936.2.4109.153.6055zm-4.021 1.8872c-.046.1882-.18.3572-.396.4596-.314.1527-.627.3055-.942.4604-.44.2162-1.058.0829-1.377-.2983s-.222-.868.218-1.0843c.317-.1563.634-.3105.951-.4647.443-.2156 1.06-.0781 1.376.3045.164.1983.215.4212.167.6221zm-3.948 1.9741c-.044.1819-.172.3458-.374.4515-.31.1583-.617.3193-.924.4804-.434.2267-1.052.1046-1.384-.2707-.331-.3775-.248-.8655.183-1.0928.311-.1625.623-.3244.933-.4848.434-.2245 1.054-.0997 1.383.2771.174.2009.233.432.183.6393zm-3.875 2.0612c-.042.1756-.163.3344-.355.4406-.302.1666-.605.3331-.9047.5004-.4248.2356-1.0462.1262-1.3877-.2447-.3416-.371-.2745-.8628.1504-1.0985.3031-.1687.6095-.3388.9148-.5047.427-.2329 1.0482-.1214 1.3862.251.185.2035.25.4429.199.6566zm-3.8008 2.144c-.0407.1692-.1548.323-.3373.429-.2955.1727-.5911.3455-.8871.5204-.4156.2445-1.0401.1478-1.3917-.2166-.3517-.3644-.3012-.8581.1148-1.1047.2993-.1764.5981-.3506.8968-.5248.4178-.2418 1.0417-.143 1.3902.2229.1984.2067.2646.4531.2116.6731zm-3.7226 2.2231c-.0393.1629-.1464.3116-.3176.4181-.2912.1783-.5796.3572-.8686.5383-.4064.2535-1.0306.168-1.3924-.1899s-.3249-.8548.0814-1.1083c.2922-.1825.5839-.3629.8783-.5427.4085-.2507 1.0323-.1631 1.3936.1969.2092.2093.282.464.228.6883zm-3.648 2.3038c-.0382.1587-.1384.3024-.3005.4066-.2841.1844-.5682.3689-.8501.5561-.3998.2618-1.0244.1897-1.3958-.1638-.3719-.3514-.3517-.8501.0481-1.1119.2851-.1887.5724-.3746.8597-.5605.3993-.2597 1.0256-.1827 1.3943.1702.2201.2118.2999.4728.2438.7054z" fill="#150a80"/></g></svg>