<svg xmlns="http://www.w3.org/2000/svg" viewBox="0 0 328.09 328.09"><defs><style>.cls-1{fill:#4e8466;}</style></defs><g id="camion"><path class="cls-1" d="M280.67,230.45H196.19a9.07,9.07,0,0,0,1.4-1.31,9.61,9.61,0,0,0-1-13.54,9.6,9.6,0,0,0-12.58,14.5,4.82,4.82,0,0,0,.44.35H112.56a9.07,9.07,0,0,0,1.4-1.31,9.59,9.59,0,1,0-13.54,1c.15.13.3.24.44.35H83.46a9.07,9.07,0,0,0,1.4-1.31,9.6,9.6,0,1,0-8.08,3.27,1.42,1.42,0,0,0,.2,0H280.67a1,1,0,0,0,0-2Zm-97.91-7.06a7.6,7.6,0,1,1,2.6,5.2A7.59,7.59,0,0,1,182.76,223.39Zm-83.62,0a7.59,7.59,0,1,1,2.59,5.2A7.54,7.54,0,0,1,99.14,223.39Zm-27.27-5.52a7.6,7.6,0,1,1,.76,10.72A7.56,7.56,0,0,1,71.87,217.87Z"/><rect class="cls-1" x="235.1" y="198.72" width="14" height="2" rx="1"/><rect class="cls-1" x="259.1" y="198.72" width="14" height="2" rx="1"/><path class="cls-1" d="M290.39,101.15H271.1a2.51,2.51,0,0,0-2.5,2.51v23.82a2.51,2.51,0,0,0,2.5,2.51h8.64v37H264.1a3.62,3.62,0,0,0,.31-2.39l-1.31-5.89V142a6.21,6.21,0,0,0,3.41-.42c2.38-1,3.77-4.22,3.74-6.74a3.59,3.59,0,0,0-3.17-3.74,3.48,3.48,0,0,0-3.71,3.12l0,.37c0,.23,0,.54-.09.71l-.15-.15V109H266a1,1,0,0,0,1-1v-1.19a6.69,6.69,0,0,0-6.69-6.68h-56.9a6.69,6.69,0,0,0-6.69,6.68V108a1,1,0,0,0,1,1h2.9V152a14.13,14.13,0,0,0-4.12-.63h-137a10.84,10.84,0,0,0-8.2,3.62A9.73,9.73,0,0,0,49,162.72v51.83a9.19,9.19,0,0,0,9,9.12h5.23a3.45,3.45,0,0,0,3.4-2.84,11.16,11.16,0,0,1,22,.07,3.4,3.4,0,0,0,3.4,2.77h.15a3.41,3.41,0,0,0,3.4-2.77,11.09,11.09,0,0,1,7.63-8.68,9.88,9.88,0,0,1,1.54-.37,10.73,10.73,0,0,1,1.51-.14l.3,0c.22,0,.43,0,.64,0a11.59,11.59,0,0,1,2.7.49,11.11,11.11,0,0,1,7.65,8.69,3.35,3.35,0,0,0,2.37,2.61l.06.19,2,0h53.78a3.4,3.4,0,0,0,3.4-2.77,11.16,11.16,0,0,1,22,0,3.41,3.41,0,0,0,3.43,2.77h0l3.74-.11a13,13,0,0,0,9.88-4.46,16.48,16.48,0,0,0,3.71-13l-.52-5.33h2.71a1,1,0,0,0,1-1h0a1,1,0,0,0-1-1h-2.91l-.14-1.52a55.9,55.9,0,0,0-3-13.45L212.71,169h7.09l4,7.85a1,1,0,0,0,.89.54,1,1,0,0,0,.46-.11,1,1,0,0,0,.43-1.35L222.05,169h58.69a1,1,0,0,0,1-1V130h8.65a2.51,2.51,0,0,0,2.5-2.51V103.66A2.51,2.51,0,0,0,290.39,101.15Zm-77.67,56.11a1.1,1.1,0,0,1-.82-.36,1.08,1.08,0,0,1-.28-.84l1.08-12.49a1.1,1.1,0,0,1,1.1-1h6a1.1,1.1,0,0,1,1.09,1L222,156.06a1.11,1.11,0,0,1-1.1,1.2h-8.19Zm14.21-.36a1.08,1.08,0,0,1-.28-.84l1.08-12.49a1.11,1.11,0,0,1,1.1-1h6a1.1,1.1,0,0,1,1.09,1L237,156.06a1.05,1.05,0,0,1-.29.84,1.09,1.09,0,0,1-.81.36h-8.19A1.1,1.1,0,0,1,226.93,156.9Zm.82,2.36h18.77l-1.09,5a3.64,3.64,0,0,0,.4,2.58H221l-1.82-3.53a1,1,0,0,0-.89-.54h-7.7v-1.33a2.21,2.21,0,0,1,2.21-2.21h15Zm14.35-2.36a1.13,1.13,0,0,1-.29-.84l1.09-12.49a1.09,1.09,0,0,1,1.1-1h5.12l.08,4.3L247,157.26h-4A1.09,1.09,0,0,1,242.1,156.9Zm12.74-30.57a3.23,3.23,0,1,1,3.23-3.22A3.22,3.22,0,0,1,254.84,126.33Zm10.52,8.08a1.48,1.48,0,0,1,1.56-1.31,1.6,1.6,0,0,1,1.33,1.76c0,1.79-1,4.24-2.52,4.88a4.34,4.34,0,0,1-2.63.23,6.27,6.27,0,0,1-2-.84,7.82,7.82,0,0,1-.86-.64,1,1,0,0,0-1.68.72l-.1,7.69a1.64,1.64,0,0,0,0,.22l2.62,11.82,1.35,6.1a1.59,1.59,0,0,1-1.16,1.9.58.58,0,0,1-.19,0,1.6,1.6,0,0,1-1.77-1.13l-3.41-14.68a1,1,0,0,0-1-.78h0a1,1,0,0,0-1,.77l-.13.57-1.37,5.83-.36,1.53-.11.44-1.39,5.88a1.62,1.62,0,0,1-.81,1.11,1.66,1.66,0,0,1-2.42-1.8l1.18-5.45.44-2,2.18-10.09a1,1,0,0,0,0-.23l-.07-3.12-.06-3.07-.13-6.87a1,1,0,0,0-.84-1c-.34-.06-8.31-1.56-11.4-13.66a1.3,1.3,0,0,1,.17-1,1.44,1.44,0,0,1,1-.62,1.41,1.41,0,0,1,1.62,1c1.21,4.08,4.22,11,10.9,11.84a1,1,0,0,0,.34,0c.85-.2,3.32-.51,4.56.36a13.48,13.48,0,0,1,2.38,3c.52.77,1,1.48,1.45,2.07a3.47,3.47,0,0,0,2,1.49,1.87,1.87,0,0,0,.62,0c1.41-.36,1.52-1.65,1.61-2.58ZM217.64,164.8l1.06,2.07h-6.76l-.75-2.07Zm43.46-15.11-.64-2.89.07-5.69c.18.1.37.19.57.28ZM198.72,107v-.19a4.69,4.69,0,0,1,4.69-4.68h56.9a4.69,4.69,0,0,1,4.69,4.68V107H198.72Zm62.38,2v3.5H202.62V109Zm-58.48,5.5H261.1v17.86a12.72,12.72,0,0,0-2.68-3.25,5.66,5.66,0,0,0-2.7-.89,5.23,5.23,0,1,0-1.86,0,13.19,13.19,0,0,0-1.42.2c-5.42-.76-8-6.83-9.05-10.41h0a3.45,3.45,0,0,0-6.19-.87,3.35,3.35,0,0,0-.43,2.61C239.64,131,246.56,134,249,134.69l.12,5.87H244a3.09,3.09,0,0,0-3.09,2.84l-1.09,12.49a3.2,3.2,0,0,0,.2,1.37h-1.19a3,3,0,0,0,.2-1.37L238,143.4a3.09,3.09,0,0,0-3.09-2.84h-6a3.09,3.09,0,0,0-3.09,2.84l-1.09,12.49a3,3,0,0,0,.21,1.37H223.8a3,3,0,0,0,.2-1.37l-1.08-12.49a3.09,3.09,0,0,0-3.09-2.84h-6a3.09,3.09,0,0,0-3.09,2.84l-1.09,12.49a3.18,3.18,0,0,0,.67,2.18,4.28,4.28,0,0,0-1.12,1.2,13.86,13.86,0,0,0-6.55-6.52ZM66.38,172.61A3.85,3.85,0,0,1,68.93,166H69a3.88,3.88,0,0,1,3.86,3.76,3.86,3.86,0,0,1-6.51,2.89Zm3.93,5a3.19,3.19,0,0,1,1.26,2.27,33.69,33.69,0,0,1-.31,3.48H62.77c1.46-5.46,4.11-6.18,4.18-6.2A3.84,3.84,0,0,1,70.31,177.65ZM158,176.21l.05,0a3.78,3.78,0,0,1,3.38-.21,3.22,3.22,0,0,1,1.67,2,53.2,53.2,0,0,1,.49,5.43h-8.48C155.39,177.54,157.89,176.25,158,176.21Zm-39.72,7.19h-8.63c1.36-6.61,4.4-7.43,4.48-7.45a3.81,3.81,0,0,1,3.36.45,3.14,3.14,0,0,1,1.26,2.27A45,45,0,0,1,118.26,183.4Zm81.3,6.61a4,4,0,0,1,1.32-1.77,3.83,3.83,0,0,1,3.33-.6,3.19,3.19,0,0,1,1.89,1.79,39,39,0,0,1,.91,4.22Zm-28.48-6.61h-5.51a50.83,50.83,0,0,0-.54-5.86,5.16,5.16,0,0,0-2.75-3.36,5.67,5.67,0,0,0-5.11.2c-.48.21-3.73,1.94-4.07,9H150V153.35h21.1Zm-23.1,0H128.54V153.35H148Zm-21.44,0h-6.26a42.22,42.22,0,0,0,.45-4.78,5.19,5.19,0,0,0-2.06-3.82,5.6,5.6,0,0,0-5-.8c-.24.05-4.46,1-6.06,9.4h-1.19V153.35h20.12Zm-22.12,0H83.86V153.35h20.56Zm-22.56,0H73.28a32.81,32.81,0,0,0,.29-3.53,5.19,5.19,0,0,0-2.06-3.82,5.06,5.06,0,0,0-1-.57A5.86,5.86,0,0,0,69,164h-.15A5.85,5.85,0,0,0,65,174.06a5.68,5.68,0,0,0,1.75,1.14l-.24.05c-.18,0-2.73.6-4.62,4.72V153.35h20Zm-29-27.11a8.83,8.83,0,0,1,6.7-2.94h.36V183.4H51V162.66a.66.66,0,0,0,0-.14A7.75,7.75,0,0,1,52.83,156.29Zm163.31,28.14a53.83,53.83,0,0,1,2.92,13l.13,1.32h-1.8l-8.16-4a52.72,52.72,0,0,0-1.24-6,5.16,5.16,0,0,0-3.12-3,5.61,5.61,0,0,0-5,.75,5.45,5.45,0,0,0-2.11,2.62l-11.51-5.62a.93.93,0,0,0-.44-.11H173.08V153.35H196.5a12.09,12.09,0,0,1,4.69,1l.11,0a11.94,11.94,0,0,1,6.85,7.89l.2.57h-8.8a1,1,0,0,0,0,2h9.52Zm39-17.43h-3.11l.08-.13a3.55,3.55,0,0,0,.42-1l.61-2.62,1-4.4.72-3,2.45,10.55a3.71,3.71,0,0,0,.27.68Zm35.71-39.52a.5.5,0,0,1-.5.51H271.1a.5.5,0,0,1-.5-.51V103.66a.5.5,0,0,1,.5-.51h19.29a.5.5,0,0,1,.5.51Z"/><path class="cls-1" d="M278.25,117.54h-.95a.5.5,0,0,0-.5.5.5.5,0,0,0,.5.5h.95a.5.5,0,0,0,.5-.5A.5.5,0,0,0,278.25,117.54Z"/><path class="cls-1" d="M284.09,117.54h-.95a.5.5,0,0,0-.5.5.5.5,0,0,0,.5.5h.95a.5.5,0,0,0,.5-.5A.51.51,0,0,0,284.09,117.54Z"/><path class="cls-1" d="M287.5,110.91h-1.1l-.07,0a2.77,2.77,0,0,0-2.64-2h-6a2.77,2.77,0,0,0-2.64,2h-1a.5.5,0,0,0-.5.5v2.1a.5.5,0,0,0,.5.5.5.5,0,0,0,.5-.5v-1.6h.41V120a.5.5,0,0,0,.5.5h.33a.94.94,0,0,0-.06.3v.91a1,1,0,0,0,2,0v-.91a.94.94,0,0,0-.06-.3h6.14a.94.94,0,0,0-.06.3v.85a1,1,0,1,0,2,0v-.85a.94.94,0,0,0-.06-.3H286a.5.5,0,0,0,.5-.5v-8.09H287v1.6a.5.5,0,0,0,1,0v-2.1A.5.5,0,0,0,287.5,110.91Zm-9.85-1h6a1.76,1.76,0,0,1,1.76,1.77v3.72h-9.56V111.7A1.76,1.76,0,0,1,277.65,109.93Zm-1.76,9.57v-3.08h9.56v3.08Z"/><path class="cls-1" d="M119.9,174.51h.16a5.86,5.86,0,0,0-.15-11.71h-.15a5.86,5.86,0,0,0,.14,11.71ZM117.11,166a3.84,3.84,0,0,1,2.7-1.2h.1a3.86,3.86,0,0,1,.1,7.71,3.78,3.78,0,0,1-2.76-1.06,3.85,3.85,0,0,1-.14-5.45Z"/><path class="cls-1" d="M202.28,174a5.77,5.77,0,0,0-3.35,3,5.86,5.86,0,1,0,3.35-3Zm5.38,7.22a3.86,3.86,0,0,1-7.11-.43,3.87,3.87,0,0,1,.18-2.95,3.8,3.8,0,0,1,2.21-2,3.61,3.61,0,0,1,1.25-.21,3.85,3.85,0,0,1,3.47,5.54Z"/><path class="cls-1" d="M156.38,165.79a4.4,4.4,0,0,0,.51,0,5.86,5.86,0,0,0,5.42,8,5.66,5.66,0,0,0,1.28-.15,5.86,5.86,0,0,0,4.45-7,5.87,5.87,0,0,0-7-4.45,5.74,5.74,0,0,0-1.37.5c0-.08,0-.16,0-.24a3.33,3.33,0,1,0-3.32,3.33Zm5.11-1.64a4,4,0,0,1,.83-.09,3.86,3.86,0,0,1,.83,7.62,3.85,3.85,0,0,1-4.08-5.83A3.85,3.85,0,0,1,161.49,164.15Zm-5.11-3a1.33,1.33,0,0,1,0,2.65,1.33,1.33,0,1,1,0-2.65Z"/></g></svg>