<svg xmlns="http://www.w3.org/2000/svg" viewBox="0 0 328.09 328.09"><defs><style>.cls-1{fill:#4e8466;}</style></defs><g id="kangoo"><path class="cls-1" d="M281.1,250.69A9.28,9.28,0,1,0,275,267c.22,0,.44,0,.67,0a9.27,9.27,0,0,0,5.42-16.26Zm-.58,11.78a7.27,7.27,0,0,1-10.27.72h0a7.28,7.28,0,0,1,4.26-12.75,4.52,4.52,0,0,1,.52,0,7.28,7.28,0,0,1,5.49,12.05Z"/><path class="cls-1" d="M281.4,216.22a2.47,2.47,0,0,0-2.23-1.39H263.39a2.48,2.48,0,0,0-2.47,2.47v13.84a2.48,2.48,0,0,0,2.47,2.48h22.52a2.49,2.49,0,0,0,2.23-3.57Zm4.92,15.17a.47.47,0,0,1-.41.23H263.39a.48.48,0,0,1-.47-.48V217.3a.47.47,0,0,1,.47-.47h15.78a.46.46,0,0,1,.43.27l6.74,13.83A.47.47,0,0,1,286.32,231.39Z"/><path class="cls-1" d="M111.61,245.53a1,1,0,1,0,0,2h12a1,1,0,0,0,0-2Z"/><path class="cls-1" d="M135.61,245.53a1,1,0,0,0,0,2h12a1,1,0,0,0,0-2Z"/><path class="cls-1" d="M294.21,232.06,285,213.58a.47.47,0,0,0-.05-.1,7.26,7.26,0,0,0-6.07-3.28H261.12a4.58,4.58,0,0,0-4.57,4.58v33.49H213a1,1,0,0,0-.74,1.68,14.78,14.78,0,0,1,2.31,3.47,13.77,13.77,0,0,1,1,4.16,1,1,0,0,0,1,.94h44.61a3.37,3.37,0,0,0,3.31-2.77,10.71,10.71,0,0,1,21.06,0,3.38,3.38,0,0,0,3.32,2.77h2.39a3.9,3.9,0,0,0,3.89-3.83l.21-18.71A7.24,7.24,0,0,0,294.21,232.06Zm-1.06,22.6a1.9,1.9,0,0,1-1.89,1.86h-2.39a1.37,1.37,0,0,1-1.35-1.13,12.71,12.71,0,0,0-25,0,1.38,1.38,0,0,1-1.35,1.13H217.47a15.19,15.19,0,0,0-1.07-3.91,13.8,13.8,0,0,0-1.35-2.34h42.5a1,1,0,0,0,1-1V214.78a2.58,2.58,0,0,1,2.57-2.58h17.74a5.23,5.23,0,0,1,4.36,2.33L292.44,233l.06.1a5.25,5.25,0,0,1,.86,2.87Z"/><path class="cls-1" d="M210.55,250.69a9.28,9.28,0,0,0-12.16,14c.16.14.32.26.49.39h-8.2a9.28,9.28,0,0,0,3.65-8A9.28,9.28,0,1,0,179,264.7c.15.14.32.26.48.39H88.15V247.53H99.61a1,1,0,0,0,0-2h-2A3.58,3.58,0,0,0,99.12,242l-.2-1.28a81.07,81.07,0,0,0-2.42-11.32h73.4l2.21,16.31a1,1,0,0,0-.5-.15h-12a1,1,0,0,0,0,2h12a1,1,0,0,0,1-1h.16a1.28,1.28,0,0,0,.33.06h74.38a1,1,0,0,0,1-.87l5.08-37.26h16.08a1,1,0,0,0,1-1v-5.07a1,1,0,0,0-1-1H252.18L208.61,206V110.49a1,1,0,0,0-1-1h-42.8a1,1,0,0,0-1,1v24h-2.06V93.31l10.43-3.07v8.14a1,1,0,0,0,1,1h6.72a1,1,0,0,0,1-1V81.74s0,0,0-.06a1.17,1.17,0,0,0,0-.2,1.21,1.21,0,0,0-.05-.18l-.1-.15c-.05-.05-.09-.11-.14-.15s0,0,0,0L161.36,66.24l-.11,0-.18-.09-.2,0-.12,0H149.7l-.12,0h-.05L66.37,80.76l-.12,0-.17.07a1,1,0,0,0-.17.12l-.1.07L55.73,91.88s0,.08-.07.12a.59.59,0,0,0-.12.2.79.79,0,0,0,0,.22.7.7,0,0,0,0,.14v9.25a4.77,4.77,0,0,0-1,9L40.06,125.25h0a1,1,0,0,0-.22.33,1,1,0,0,0-.07.38v8.32a1,1,0,0,0,1,1H59.24v93.09a1,1,0,0,0,1,1h6.65a85.63,85.63,0,0,0-2.64,12.08l-.08.52a3.6,3.6,0,0,0,1.51,3.56h-2l-.52-1.66a3.92,3.92,0,0,0-3.76-2.77h0a3.89,3.89,0,0,0-3.76,2.73l-5.53,16.85h-.62a3.21,3.21,0,0,0,0,6.41h155a1,1,0,0,0,.47-.13h.19a9.27,9.27,0,0,0,5.42-16.26Zm20.68-34a1,1,0,0,1,.58-.89.88.88,0,0,1,.42-.11,1,1,0,0,1,1,1v20.87a1,1,0,0,1-2,0Zm-14.3,0a1,1,0,1,1,2,0v20.87a1,1,0,0,1-2,0Zm-24.83,21a1,1,0,0,1-2,0V216.85a1,1,0,0,1,2,0Zm13.37-.14a1,1,0,0,1-2,0V216.71a1,1,0,0,1,2,0Zm-39.66-29.12v-97h40.8v94.7L170.86,210a3.44,3.44,0,0,0-3.06,3.88l1.83,13.53h-3.82ZM178.9,97.38h-4.72V89.65l4.72-1.39ZM161.75,69.06,177,80.74h-15.2Zm0,13.68H178.9v3.44l-17.15,5ZM88.15,245.53V229.37h.31c.92,1.38,2.15,4.85,3.52,13.85a3.4,3.4,0,0,0,1.43,2.29l0,0Zm75.66-18.16H118.32V209.46h45.49Zm0-19.91H118.32V194.23h45.49Zm0-15.23H118.32V179h45.49Zm0-15.23H118.32V164.84h45.49Zm0-14.16H118.32V150.68h45.49Zm0-26.32v12.16H118.32V136.52h45.49Zm-4.06-8.18v6.18H153ZM150,134.52h-1.46V117.44l10.68,8.68Zm-.93-19.23,10.68-9.73V124Zm-.53-2.22V94.66l10.68,8.68Zm1.81-19.51h9.4v7.64Zm-2.81-2H143V82.74h16.75v8.82ZM150.3,68h9.45V80.74h-16.1Zm-2.43.34L141.4,80.74H77.94ZM90.42,82.74H107l-7.83,8.4Zm6.32,8.82H80.15L88,83.17Zm12.62-8.39,8.77,8.39h-16.6Zm2.45-.43H128.4l-7.82,8.4Zm18.93.43,8.77,8.39H122.92Zm2.45-.43H141v7.48Zm-47.56,0-7.82,8.4L69,82.74Zm-19,.43,8.77,8.39H58.76ZM57.46,93.56h89.08v41H117.32a1,1,0,0,0-1,1v91.85H104.05V110.26a1,1,0,0,0-1-1H60.34a4.77,4.77,0,0,0-2.88-7.45Zm3.78,22.9,8.12,8.11V125H61.24Zm-7.56-10a2.78,2.78,0,1,1,2.78,2.78A2.79,2.79,0,0,1,53.68,106.48Zm2.78,5.2,2.78,2.78V125H43.18Zm-14.69,21.6V127H71.16v6.32H41.77Zm19.47,94.09V135.28h8.12v4.43a1,1,0,0,0,2,0v-4.43h.8a1,1,0,0,0,1-1V126a1,1,0,0,0-.08-.38,1.15,1.15,0,0,0-.21-.33h0l-1.5-1.5v-2.52a1,1,0,0,0-2,0v.52l-8.12-8.12v-2.37h40.81V227.37H95.79a13.71,13.71,0,0,0-3.16-5.09c-5.71-5.19-16.82-5.18-22,0a15.07,15.07,0,0,0-3,5.06Zm-3.75,17.08a1.91,1.91,0,0,1,1.86-1.35h0a2,2,0,0,1,1.38.58l-3.82,2.49Zm-1.56,4.76,5.62-3.68,1.06,3.34-8.36,5.46Zm-2.68,8.16,10-6.52L64.87,256l-7.06,4.61s0,0,0,0H52.16Zm12.24.64.84,2.67H61.4ZM69,265.09H49.44a1.21,1.21,0,0,1,0-2.41h1.15l.19,0h0l16.92,0H69a1.21,1.21,0,0,1,0,2.41Zm6.11,0H72a3.09,3.09,0,0,0,.24-1.22A3.19,3.19,0,0,0,69,260.68h-.6l-4.15-13.15H75.14Zm0-19.56H69.85l0,0a3.4,3.4,0,0,0,1.43-2.29c1.37-9,2.67-12.47,3.61-13.85h.22ZM87.3,226.44a1,1,0,0,0-.8.23,1,1,0,0,0-.33.7s0,0,0,.06v37.43h-3.5V244.59a1,1,0,0,0-2,0v20.27H77.14V227.43s0,0,0-.06a1,1,0,0,0-.35-.71,1,1,0,0,0-.82-.21l-.12,0a3.33,3.33,0,0,0-1.85.9,7.14,7.14,0,0,0-1.35,2c-1.08,2.26-2.19,6.28-3.3,13.55a1.43,1.43,0,0,1-.6,1,1.71,1.71,0,0,1-1.3.27,1.62,1.62,0,0,1-1.29-1.85l.09-.52A80.09,80.09,0,0,1,69,229.37c.24-.69.49-1.36.77-2A12.14,12.14,0,0,1,72,223.72c4.43-4.45,14.33-4.43,19.25,0a10.65,10.65,0,0,1,2.35,3.61c.27.64.53,1.3.77,2A76,76,0,0,1,96.94,241l.21,1.29a1.62,1.62,0,0,1-1.29,1.85,1.68,1.68,0,0,1-1.29-.27,1.44,1.44,0,0,1-.61-1c-1.11-7.26-2.17-11.29-3.23-13.55a6.88,6.88,0,0,0-1.32-2,3.25,3.25,0,0,0-2-.91ZM185.59,265a7.25,7.25,0,0,1-5.28-1.77h0a7.27,7.27,0,0,1,4.25-12.75,4.7,4.7,0,0,1,.53,0,7.28,7.28,0,0,1,.5,14.54ZM210,262.47a7.28,7.28,0,0,1-12.76-4.26,7.29,7.29,0,0,1,6.75-7.77,4.52,4.52,0,0,1,.52,0A7.28,7.28,0,0,1,210,262.47Z"/><path class="cls-1" d="M174.92,127.6a1,1,0,0,0,1-1v-5.37a1,1,0,1,0-2,0v5.37A1,1,0,0,0,174.92,127.6Z"/><path class="cls-1" d="M186.17,127.6a1,1,0,0,0,1-1v-5.37a1,1,0,1,0-2,0v5.37A1,1,0,0,0,186.17,127.6Z"/><path class="cls-1" d="M197.5,127.6a1,1,0,0,0,1-1v-5.37a1,1,0,0,0-2,0v5.37A1,1,0,0,0,197.5,127.6Z"/><path class="cls-1" d="M174.92,140.71a1,1,0,0,0,1-1v-5.37a1,1,0,0,0-2,0v5.37A1,1,0,0,0,174.92,140.71Z"/><path class="cls-1" d="M186.17,140.71a1,1,0,0,0,1-1v-5.37a1,1,0,0,0-2,0v5.37A1,1,0,0,0,186.17,140.71Z"/><path class="cls-1" d="M197.5,140.71a1,1,0,0,0,1-1v-5.37a1,1,0,0,0-2,0v5.37A1,1,0,0,0,197.5,140.71Z"/><path class="cls-1" d="M174.92,153.82a1,1,0,0,0,1-1v-5.37a1,1,0,0,0-2,0v5.37A1,1,0,0,0,174.92,153.82Z"/><path class="cls-1" d="M186.17,153.82a1,1,0,0,0,1-1v-5.37a1,1,0,0,0-2,0v5.37A1,1,0,0,0,186.17,153.82Z"/><path class="cls-1" d="M197.5,153.82a1,1,0,0,0,1-1v-5.37a1,1,0,0,0-2,0v5.37A1,1,0,0,0,197.5,153.82Z"/><path class="cls-1" d="M174.92,166.93a1,1,0,0,0,1-1v-5.37a1,1,0,0,0-2,0v5.37A1,1,0,0,0,174.92,166.93Z"/><path class="cls-1" d="M186.17,166.93a1,1,0,0,0,1-1v-5.37a1,1,0,0,0-2,0v5.37A1,1,0,0,0,186.17,166.93Z"/><path class="cls-1" d="M197.5,166.93a1,1,0,0,0,1-1v-5.37a1,1,0,0,0-2,0v5.37A1,1,0,0,0,197.5,166.93Z"/><path class="cls-1" d="M174.92,179.12a1,1,0,0,0,1-1v-5.37a1,1,0,0,0-2,0v5.37A1,1,0,0,0,174.92,179.12Z"/><path class="cls-1" d="M186.17,179.12a1,1,0,0,0,1-1v-5.37a1,1,0,0,0-2,0v5.37A1,1,0,0,0,186.17,179.12Z"/><path class="cls-1" d="M197.5,179.12a1,1,0,0,0,1-1v-5.37a1,1,0,0,0-2,0v5.37A1,1,0,0,0,197.5,179.12Z"/><path class="cls-1" d="M174.92,191.32a1,1,0,0,0,1-1V185a1,1,0,0,0-2,0v5.37A1,1,0,0,0,174.92,191.32Z"/><path class="cls-1" d="M186.17,191.32a1,1,0,0,0,1-1V185a1,1,0,0,0-2,0v5.37A1,1,0,0,0,186.17,191.32Z"/><path class="cls-1" d="M197.5,191.32a1,1,0,0,0,1-1V185a1,1,0,0,0-2,0v5.37A1,1,0,0,0,197.5,191.32Z"/><path class="cls-1" d="M174.92,203.51a1,1,0,0,0,1-1v-5.37a1,1,0,0,0-2,0v5.37A1,1,0,0,0,174.92,203.51Z"/><path class="cls-1" d="M186.17,203.51a1,1,0,0,0,1-1v-5.37a1,1,0,0,0-2,0v5.37A1,1,0,0,0,186.17,203.51Z"/><path class="cls-1" d="M197.5,203.51a1,1,0,0,0,1-1v-5.37a1,1,0,0,0-2,0v5.37A1,1,0,0,0,197.5,203.51Z"/><path class="cls-1" d="M81.6,127.6a1,1,0,0,0,1-1v-5.37a1,1,0,1,0-2,0v5.37A1,1,0,0,0,81.6,127.6Z"/><path class="cls-1" d="M92.93,127.6a1,1,0,0,0,1-1v-5.37a1,1,0,0,0-2,0v5.37A1,1,0,0,0,92.93,127.6Z"/><path class="cls-1" d="M81.6,140.71a1,1,0,0,0,1-1v-5.37a1,1,0,0,0-2,0v5.37A1,1,0,0,0,81.6,140.71Z"/><path class="cls-1" d="M92.93,140.71a1,1,0,0,0,1-1v-5.37a1,1,0,0,0-2,0v5.37A1,1,0,0,0,92.93,140.71Z"/><path class="cls-1" d="M70.36,153.82a1,1,0,0,0,1-1v-5.37a1,1,0,0,0-2,0v5.37A1,1,0,0,0,70.36,153.82Z"/><path class="cls-1" d="M81.6,153.82a1,1,0,0,0,1-1v-5.37a1,1,0,0,0-2,0v5.37A1,1,0,0,0,81.6,153.82Z"/><path class="cls-1" d="M92.93,153.82a1,1,0,0,0,1-1v-5.37a1,1,0,0,0-2,0v5.37A1,1,0,0,0,92.93,153.82Z"/><path class="cls-1" d="M70.36,166.93a1,1,0,0,0,1-1v-5.37a1,1,0,0,0-2,0v5.37A1,1,0,0,0,70.36,166.93Z"/><path class="cls-1" d="M81.6,166.93a1,1,0,0,0,1-1v-5.37a1,1,0,0,0-2,0v5.37A1,1,0,0,0,81.6,166.93Z"/><path class="cls-1" d="M92.93,166.93a1,1,0,0,0,1-1v-5.37a1,1,0,0,0-2,0v5.37A1,1,0,0,0,92.93,166.93Z"/><path class="cls-1" d="M70.36,179.12a1,1,0,0,0,1-1v-5.37a1,1,0,0,0-2,0v5.37A1,1,0,0,0,70.36,179.12Z"/><path class="cls-1" d="M81.6,179.12a1,1,0,0,0,1-1v-5.37a1,1,0,0,0-2,0v5.37A1,1,0,0,0,81.6,179.12Z"/><path class="cls-1" d="M92.93,179.12a1,1,0,0,0,1-1v-5.37a1,1,0,0,0-2,0v5.37A1,1,0,0,0,92.93,179.12Z"/><path class="cls-1" d="M70.36,191.32a1,1,0,0,0,1-1V185a1,1,0,0,0-2,0v5.37A1,1,0,0,0,70.36,191.32Z"/><path class="cls-1" d="M81.6,191.32a1,1,0,0,0,1-1V185a1,1,0,0,0-2,0v5.37A1,1,0,0,0,81.6,191.32Z"/><path class="cls-1" d="M92.93,191.32a1,1,0,0,0,1-1V185a1,1,0,0,0-2,0v5.37A1,1,0,0,0,92.93,191.32Z"/><path class="cls-1" d="M70.36,203.51a1,1,0,0,0,1-1v-5.37a1,1,0,0,0-2,0v5.37A1,1,0,0,0,70.36,203.51Z"/><path class="cls-1" d="M92.93,203.51a1,1,0,0,0,1-1v-5.37a1,1,0,0,0-2,0v5.37A1,1,0,0,0,92.93,203.51Z"/><path class="cls-1" d="M70.36,215.7a1,1,0,0,0,1-1v-5.37a1,1,0,0,0-2,0v5.37A1,1,0,0,0,70.36,215.7Z"/><path class="cls-1" d="M92.93,215.7a1,1,0,0,0,1-1v-5.37a1,1,0,1,0-2,0v5.37A1,1,0,0,0,92.93,215.7Z"/><path class="cls-1" d="M74.69,211.66h.69c0,.13,0,.25,0,.37a6.28,6.28,0,1,0,12.56,0c0-.12,0-.24,0-.37h.71a1,1,0,0,0,1-1v-2.08a1,1,0,0,0-.79-1,7.2,7.2,0,0,0-3.15-5l0,0h0a7.19,7.19,0,0,0-3-1.1v-4.31a1,1,0,0,0-2,0v4.34a7.2,7.2,0,0,0-6,6.1,1,1,0,0,0-.89,1v2.09A1,1,0,0,0,74.69,211.66Zm7,4.65A4.28,4.28,0,0,1,77.36,212c0-.12,0-.24,0-.37h8.51c0,.13,0,.25,0,.37A4.28,4.28,0,0,1,81.64,216.31Zm-6-6.76a1,1,0,0,0,.83-1,5.17,5.17,0,0,1,1.63-3.76l.88,1.63a1,1,0,0,0,.88.52,1,1,0,0,0,.48-.12,1,1,0,0,0,.4-1.36l-1-1.73a5.39,5.39,0,0,1,1.4-.32c.15,0,.3,0,.46,0l.31,0a5.08,5.08,0,0,1,1.74.4l-.94,1.64a1,1,0,0,0,.37,1.37,1,1,0,0,0,.49.13,1,1,0,0,0,.87-.5l.86-1.5a5.16,5.16,0,0,1,1.48,3.61,1,1,0,0,0,.72,1v.13h-5v-.33a1,1,0,0,0-2,0v.33H75.69Z"/></g></svg>