<svg xmlns="http://www.w3.org/2000/svg" viewBox="0 0 328.09 328.09"><defs><style>.cls-1{fill:#4e8466;}</style></defs><g id="camion"><rect class="cls-1" x="223.02" y="119.61" width="15.46" height="22.57" rx="1"/><rect class="cls-1" x="265.35" y="119.61" width="15.46" height="22.57" rx="1"/><rect class="cls-1" x="201.67" y="119.61" width="15.46" height="22.57" rx="1"/><rect class="cls-1" x="180.57" y="119.61" width="15.46" height="22.57" rx="1"/><rect class="cls-1" x="244.13" y="119.61" width="15.46" height="22.57" rx="1"/><rect class="cls-1" x="223.02" y="90.44" width="15.46" height="22.57" rx="1"/><rect class="cls-1" x="265.35" y="90.44" width="15.46" height="22.57" rx="1"/><rect class="cls-1" x="201.67" y="90.44" width="15.46" height="22.57" rx="1"/><rect class="cls-1" x="180.57" y="90.44" width="15.46" height="22.57" rx="1"/><rect class="cls-1" x="244.13" y="90.44" width="15.46" height="22.57" rx="1"/><path class="cls-1" d="M300.1,70.21H161.41a1,1,0,0,0-1,1v9.48a1,1,0,0,0,1,1h3.74v98.64a69.6,69.6,0,0,0-16.55-1.49h0c-.94,0-17.71.09-27.22,6.41l-8.31,5.07a9.18,9.18,0,0,1-2.57,1.06l-12,2.89a6.62,6.62,0,0,0-5,7l.18,1.92a29.37,29.37,0,0,0-6.5,3.12l-8.32,5.07a8.89,8.89,0,0,1-2.57,1.06l-12,2.89a6.63,6.63,0,0,0-5,7l.22,2.28a28.2,28.2,0,0,0-5.49,2.76l-8.31,5.06a8.62,8.62,0,0,1-2.57,1.06l-12,2.89a6.63,6.63,0,0,0-5,7l1.4,15.2a3.92,3.92,0,0,0,3.92,3.57h7.26A3.4,3.4,0,0,0,42,259.4a11.1,11.1,0,0,1,21.86,0,3.4,3.4,0,0,0,3.39,2.77h48.84a3.4,3.4,0,0,0,3.39-2.77,11.1,11.1,0,0,1,21.86,0,3.4,3.4,0,0,0,3.39,2.77h5.8a4.24,4.24,0,0,0,4.24-4.24,17.21,17.21,0,0,0-1-5.67H187a1.5,1.5,0,0,0,0-3H166.83a9.55,9.55,0,1,0-6.48,0h-7.92a17.17,17.17,0,0,0-10.86-8.06l-.41-.1h8.11a3.4,3.4,0,0,0,3.39-2.76,11.08,11.08,0,0,1,4.54-7.14,10.81,10.81,0,0,1,3.07-1.5,10.86,10.86,0,0,1,6.64,0,10.81,10.81,0,0,1,3.07,1.5,11.08,11.08,0,0,1,4.54,7.14,3.4,3.4,0,0,0,3.39,2.76h5.81a4.23,4.23,0,0,0,4.23-4.23,17.21,17.21,0,0,0-.95-5.67h34.19a1.5,1.5,0,0,0,0-3H201.06a9.56,9.56,0,1,0-6.47,0h-9a17.11,17.11,0,0,0-10.86-8.06l-.4-.1h9.16a3.4,3.4,0,0,0,3.39-2.76,11.1,11.1,0,0,1,21.86,0,3.39,3.39,0,0,0,3.38,2.76H218a4.24,4.24,0,0,0,4.24-4.24,17.14,17.14,0,0,0-4.54-11.66h77.7a1,1,0,0,0,1-1V81.69h3.75a1,1,0,0,0,1-1V71.21A1,1,0,0,0,300.1,70.21ZM163.59,232.73a7.56,7.56,0,1,1-7.55,7.55A7.56,7.56,0,0,1,163.59,232.73Zm41.79-13.51a7.56,7.56,0,1,1-7.55-7.56A7.56,7.56,0,0,1,205.38,219.22Zm54.81-56.3H201.32V149.76h58.87Zm-59.87,2h75.16v6.3H186v-6.3Zm19.87,50.88A2.24,2.24,0,0,1,218,218h-5.81a1.44,1.44,0,0,1-1.42-1.11,13.1,13.1,0,0,0-25.79,0,1.42,1.42,0,0,1-1.42,1.11H166l-8.2-2c-.3-.36-.89-1-1.78-1.9a7,7,0,0,1,7.08,1.9,3.5,3.5,0,0,0,2.35,1.27,3.48,3.48,0,0,0,3.06-5.66,13,13,0,0,0-3-2.58,7.7,7.7,0,1,0-15.25-1.52,8.08,8.08,0,0,0,.17,1.55l-.34.23c-6.92-4.67-18.54-9.88-35.65-9.47a73.09,73.09,0,0,0-18.78,2.65l-.14-1.46a4.62,4.62,0,0,1,3.49-4.88l12-2.89a11,11,0,0,0,3.15-1.29l8.35-5.09c9.1-6.05,26-6.1,26.18-6.1a65.55,65.55,0,0,1,16.53,1.59c.69.15,1.35.32,2,.49a50.13,50.13,0,0,1,21.51,11.53,20.31,20.31,0,0,1,2,2.08s0,0,0,0a1.07,1.07,0,0,0,.54.34l1.9.45,2,.48,13.42,3.2a14,14,0,0,1,1.44.43,15.56,15.56,0,0,1,1.68.69l.32.16a15.4,15.4,0,0,1,2.78,1.84A15.16,15.16,0,0,1,220.19,215.8Zm-36,13.9a12.77,12.77,0,0,1,.69,1.5,15.11,15.11,0,0,1,1.1,5.67,2.22,2.22,0,0,1-2.23,2.23h-5.81a1.41,1.41,0,0,1-1.42-1.11A13.08,13.08,0,0,0,173,231.2a12.93,12.93,0,0,0-1.72-1.5,12.79,12.79,0,0,0-2.68-1.5,13.15,13.15,0,0,0-12.76,1.5,13.59,13.59,0,0,0-1.72,1.5,13.08,13.08,0,0,0-3.46,6.79,1.41,1.41,0,0,1-1.42,1.11H132.78l-8.2-1.95a28.1,28.1,0,0,0-2-2.1,6.57,6.57,0,0,1,1.12-.1,7,7,0,0,1,5.11,2.19,3.49,3.49,0,1,0,5.42-4.39,11.8,11.8,0,0,0-1.61-1.55,16,16,0,0,0-1.44-1,3.89,3.89,0,0,0,.09-.47,7.42,7.42,0,0,0,.08-1c0-.15,0-.3,0-.45a7.67,7.67,0,0,0-2.33-5.08,7.18,7.18,0,0,0-.79-.67,7.91,7.91,0,0,0-.86-.56,7.64,7.64,0,0,0-3.71-.95,7.72,7.72,0,0,0-7.14,4.81,7.49,7.49,0,0,0-.32,1,8.56,8.56,0,0,0-.19,1,6.84,6.84,0,0,0-.06.91,7.69,7.69,0,0,0,.11,1.27c-7-4.53-18.38-9.35-34.87-9h0a72.51,72.51,0,0,0-19.79,3l-.16-1.79a4.61,4.61,0,0,1,3.49-4.88l12-2.88a11.09,11.09,0,0,0,3.14-1.3L88.2,208a26.69,26.69,0,0,1,5.62-2.75l1-.34,1-.31a73.24,73.24,0,0,1,18.62-2.7c16-.4,27.1,4.42,33.87,8.81l.86.58.85.58c.91.65,1.73,1.28,2.44,1.87q.42.33.78.66l.78.69a25.89,25.89,0,0,1,2.44,2.5,1,1,0,0,0,.56.36l.38.09,4.19,1,4.19,1,8.55,2a15.15,15.15,0,0,1,9,6.12A12.82,12.82,0,0,1,184.16,229.7ZM151,250.76a13.57,13.57,0,0,1,.69,1.5,15.11,15.11,0,0,1,1.1,5.67,2.24,2.24,0,0,1-2.24,2.24h-5.8a1.42,1.42,0,0,1-1.42-1.11,13.07,13.07,0,0,0-3.46-6.8,13,13,0,0,0-4.4-3,13.08,13.08,0,0,0-10.08,0,13.25,13.25,0,0,0-2.68,1.5,12.93,12.93,0,0,0-1.72,1.5,13.07,13.07,0,0,0-3.46,6.8,1.42,1.42,0,0,1-1.42,1.11H67.25a1.42,1.42,0,0,1-1.42-1.11,13.1,13.1,0,0,0-25.8,0,1.42,1.42,0,0,1-1.42,1.11H31.35a1.92,1.92,0,0,1-1.92-1.76L28,243.22a4.62,4.62,0,0,1,3.5-4.88l12-2.89a10.81,10.81,0,0,0,3.14-1.3L55,229.06a25.49,25.49,0,0,1,4.6-2.36l1-.37,1-.34c8.92-3,19.49-3,19.64-3,15.51-.39,26.45,4.14,33.28,8.43l.88.57.87.58c.93.65,1.77,1.27,2.51,1.87l.82.67c.29.24.56.48.81.7a26.68,26.68,0,0,1,2.86,2.88,1,1,0,0,0,.55.35l.38.09,4.2,1,4.19,1,8.55,2a15.15,15.15,0,0,1,9,6.12A14.34,14.34,0,0,1,151,250.76Zm-32.91-23.29a6.26,6.26,0,0,1,.29-1,5.72,5.72,0,0,1,5.29-3.57,5.65,5.65,0,0,1,2.75.71,5.5,5.5,0,0,1,1.56,1.26,5.65,5.65,0,0,1,1.38,3.29c0,.15,0,.3,0,.45a4.73,4.73,0,0,1,0,.53,13.34,13.34,0,0,0-3.18-1,13.58,13.58,0,0,0-2.07-.2l-.36,0a13.39,13.39,0,0,0-2.43.22,13.69,13.69,0,0,0-2,.52l-.07,0,0,.06a11,11,0,0,0-1.15.46,5.48,5.48,0,0,1,0-.57c0-.06,0-.12,0-.18A5.47,5.47,0,0,1,118.07,227.47Zm34.11-19.88a5.71,5.71,0,1,1,11.42,0,4.55,4.55,0,0,1,0,.52,13.81,13.81,0,0,0-5.62-1.19,14,14,0,0,0-5.72,1.23A5.27,5.27,0,0,1,152.18,207.59ZM210,199.35c-.32-.09-.64-.2-1-.28l-13.88-3.31V173.22H210Zm-19.3-26.13h2.44v22.07L192,195c-.24-.3-.69-.8-1.33-1.45Zm24.8,28.92a17.69,17.69,0,0,0-3.5-2.06V173.22h17.8v28.92Zm16.3-28.92h17.79v28.92H231.76Zm19.79,28.92V173.22h14.86v28.92Zm16.86-28.92h2.45v28.92h-2.45Zm25.94,28.92H272.86V173.22h3.62a1,1,0,0,0,1-1v-8.3a1,1,0,0,0-1-1H262.19V148.76a1,1,0,0,0-1-1H200.32a1,1,0,0,0-1,1v14.16H185a1,1,0,0,0-1,1v8.3a1,1,0,0,0,1,1h3.63v18.47a51.69,51.69,0,0,0-21.51-10.89V81.69h127.2ZM299.1,79.69H162.41V72.21H299.1Z"/><path class="cls-1" d="M225.46,162.07a2.44,2.44,0,0,0,1.87-.86,4,4,0,0,1,2.84-1.21,3.76,3.76,0,0,1,2.72,1.15,2.49,2.49,0,0,0,1.67.9,2.54,2.54,0,0,0,1.82-.54,2.49,2.49,0,0,0,.9-1.67,2.42,2.42,0,0,0-.54-1.81,8.42,8.42,0,0,0-1.67-1.47,5.52,5.52,0,0,0,.05-.71,5,5,0,1,0-10,0,4.49,4.49,0,0,0,.06.73,8.26,8.26,0,0,0-1.64,1.41,2.48,2.48,0,0,0,1.89,4.08Zm4.68-9.21a3,3,0,0,1,3,2.7,8.36,8.36,0,0,0-2.92-.52,8.77,8.77,0,0,0-3,.53A3,3,0,0,1,230.14,152.86Z"/><path class="cls-1" d="M183.66,193.7A51,51,0,0,0,167.15,185c-.65-.2-1.31-.39-2-.58a52.31,52.31,0,0,0-12.09-1.77,2.08,2.08,0,0,0-2.15,2.09v12.57a1,1,0,0,0,1,1H182a2.6,2.6,0,0,0,1.63-4.63Zm-1.06,2.22a.57.57,0,0,1-.57.41H152.91V184.76l.09-.09a50.25,50.25,0,0,1,12.15,1.84c.69.19,1.35.39,2,.61a48.8,48.8,0,0,1,15.26,8.14A.57.57,0,0,1,182.6,195.92Z"/><path class="cls-1" d="M150,215.34a2.68,2.68,0,0,0-.54-.58c-.27-.22-.57-.45-.88-.68l-.95-.71-.87-.61a51.85,51.85,0,0,0-27.9-9,2.3,2.3,0,0,0-1.51.59,2.11,2.11,0,0,0-.63,1.5v12.57a1,1,0,0,0,1,1h30.11a2.64,2.64,0,0,0,1.31-.35,2.55,2.55,0,0,0,1-1,3.52,3.52,0,0,0,.17-.39,1.67,1.67,0,0,0,.08-.3,2.56,2.56,0,0,0-.37-2Zm-1.6,1.65a.57.57,0,0,1-.57.4H118.68V205.82l.08-.09a49.65,49.65,0,0,1,28.07,9.57c.48.36.94.7,1.34,1a.56.56,0,0,1,.2.64A0,0,0,0,1,148.36,217Z"/><path class="cls-1" d="M153.77,270.32H133.65a9.56,9.56,0,1,0-6.48,0H56.12a9.54,9.54,0,1,0-4.36.51,1.49,1.49,0,0,0,1.12,2.49H153.77a1.5,1.5,0,1,0,0-3Zm-23.36-16.53a7.56,7.56,0,1,1-7.56,7.55A7.56,7.56,0,0,1,130.41,253.79Zm-77.53,0a7.56,7.56,0,1,1-7.56,7.55A7.56,7.56,0,0,1,52.88,253.79Z"/><path class="cls-1" d="M116.59,236.16a2.73,2.73,0,0,0-.35-.33c-.54-.44-1.17-.91-1.85-1.41l-.83-.58-.84-.57a51.89,51.89,0,0,0-27.08-8.48,2.1,2.1,0,0,0-2.15,2.09v12.58a1,1,0,0,0,1,1h30.12a2.51,2.51,0,0,0,1.3-.36,2.48,2.48,0,0,0,1-1,2.32,2.32,0,0,0,.18-.39,2.93,2.93,0,0,0,.13-.57,2.64,2.64,0,0,0-.11-1.09A2.55,2.55,0,0,0,116.59,236.16Zm-2,2.3H85.49V226.88l.09-.09a49.73,49.73,0,0,1,26.75,8.64c.53.36,1,.71,1.48,1l1,.75.2.16a.57.57,0,0,1,.19.66.67.67,0,0,1-.21.29A.62.62,0,0,1,114.61,238.46Z"/><path class="cls-1" d="M99.44,252.26a14.49,14.49,0,0,0-1.43-1c0-.16.07-.32.09-.48a7.42,7.42,0,0,0,.08-1c0-.15,0-.3,0-.45A7.69,7.69,0,0,0,95,243.52a6,6,0,0,0-.86-.56,6.86,6.86,0,0,0-.91-.42,7.66,7.66,0,0,0-10.1,4.72,6.3,6.3,0,0,0-.26,1,6.77,6.77,0,0,0-.13,1c0,.15,0,.3,0,.46a7.39,7.39,0,0,0,.18,1.56,13.35,13.35,0,0,0-3,2.49,3.5,3.5,0,0,0,.41,4.92,3.51,3.51,0,0,0,2.25.83,3.43,3.43,0,0,0,2.64-1.22,7.42,7.42,0,0,1,5.3-2.27,7.05,7.05,0,0,1,5.11,2.18,3.48,3.48,0,1,0,5.41-4.39A11.13,11.13,0,0,0,99.44,252.26Zm-14.68-2.55a5.23,5.23,0,0,1,.09-1,5.34,5.34,0,0,1,.26-1,5.68,5.68,0,0,1,7.31-3.42,5.83,5.83,0,0,1,.91.43,5,5,0,0,1,.82.57,5.75,5.75,0,0,1,2,3.91c0,.15,0,.3,0,.45a4.55,4.55,0,0,1,0,.53,14.06,14.06,0,0,0-3.19-1,13.36,13.36,0,0,0-2.42-.22c-.25,0-.49,0-.73,0a15.15,15.15,0,0,0-1.71.19,14.93,14.93,0,0,0-2.17.57c-.39.14-.76.29-1.12.44,0-.09,0-.19,0-.28s0-.17,0-.25Z"/></g></svg>